<?xml version='1.0' encoding='utf-8'?>
<svg xmlns="http://www.w3.org/2000/svg" width="1920" height="1080" viewBox="0 0 1920 1080" data-theme="dark">
  <style>
        @font-face {
            font-family: 'Inter';
            src: url('assets/fonts/Inter-Regular.ttf') format('truetype');
            font-weight: 400;
            font-style: normal;
            font-display: swap;
        }
        @font-face {
            font-family: 'Inter';
            src: url('assets/fonts/Inter-Bold.ttf') format('truetype');
            font-weight: 600;
            font-style: normal;
            font-display: swap;
        }
        @font-face {
            font-family: 'Inter';
            src: url('assets/fonts/Inter-Bold.ttf') format('truetype');
            font-weight: 800;
            font-style: normal;
            font-display: swap;
        }
        
:root {
    --background: #0f172a;
    --panel: #1e293b;
    --primary-text: #f1f5f9;
    --muted-text: #94a3b8;
    --inverse-text: #0f172a;
    --border: #334155;
    --shadow-color: #000000;
    --icon-pad-bg: #1e293b;
    --art-glow: #7dd3fc;
    --art-glow-opacity: 0.18;
    --art-sheen: #ffffff;
    --art-sheen-opacity: 0.18;
    --art-shadow: #000000;
    --art-shadow-opacity: 0.28;
    --art-muted-line: #64748b;
    --art-panel-tint: #1e293b;
    --font-family: 'Inter', 'Segoe UI', 'Kalam', Roboto, Helvetica, Arial, sans-serif;
    --radius-xl: 16px;
    --font-family-headline: 'Inter', 'Segoe UI', 'Kalam', Roboto, Helvetica, Arial, sans-serif;
    --font-family-body: 'Inter', 'Segoe UI', 'Kalam', Roboto, Helvetica, Arial, sans-serif;
    --font-heading: 'Inter', 'Segoe UI', 'Kalam', Roboto, Helvetica, Arial, sans-serif;
    --font-body: 'Inter', 'Segoe UI', 'Kalam', Roboto, Helvetica, Arial, sans-serif;
    --font-size-h1: 56px;
    --font-size-h2: 40px;
    --font-size-h3: 28px;
    --font-size-body: 24px;
    --font-size-caption: 18px;
    --secondary-text: var(--muted-text);
    --panel-border: var(--border);
    --font-weight-normal: 400;
    --font-weight-medium: 500;
    --font-weight-semibold: 600;
    --font-weight-bold: 700;
    --spacing-gutter-pct: 0.07;
    --spacing-top-pct: 0.15;
    --spacing-bottom-pct: 0.07;
    --spacing-title-y-pct: 0.055;
    --accent-1: #93c5fd;
    --accent-2: #86efac;
    --accent-3: #fcd34d;
    --accent-4: #f9a8d4;
    --accent-5: #c4b5fd;
    --accent-6: #a5f3fc;
}
:root[data-theme="dark"] {
    --background: #0f172a;
    --panel: #1e293b;
    --primary-text: #f1f5f9;
    --muted-text: #94a3b8;
    --inverse-text: #0f172a;
    --border: #334155;
    --shadow-color: #000000;
    --icon-pad-bg: #1e293b;
    --art-glow: #7dd3fc;
    --art-glow-opacity: 0.18;
    --art-sheen: #ffffff;
    --art-sheen-opacity: 0.18;
    --art-shadow: #000000;
    --art-shadow-opacity: 0.28;
    --art-muted-line: #64748b;
    --art-panel-tint: #1e293b;
    --accent-1: #93c5fd;
    --accent-2: #86efac;
    --accent-3: #fcd34d;
    --accent-4: #f9a8d4;
    --accent-5: #c4b5fd;
    --accent-6: #a5f3fc;
}
:root[data-theme="light"] {
    --background: #f8fafc;
    --panel: #ffffff;
    --primary-text: #0f172a;
    --muted-text: #64748b;
    --inverse-text: #ffffff;
    --border: #e2e8f0;
    --shadow-color: #000000;
    --icon-pad-bg: #1e293b;
    --art-glow: #0891b2;
    --art-glow-opacity: 0.10;
    --art-sheen: #ffffff;
    --art-sheen-opacity: 0.34;
    --art-shadow: #0f172a;
    --art-shadow-opacity: 0.14;
    --art-muted-line: #94a3b8;
    --art-panel-tint: #f1f5f9;
    --accent-1: #3b82f6;
    --accent-2: #22c55e;
    --accent-3: #f59e0b;
    --accent-4: #ec4899;
    --accent-5: #8b5cf6;
    --accent-6: #06b6d4;
}</style>
  <rect x="0" y="0" width="1.92E+3" height="1.08E+3" fill="#252a34" stroke="none" id="programmatic_background"/>
  <line id="HEADER_DECOR" x1="960.0" x2="1080.0" y1="135.0" y2="135.0" stroke="var(--accent-1)" stroke-width="6" stroke-linecap="round"/>
  <defs>
    <pattern id="svg114c916d-napkin-hatch" patternUnits="userSpaceOnUse" width="12" height="12">
      <path d="M -3 12 L 12 -3 M 0 15 L 15 0" fill="none" stroke="var(--primary-text)" stroke-width="1" stroke-opacity="0.05"/>
    </pattern>
    <filter id="svg114c916d-shadow" x="-30%" y="-30%" width="160%" height="160%">
      <feDropShadow dx="0" dy="2" stdDeviation="3" flood-color="#000000" flood-opacity="0.08"/>
      <feDropShadow dx="0" dy="6" stdDeviation="10" flood-color="#000000" flood-opacity="0.12"/>
    </filter>
    <marker id="svg114c916d-arrowhead" markerWidth="10" markerHeight="10" refX="9" refY="5" orient="auto">
      <path d="M 0 0 L 10 5 L 0 10 Z" fill="var(--accent-1)"/>
    </marker>
    <filter id="svg114c916d-text-glow" x="-20%" y="-20%" width="140%" height="140%">
      <feDropShadow dx="0" dy="0" stdDeviation="2" flood-color="#000000" flood-opacity="0.4"/>
    </filter>
    <radialGradient id="svg114c916d-universal-edge-vignette" cx="50%" cy="50%" r="72%">
      <stop offset="0%" stop-color="var(--background)" stop-opacity="0"/>
      <stop offset="72%" stop-color="var(--background)" stop-opacity="0.12"/>
      <stop offset="100%" stop-color="var(--primary-text)" stop-opacity="0.08"/>
    </radialGradient>
    <linearGradient id="svg114c916d-universal-surface-sheen" x1="0%" y1="0%" x2="100%" y2="100%">
      <stop offset="0%" stop-color="var(--art-sheen)" stop-opacity="var(--art-sheen-opacity)"/>
      <stop offset="46%" stop-color="var(--art-sheen)" stop-opacity="0.035"/>
      <stop offset="100%" stop-color="var(--art-panel-tint)" stop-opacity="0.14"/>
    </linearGradient>
    <radialGradient id="svg114c916d-universal-icon-aura" cx="50%" cy="42%" r="64%">
      <stop offset="0%" stop-color="var(--art-glow)" stop-opacity="var(--art-glow-opacity)"/>
      <stop offset="100%" stop-color="var(--background)" stop-opacity="0"/>
    </radialGradient>
  </defs>
  <rect width="100%" height="100%" fill="var(--background)" id="CANVAS_BG"/>
  <rect width="100%" height="100%" fill="url(#svg114c916d-napkin-hatch)"/>
  <rect id="UNIVERSAL_EDGE_VIGNETTE" width="100%" height="100%" fill="url(#svg114c916d-universal-edge-vignette)" opacity="0.62"/>
  <text id="TITLE" x="960.0" y="59" text-anchor="middle" font-weight="800" font-size="56" fill="#f1f5f9" style="font-size: 60px; font-family: Inter, Segoe UI, Kalam, Roboto, Helvetica, Arial, sans-serif; font-weight: 700; letter-spacing:-1.2px;" data-final-font-size="60">
    <tspan x="960.0" dy="68.00px">Factors Shaping the Roswell Narrative</tspan>
  </text>
  <rect id="TITLE_FRAME" x="134" y="59" width="1652" height="103" fill="none"/>
  <g transform="translate(50, 500) scale(0.95)">
    <g transform="translate(240.0, 0)">
      <rect id="ITEM_1_BG" x="-140" y="-180" width="280" height="360" rx="24" fill="var(--panel)" stroke="var(--accent-1)" stroke-width="2"/>
      <text id="ITEM_1_HEAD" x="0.0" y="10.0" text-anchor="middle" font-weight="bold" font-size="32" fill="var(--accent-1)" data-bg-id="ITEM_1_BG" fill-opacity="1.0" stroke="none" style="font-size: 30px; font-family: Inter, Segoe UI, Kalam, Roboto, Helvetica, Arial, sans-serif; font-weight: 700; letter-spacing:-0.4px;" data-final-font-size="30">
        <tspan x="0.0" dy="28.25px">Remote Geography</tspan>
      </text>
      <rect id="ITEM_1_HEAD_FRAME" x="-120" y="10" width="240" height="40" fill="none"/>
      <text id="ITEM_1_BODY" x="0.0" y="60.0" text-anchor="middle" font-size="22" fill="var(--primary-text)" data-bg-id="ITEM_1_BG" style="font-size: 26px; font-family: Inter, Segoe UI, Kalam, Roboto, Helvetica, Arial, sans-serif; font-weight: 400;" data-final-font-size="26">
        <tspan x="0.0" dy="26.86px">Vast distances delayed</tspan>
        <tspan x="0.0" dy="29.90px">reporting and slowed</tspan>
        <tspan x="0.0" dy="29.90px">communication chains</tspan>
      </text>
      <rect id="ITEM_1_BODY_FRAME" x="-143" y="60" width="286" height="120" fill="none" data-side-overflow-fix="47.0|47.0"/>
      <circle id="ITEM_1_PAD" cx="0" cy="-70" r="58" fill="var(--icon-pad-bg)" stroke="var(--primary-text)" opacity="0.9" fill-opacity="0.9" stroke-width="2"/>
      <circle id="ITEM_1_PAD_INNER" cx="0" cy="-70" r="45.24" fill="var(--accent-1)" fill-opacity="0.22"/>
      <circle cx="0" cy="-70" r="46.4" fill="none" stroke="var(--accent-1)" stroke-width="3" stroke-dasharray="6 4"/>
      <g id="ITEM_1_ICON" transform="translate(-45, -115)" data-icon-size="90" stroke-dasharray="6 4">
        <g transform="translate(-3.2310743801652912,-3.6049586776859535) scale(0.18694214876033058)" vector-effect="non-scaling-stroke" fill="#f1f5f9" fill-opacity="1.0" stroke="none">
          <path fill="#f1f5f9" d="M149.9 27.2L34.25 56.74v76.76L157.8 93.85l46.7-44.67zm132.8 57c-7.4.18-10.1 1.88.9 7.13C346.9 121.6 441.7 206.8 391.3 216.9C232.2 249 130.4 292.3 48.51 390.8C25.42 418.6 18 494.8 18 494.8h432.6s-139-21.1-147.8-75.7c-14.9-92.2 194.5-102.7 196.5-199.9c.9-43.2-88.3-124.99-184.4-132.52c-5.6-.44-22.7-2.71-32.2-2.48m-163.5 40.9l-32.69 10.5v122.2l35.99-10z" vector-effect="non-scaling-stroke" stroke="none"/>
        </g>
      </g>
    </g>
    <text x="420.0" y="50" text-anchor="middle" font-size="72" font-weight="900" fill="var(--muted-text)" opacity="0.5" dominant-baseline="middle">+</text>
    <g transform="translate(600.0, 0)">
      <rect id="ITEM_2_BG" x="-140" y="-180" width="280" height="360" rx="24" fill="var(--panel)" stroke="var(--accent-2)" stroke-width="2"/>
      <text id="ITEM_2_HEAD" x="0.0" y="10.0" text-anchor="middle" font-weight="bold" font-size="32" fill="var(--accent-2)" data-bg-id="ITEM_2_BG" fill-opacity="1.0" stroke="none" style="font-size: 30px; font-family: Inter, Segoe UI, Kalam, Roboto, Helvetica, Arial, sans-serif; font-weight: 700; letter-spacing:-0.4px;" data-final-font-size="30">
        <tspan x="0.0" dy="28.25px">Military Secrecy</tspan>
      </text>
      <rect id="ITEM_2_HEAD_FRAME" x="-120" y="10" width="240" height="40" fill="none"/>
      <text id="ITEM_2_BODY" x="0.0" y="60.0" text-anchor="middle" font-size="22" fill="var(--primary-text)" data-bg-id="ITEM_2_BG" style="font-size: 26px; font-family: Inter, Segoe UI, Kalam, Roboto, Helvetica, Arial, sans-serif; font-weight: 400;" data-final-font-size="26">
        <tspan x="0.0" dy="20.88px">Existing Cold War</tspan>
        <tspan x="0.0" dy="29.90px">programs provided</tspan>
        <tspan x="0.0" dy="29.90px">cover for classified</tspan>
        <tspan x="0.0" dy="29.90px">testing</tspan>
      </text>
      <rect id="ITEM_2_BODY_FRAME" x="-143" y="60" width="286" height="120" fill="none" data-side-overflow-fix="47.0|47.0"/>
      <circle id="ITEM_2_PAD" cx="0" cy="-70" r="58" fill="var(--icon-pad-bg)" stroke="var(--primary-text)" opacity="0.9" fill-opacity="0.9" stroke-width="2"/>
      <circle id="ITEM_2_PAD_INNER" cx="0" cy="-70" r="45.24" fill="var(--accent-2)" fill-opacity="0.22"/>
      <circle cx="0" cy="-70" r="46.4" fill="none" stroke="var(--accent-2)" stroke-width="3" stroke-dasharray="6 4"/>
      <g id="ITEM_2_ICON" transform="translate(-45, -115)" data-icon-size="90" stroke-dasharray="6 4">
        <g transform="translate(-7.9733333333333345,-5.653333333333335) scale(0.19333333333333333)" vector-effect="non-scaling-stroke" fill="#f1f5f9" fill-opacity="1.0" stroke="none">
          <path fill="#f1f5f9" d="M227.47 31.47c-67.048 70.547-83.972 178.936-32.907 267.467c51.07 88.544 153.333 128.083 247.906 105.22l-215-372.688zm232.81 82.155a31.1 31.1 0 0 0-14.81 4.188c-11.303 6.53-17.02 19.035-15.44 31.218l-96.31 29.25l34.842 60.345L442 169.812c9.755 7.504 23.456 8.826 34.78 2.282c14.992-8.663 20.117-27.822 11.47-42.813c-5.945-10.305-16.856-15.948-27.97-15.655zm-311.874 107.5l-26.656 4.688l10.688 60.53l-42.063 39.376l18.688 32.124l58.656-17.813l3.155 4.158L53.53 493.094h78.345l85.344-21.53l52.686 21.53h50.563l-7.064-45.78l.813-.22l-.97-.625l-4.75-30.72c-6.82-2.366-13.532-5.066-20.125-8.03l3.844 24.967l-51-33.437l18.75-6.594a241 241 0 0 1-19.033-13.125l-19.375 6.814l-39.625-26l5.813-7.375l15.156-9.658a242.3 242.3 0 0 1-24.53-35.03c-16-27.74-25.828-57.3-29.97-87.157zm21.906 153.97l29.094 19.06l-61.062 21.5l31.97-40.56zm48.72 31.967l49.343 32.344l-49.78 12.563l-58.845-24.033l59.28-20.875zm-94.813 26.532l5.718 2.312l58.125 23.75L82.75 486.22l41.47-52.626zm170.968 18.312l5.187 33.438l-52.625-21.47l45.813-11.562z" vector-effect="non-scaling-stroke" stroke="none"/>
        </g>
      </g>
    </g>
    <text x="780.0" y="50" text-anchor="middle" font-size="72" font-weight="900" fill="var(--muted-text)" opacity="0.5" dominant-baseline="middle">+</text>
    <g transform="translate(960.0, 0)">
      <rect id="ITEM_3_BG" x="-140" y="-180" width="280" height="360" rx="24" fill="var(--panel)" stroke="var(--accent-3)" stroke-width="2"/>
      <text id="ITEM_3_HEAD" x="0.0" y="10.0" text-anchor="middle" font-weight="bold" font-size="32" fill="var(--accent-3)" data-bg-id="ITEM_3_BG" fill-opacity="1.0" stroke="none" style="font-size: 25px; font-family: Inter, Segoe UI, Kalam, Roboto, Helvetica, Arial, sans-serif; font-weight: 700; letter-spacing:-0.4px;" data-final-font-size="25">
        <tspan x="0.0" dy="25.62px">Media Concentration</tspan>
      </text>
      <rect id="ITEM_3_HEAD_FRAME" x="-120" y="10" width="240" height="40" fill="none"/>
      <text id="ITEM_3_BODY" x="0.0" y="60.0" text-anchor="middle" font-size="22" fill="var(--primary-text)" data-bg-id="ITEM_3_BG" style="font-size: 26px; font-family: Inter, Segoe UI, Kalam, Roboto, Helvetica, Arial, sans-serif; font-weight: 400;" data-final-font-size="26">
        <tspan x="0.0" dy="20.88px">Roswell's</tspan>
        <tspan x="0.0" dy="29.90px">infrastructure turned</tspan>
        <tspan x="0.0" dy="29.90px">a local find</tspan>
        <tspan x="0.0" dy="29.90px">into global news</tspan>
      </text>
      <rect id="ITEM_3_BODY_FRAME" x="-143" y="60" width="286" height="120" fill="none" data-side-overflow-fix="47.0|47.0"/>
      <circle id="ITEM_3_PAD" cx="0" cy="-70" r="58" fill="var(--icon-pad-bg)" stroke="var(--primary-text)" opacity="0.9" fill-opacity="0.9" stroke-width="2"/>
      <circle id="ITEM_3_PAD_INNER" cx="0" cy="-70" r="45.24" fill="var(--accent-3)" fill-opacity="0.22"/>
      <circle cx="0" cy="-70" r="46.4" fill="none" stroke="var(--accent-3)" stroke-width="3" stroke-dasharray="6 4"/>
      <g id="ITEM_3_ICON" transform="translate(-45, -115)" data-icon-size="90" stroke-dasharray="6 4">
        <g transform="translate(-3.6615126050420193,-3.2813445378151282) scale(4.055126050420168)" vector-effect="non-scaling-stroke" stroke-width="2.79" stroke-linecap="round" stroke-linejoin="round" stroke-opacity="1.0">
          <path d="M4.9 16.1C1 12.2 1 5.8 4.9 1.9" vector-effect="non-scaling-stroke" fill="none" stroke="#f1f5f9"/>
          <path d="M7.8 4.7a6.14 6.14 0 0 0-.8 7.5" vector-effect="non-scaling-stroke" fill="none" stroke="#f1f5f9"/>
          <circle cx="12" cy="9" r="2" vector-effect="non-scaling-stroke" fill="none" stroke="#f1f5f9"/>
          <path d="M16.2 4.8c2 2 2.26 5.11.8 7.47" vector-effect="non-scaling-stroke" fill="none" stroke="#f1f5f9"/>
          <path d="M19.1 1.9a9.96 9.96 0 0 1 0 14.1" vector-effect="non-scaling-stroke" fill="none" stroke="#f1f5f9"/>
          <path d="M9.5 18h5" vector-effect="non-scaling-stroke" fill="none" stroke="#f1f5f9"/>
          <path d="m8 22 4-11 4 11" vector-effect="non-scaling-stroke" fill="none" stroke="#f1f5f9"/>
        </g>
      </g>
    </g>
    <text x="1140.0" y="50" text-anchor="middle" font-size="72" font-weight="900" fill="var(--muted-text)" opacity="0.5" dominant-baseline="middle">+</text>
    <g transform="translate(1320.0, 0)">
      <rect id="ITEM_4_BG" x="-140" y="-180" width="280" height="360" rx="24" fill="var(--panel)" stroke="var(--accent-4)" stroke-width="2"/>
      <text id="ITEM_4_HEAD" x="0.0" y="10.0" text-anchor="middle" font-weight="bold" font-size="32" fill="var(--accent-4)" data-bg-id="ITEM_4_BG" fill-opacity="1.0" stroke="none" style="font-size: 30px; font-family: Inter, Segoe UI, Kalam, Roboto, Helvetica, Arial, sans-serif; font-weight: 700; letter-spacing:-0.4px;" data-final-font-size="30">
        <tspan x="0.0" dy="28.25px">Flight Dynamics</tspan>
      </text>
      <rect id="ITEM_4_HEAD_FRAME" x="-120" y="10" width="240" height="40" fill="none"/>
      <text id="ITEM_4_BODY" x="0.0" y="60.0" text-anchor="middle" font-size="22" fill="var(--primary-text)" data-bg-id="ITEM_4_BG" style="font-size: 26px; font-family: Inter, Segoe UI, Kalam, Roboto, Helvetica, Arial, sans-serif; font-weight: 400;" data-final-font-size="26">
        <tspan x="0.0" dy="20.88px">Prevailing winds moved</tspan>
        <tspan x="0.0" dy="29.90px">balloon material</tspan>
        <tspan x="0.0" dy="29.90px">across the New Mexico</tspan>
        <tspan x="0.0" dy="29.90px">landscape</tspan>
      </text>
      <rect id="ITEM_4_BODY_FRAME" x="-143" y="60" width="286" height="120" fill="none" data-side-overflow-fix="47.0|47.0"/>
      <circle id="ITEM_4_PAD" cx="0" cy="-70" r="58" fill="var(--icon-pad-bg)" stroke="var(--primary-text)" opacity="0.9" fill-opacity="0.9" stroke-width="2"/>
      <circle id="ITEM_4_PAD_INNER" cx="0" cy="-70" r="45.24" fill="var(--accent-4)" fill-opacity="0.22"/>
      <circle cx="0" cy="-70" r="46.4" fill="none" stroke="var(--accent-4)" stroke-width="3" stroke-dasharray="6 4"/>
      <g id="ITEM_4_ICON" transform="translate(-45, -115)" data-icon-size="90" stroke-dasharray="6 4">
        <g transform="translate(-4.073898305084748,-4.073898305084754) scale(4.089491525423729)" vector-effect="non-scaling-stroke" stroke-width="2.79" stroke-linecap="round" stroke-linejoin="round" stroke-opacity="1.0">
          <path d="M12.8 19.6A2 2 0 1 0 14 16H2" vector-effect="non-scaling-stroke" fill="none" stroke="#f1f5f9"/>
          <path d="M17.5 8a2.5 2.5 0 1 1 2 4H2" vector-effect="non-scaling-stroke" fill="none" stroke="#f1f5f9"/>
          <path d="M9.8 4.4A2 2 0 1 1 11 8H2" vector-effect="non-scaling-stroke" fill="none" stroke="#f1f5f9"/>
        </g>
      </g>
    </g>
    <text x="1500.0" y="50" text-anchor="middle" font-size="72" font-weight="900" fill="var(--muted-text)" opacity="0.5" dominant-baseline="middle">=</text>
    <g transform="translate(1680.0, 0)">
      <rect id="ITEM_5_BG" x="-140" y="-180" width="280" height="360" rx="24" fill="var(--panel)" stroke="var(--accent-5)" stroke-width="2"/>
      <text id="ITEM_5_HEAD" x="0.0" y="10.0" text-anchor="middle" font-weight="bold" font-size="32" fill="var(--accent-4)" data-bg-id="ITEM_5_BG" fill-opacity="1.0" stroke="none" style="font-size: 30px; font-family: Inter, Segoe UI, Kalam, Roboto, Helvetica, Arial, sans-serif; font-weight: 700; letter-spacing:-0.4px;" data-final-font-size="30">
        <tspan x="0.0" dy="28.25px">Chain of Custody</tspan>
      </text>
      <rect id="ITEM_5_HEAD_FRAME" x="-120" y="10" width="240" height="40" fill="none"/>
      <text id="ITEM_5_BODY" x="0.0" y="60.0" text-anchor="middle" font-size="22" fill="var(--primary-text)" data-bg-id="ITEM_5_BG" style="font-size: 26px; font-family: Inter, Segoe UI, Kalam, Roboto, Helvetica, Arial, sans-serif; font-weight: 400;" data-final-font-size="26">
        <tspan x="0.0" dy="20.88px">Movement between</tspan>
        <tspan x="0.0" dy="29.90px">states complicates the</tspan>
        <tspan x="0.0" dy="29.90px">verification of</tspan>
        <tspan x="0.0" dy="29.90px">physical debris</tspan>
      </text>
      <rect id="ITEM_5_BODY_FRAME" x="-143" y="60" width="286" height="120" fill="none" data-side-overflow-fix="47.0|47.0"/>
      <circle id="ITEM_5_PAD" cx="0" cy="-70" r="58" fill="var(--icon-pad-bg)" stroke="var(--primary-text)" opacity="0.9" fill-opacity="0.9" stroke-width="2"/>
      <circle id="ITEM_5_PAD_INNER" cx="0" cy="-70" r="45.24" fill="var(--accent-4)" fill-opacity="0.22"/>
      <circle cx="0" cy="-70" r="46.4" fill="none" stroke="var(--accent-5)" stroke-width="3" stroke-dasharray="6 4"/>
      <g id="ITEM_5_ICON" transform="translate(-45, -115)" data-icon-size="90" stroke-dasharray="6 4">
        <g transform="translate(-4.920000000000002,-4.920000000000002) scale(0.195)" vector-effect="non-scaling-stroke" fill="#f1f5f9" fill-opacity="1.0" stroke="none">
          <path fill="#f1f5f9" d="m37.727 25l78 78h280.546l78-78zM25 37.727v436.546l78-78V115.727zm462 0l-78 78v280.546l78 78zM79.957 40a8 8 0 0 1 8 8a8 8 0 0 1-8 8a8 8 0 0 1-8-8a8 8 0 0 1 8-8M432 40.793a8 8 0 0 1 8 8a8 8 0 0 1-8 8a8 8 0 0 1-8-8a8 8 0 0 1 8-8M112 72a8 8 0 0 1 8 8a8 8 0 0 1-8 8a8 8 0 0 1-8-8a8 8 0 0 1 8-8m287.45 0a8 8 0 0 1 8 8a8 8 0 0 1-8 8a8 8 0 0 1-8-8a8 8 0 0 1 8-8m63.42 0a8 8 0 0 1 8 8a8 8 0 0 1-8 8a8 8 0 0 1-8-8a8 8 0 0 1 8-8M48 73.047a8 8 0 0 1 8 8a8 8 0 0 1-8 8a8 8 0 0 1-8-8a8 8 0 0 1 8-8M79.395 104a8 8 0 0 1 8 8a8 8 0 0 1-8 8a8 8 0 0 1-8-8a8 8 0 0 1 8-8m352.605.2a8 8 0 0 1 8 8a8 8 0 0 1-8 8a8 8 0 0 1-8-8a8 8 0 0 1 8-8M121 121v193.273l53.7-53.7L174.065 121zm71.064 0l.555 121.654l54.38-54.38V121h-54.936zM265 121v49.273L314.273 121zm74.727 0L121 339.727V391h51.273L391 172.273V121zM391 197.727l-53.023 53.023V391H391zm-71.023 71.023L265 323.727V391h54.977zM247 341.727L197.727 391H247zM77.97 392a8 8 0 0 1 8 8a8 8 0 0 1-8 8a8 8 0 0 1-8-8a8 8 0 0 1 8-8m354.03.658a8 8 0 0 1 8 8a8 8 0 0 1-8 8a8 8 0 0 1-8-8a8 8 0 0 1 8-8M115.727 409l-78 78h436.546l-78-78zM48 423.752a8 8 0 0 1 8 8a8 8 0 0 1-8 8a8 8 0 0 1-8-8a8 8 0 0 1 8-8m64 .8a8 8 0 0 1 8 8a8 8 0 0 1-8 8a8 8 0 0 1-8-8a8 8 0 0 1 8-8m288 .712a8 8 0 0 1 8 8a8 8 0 0 1-8 8a8 8 0 0 1-8-8a8 8 0 0 1 8-8m64 4.74a8 8 0 0 1 8 8a8 8 0 0 1-8 8a8 8 0 0 1-8-8a8 8 0 0 1 8-8M432 456a8 8 0 0 1 8 8a8 8 0 0 1-8 8a8 8 0 0 1-8-8a8 8 0 0 1 8-8m-352 2.56a8 8 0 0 1 8 8a8 8 0 0 1-8 8a8 8 0 0 1-8-8a8 8 0 0 1 8-8" vector-effect="non-scaling-stroke" stroke="none"/>
        </g>
      </g>
    </g>
  </g>
</svg>
