<?xml version='1.0' encoding='utf-8'?>
<svg xmlns="http://www.w3.org/2000/svg" width="1920" height="1080" viewBox="0 0 1920 1080" data-theme="dark">
  <style>
        @font-face {
            font-family: 'Inter';
            src: url('assets/fonts/Inter-Regular.ttf') format('truetype');
            font-weight: 400;
            font-style: normal;
            font-display: swap;
        }
        @font-face {
            font-family: 'Inter';
            src: url('assets/fonts/Inter-Bold.ttf') format('truetype');
            font-weight: 600;
            font-style: normal;
            font-display: swap;
        }
        @font-face {
            font-family: 'Inter';
            src: url('assets/fonts/Inter-Bold.ttf') format('truetype');
            font-weight: 800;
            font-style: normal;
            font-display: swap;
        }
        
:root {
    --background: #0f172a;
    --panel: #1e293b;
    --primary-text: #f1f5f9;
    --muted-text: #94a3b8;
    --inverse-text: #0f172a;
    --border: #334155;
    --shadow-color: #000000;
    --icon-pad-bg: #1e293b;
    --art-glow: #7dd3fc;
    --art-glow-opacity: 0.18;
    --art-sheen: #ffffff;
    --art-sheen-opacity: 0.18;
    --art-shadow: #000000;
    --art-shadow-opacity: 0.28;
    --art-muted-line: #64748b;
    --art-panel-tint: #1e293b;
    --font-family: 'Inter', 'Segoe UI', 'Kalam', Roboto, Helvetica, Arial, sans-serif;
    --radius-xl: 16px;
    --font-family-headline: 'Inter', 'Segoe UI', 'Kalam', Roboto, Helvetica, Arial, sans-serif;
    --font-family-body: 'Inter', 'Segoe UI', 'Kalam', Roboto, Helvetica, Arial, sans-serif;
    --font-heading: 'Inter', 'Segoe UI', 'Kalam', Roboto, Helvetica, Arial, sans-serif;
    --font-body: 'Inter', 'Segoe UI', 'Kalam', Roboto, Helvetica, Arial, sans-serif;
    --font-size-h1: 56px;
    --font-size-h2: 40px;
    --font-size-h3: 28px;
    --font-size-body: 24px;
    --font-size-caption: 18px;
    --secondary-text: var(--muted-text);
    --panel-border: var(--border);
    --font-weight-normal: 400;
    --font-weight-medium: 500;
    --font-weight-semibold: 600;
    --font-weight-bold: 700;
    --spacing-gutter-pct: 0.07;
    --spacing-top-pct: 0.15;
    --spacing-bottom-pct: 0.07;
    --spacing-title-y-pct: 0.055;
    --accent-1: #22d3ee;
    --accent-2: #38bdf8;
    --accent-3: #60a5fa;
    --accent-4: #818cf8;
    --accent-5: #a78bfa;
    --accent-6: #2dd4bf;
}
:root[data-theme="dark"] {
    --background: #0f172a;
    --panel: #1e293b;
    --primary-text: #f1f5f9;
    --muted-text: #94a3b8;
    --inverse-text: #0f172a;
    --border: #334155;
    --shadow-color: #000000;
    --icon-pad-bg: #1e293b;
    --art-glow: #7dd3fc;
    --art-glow-opacity: 0.18;
    --art-sheen: #ffffff;
    --art-sheen-opacity: 0.18;
    --art-shadow: #000000;
    --art-shadow-opacity: 0.28;
    --art-muted-line: #64748b;
    --art-panel-tint: #1e293b;
    --accent-1: #22d3ee;
    --accent-2: #38bdf8;
    --accent-3: #60a5fa;
    --accent-4: #818cf8;
    --accent-5: #a78bfa;
    --accent-6: #2dd4bf;
}
:root[data-theme="light"] {
    --background: #f8fafc;
    --panel: #ffffff;
    --primary-text: #0f172a;
    --muted-text: #64748b;
    --inverse-text: #ffffff;
    --border: #e2e8f0;
    --shadow-color: #000000;
    --icon-pad-bg: #1e293b;
    --art-glow: #0891b2;
    --art-glow-opacity: 0.10;
    --art-sheen: #ffffff;
    --art-sheen-opacity: 0.34;
    --art-shadow: #0f172a;
    --art-shadow-opacity: 0.14;
    --art-muted-line: #94a3b8;
    --art-panel-tint: #f1f5f9;
    --accent-1: #0891b2;
    --accent-2: #0284c7;
    --accent-3: #2563eb;
    --accent-4: #4f46e5;
    --accent-5: #7c3aed;
    --accent-6: #0d9488;
}</style>
  <rect x="0" y="0" width="1.92E+3" height="1.08E+3" fill="#252a34" stroke="none" id="programmatic_background"/>
  <line id="HEADER_DECOR" x1="960.0" x2="1080.0" y1="135.0" y2="135.0" stroke="var(--accent-1)" stroke-width="6" stroke-linecap="round"/>
  <defs>
    <pattern id="svg68d610c0-napkin-hatch" patternUnits="userSpaceOnUse" width="12" height="12">
      <path d="M -3 12 L 12 -3 M 0 15 L 15 0" fill="none" stroke="var(--primary-text)" stroke-width="1" stroke-opacity="0.035"/>
    </pattern>
    <filter id="svg68d610c0-soft-shadow" x="-30%" y="-30%" width="160%" height="160%">
      <feDropShadow dx="0" dy="3" stdDeviation="6" flood-color="#000000" flood-opacity="0.16"/>
    </filter>
    <radialGradient id="svg68d610c0-universal-edge-vignette" cx="50%" cy="50%" r="72%">
      <stop offset="0%" stop-color="var(--background)" stop-opacity="0"/>
      <stop offset="72%" stop-color="var(--background)" stop-opacity="0.12"/>
      <stop offset="100%" stop-color="var(--primary-text)" stop-opacity="0.08"/>
    </radialGradient>
    <linearGradient id="svg68d610c0-universal-surface-sheen" x1="0%" y1="0%" x2="100%" y2="100%">
      <stop offset="0%" stop-color="var(--art-sheen)" stop-opacity="var(--art-sheen-opacity)"/>
      <stop offset="46%" stop-color="var(--art-sheen)" stop-opacity="0.035"/>
      <stop offset="100%" stop-color="var(--art-panel-tint)" stop-opacity="0.14"/>
    </linearGradient>
    <radialGradient id="svg68d610c0-universal-icon-aura" cx="50%" cy="42%" r="64%">
      <stop offset="0%" stop-color="var(--art-glow)" stop-opacity="var(--art-glow-opacity)"/>
      <stop offset="100%" stop-color="var(--background)" stop-opacity="0"/>
    </radialGradient>
    <filter id="svg68d610c0-text-glow" x="-20%" y="-20%" width="140%" height="140%">
      <feDropShadow dx="0" dy="0" stdDeviation="2" flood-color="#000000" flood-opacity="0.4"/>
    </filter>
    <filter id="svg68d610c0-shadow" x="-30%" y="-30%" width="160%" height="160%">
      <feDropShadow dx="0" dy="2" stdDeviation="3" flood-color="#000000" flood-opacity="0.08"/>
      <feDropShadow dx="0" dy="6" stdDeviation="10" flood-color="#000000" flood-opacity="0.12"/>
    </filter>
    <marker id="svg68d610c0-arrowhead" markerWidth="10" markerHeight="7" refX="9" refY="3.5" orient="auto" markerUnits="strokeWidth">
      <polygon points="0 0, 10 3.5, 0 7" fill="var(--muted-text)" opacity="0.6"/>
    </marker>
  </defs>
  <rect id="CANVAS_BG" width="100%" height="100%" fill="var(--background)"/>
  <rect width="100%" height="100%" fill="url(#svg68d610c0-napkin-hatch)"/>
  <rect id="UNIVERSAL_EDGE_VIGNETTE" width="100%" height="100%" fill="url(#svg68d610c0-universal-edge-vignette)" opacity="0.62"/>
  <text id="TITLE" x="960.0" y="59" text-anchor="middle" font-size="56" font-weight="800" fill="#f1f5f9" style="font-size: 60px; font-family: Inter, Segoe UI, Kalam, Roboto, Helvetica, Arial, sans-serif; font-weight: 700; letter-spacing:-1.2px;" data-final-font-size="60">
    <tspan x="960.0" dy="68.00px">KC-97 Crash vs. Roswell Mythology</tspan>
  </text>
  <rect id="TITLE_FRAME" x="134" y="59" width="1652" height="103" fill="none"/>
  <rect x="120" y="205" width="1680" height="500" rx="40" fill="var(--panel)" fill-opacity="0.10" stroke="var(--muted-text)" stroke-width="1.5" opacity="0.68"/>
  <line x1="520.0" y1="468.0" x2="560.0" y2="468.0" stroke="var(--muted-text)" stroke-width="1.5" stroke-dasharray="8 9" opacity="0.42" stroke-linecap="round"/>
  <circle cx="540.0" cy="468.0" r="22" fill="var(--panel)" fill-opacity="0.86" stroke="var(--muted-text)" stroke-width="1.5" opacity="0.82"/>
  <text x="540.0" y="476.0" text-anchor="middle" font-size="22" font-weight="800" fill="var(--muted-text)" opacity="0.72">VS</text>
  <line x1="940.0" y1="468.0" x2="980.0" y2="468.0" stroke="var(--muted-text)" stroke-width="1.5" stroke-dasharray="8 9" opacity="0.42" stroke-linecap="round"/>
  <circle cx="960.0" cy="468.0" r="22" fill="var(--panel)" fill-opacity="0.86" stroke="var(--muted-text)" stroke-width="1.5" opacity="0.82"/>
  <text x="960.0" y="476.0" text-anchor="middle" font-size="22" font-weight="800" fill="var(--muted-text)" opacity="0.72">VS</text>
  <line x1="1360.0" y1="468.0" x2="1400.0" y2="468.0" stroke="var(--muted-text)" stroke-width="1.5" stroke-dasharray="8 9" opacity="0.42" stroke-linecap="round"/>
  <circle cx="1380.0" cy="468.0" r="22" fill="var(--panel)" fill-opacity="0.86" stroke="var(--muted-text)" stroke-width="1.5" opacity="0.82"/>
  <text x="1380.0" y="476.0" text-anchor="middle" font-size="22" font-weight="800" fill="var(--muted-text)" opacity="0.72">VS</text>
  <g transform="translate(322.5, 255.0)" filter="url(#svg68d610c0-soft-shadow)">
    <rect id="ITEM_1_BG" x="-200.0" y="0" width="400.0" height="360" rx="28" fill="var(--panel)" fill-opacity="0.92" stroke="var(--accent-1)" stroke-width="2.5"/>
    <rect x="-200.0" y="0" width="400.0" height="360" rx="18" fill="url(#svg68d610c0-universal-surface-sheen)" opacity="0.86"/>
    <rect x="-184.0" y="12" width="368.0" height="8" rx="4" fill="var(--accent-1)" fill-opacity="0.42"/>
    <circle id="ITEM_1_PAD" cx="0" cy="74" r="46" fill="var(--icon-pad-bg)" stroke="var(--primary-text)" opacity="0.9" fill-opacity="0.9" stroke-width="2"/>
    <circle id="ITEM_1_PAD_INNER" cx="0" cy="74" r="35.88" fill="var(--accent-6)" fill-opacity="0.22"/>
    <circle cx="0" cy="74" r="36" fill="none" stroke="var(--accent-1)" stroke-width="2.25" stroke-dasharray="4 4" opacity="0.8"/>
    <g id="ITEM_1_ICON" transform="translate(-34, 40)" data-icon-size="68" stroke-dasharray="4 4">
      <g transform="translate(-8.524444444444448,-13.840000000000005) scale(3.543703703703704)" vector-effect="non-scaling-stroke" stroke-width="2.53" stroke-linecap="round" stroke-linejoin="round" stroke-opacity="1.0">
        <path d="M15 15m-3 0a3 3 0 1 0 6 0a3 3 0 1 0 -6 0" vector-effect="non-scaling-stroke" fill="none" stroke="#f1f5f9"/>
        <path d="M13 17.5v4.5l2 -1.5l2 1.5v-4.5" vector-effect="non-scaling-stroke" fill="none" stroke="#f1f5f9"/>
        <path d="M10 19h-5a2 2 0 0 1 -2 -2v-10c0 -1.1 .9 -2 2 -2h14a2 2 0 0 1 2 2v10a2 2 0 0 1 -1 1.73" vector-effect="non-scaling-stroke" fill="none" stroke="#f1f5f9"/>
        <path d="M6 9l12 0" vector-effect="non-scaling-stroke" fill="none" stroke="#f1f5f9"/>
        <path d="M6 12l3 0" vector-effect="non-scaling-stroke" fill="none" stroke="#f1f5f9"/>
        <path d="M6 15l2 0" vector-effect="non-scaling-stroke" fill="none" stroke="#f1f5f9"/>
      </g>
    </g>
    <text id="ITEM_1_HEAD" x="0.0" y="138.0" text-anchor="middle" font-size="44" font-weight="800" fill="var(--accent-6)" data-bg-id="ITEM_1_BG" fill-opacity="1.0" stroke="none" style="font-size: 30px; font-family: Inter, Segoe UI, Kalam, Roboto, Helvetica, Arial, sans-serif; font-weight: 700; letter-spacing:-0.4px;" data-final-font-size="30">
      <tspan x="0.0" dy="42.25px">Documented Fatalities</tspan>
    </text>
    <rect id="ITEM_1_HEAD_FRAME" x="-166.0" y="138" width="332.0" height="68" fill="none"/>
    <text id="ITEM_1_BODY" x="0.0" y="206.0" text-anchor="middle" font-size="27" fill="var(--primary-text)" data-bg-id="ITEM_1_BG" style="font-size: 26px; font-family: Inter, Segoe UI, Kalam, Roboto, Helvetica, Arial, sans-serif; font-weight: 400;" data-final-font-size="26">
      <tspan x="0.0" dy="40.04px">Eleven crew members died</tspan>
      <tspan x="0.0" dy="29.90px">in the 1956 disaster</tspan>
    </text>
    <rect id="ITEM_1_BODY_FRAME" x="-190.0" y="206" width="380" height="156" fill="none"/>
  </g>
  <g transform="translate(747.5, 255.0)" filter="url(#svg68d610c0-soft-shadow)">
    <rect id="ITEM_2_BG" x="-200.0" y="0" width="400.0" height="360" rx="28" fill="var(--panel)" fill-opacity="0.92" stroke="var(--accent-2)" stroke-width="2.5"/>
    <rect x="-200.0" y="0" width="400.0" height="360" rx="18" fill="url(#svg68d610c0-universal-surface-sheen)" opacity="0.86"/>
    <rect x="-184.0" y="12" width="368.0" height="8" rx="4" fill="var(--accent-2)" fill-opacity="0.42"/>
    <circle id="ITEM_2_PAD" cx="0" cy="74" r="46" fill="var(--icon-pad-bg)" stroke="var(--primary-text)" opacity="0.9" fill-opacity="0.9" stroke-width="2"/>
    <circle id="ITEM_2_PAD_INNER" cx="0" cy="74" r="35.88" fill="var(--accent-1)" fill-opacity="0.22"/>
    <circle cx="0" cy="74" r="36" fill="none" stroke="var(--accent-2)" stroke-width="2.25" stroke-dasharray="4 4" opacity="0.8"/>
    <g id="ITEM_2_ICON" transform="translate(-34, 40)" data-icon-size="68" stroke-dasharray="4 4">
      <g transform="translate(-7.005714285714289,-14.69428571428572) scale(2.562857142857143)">
        <path d="M14 12H9.97817C9.36099 12 8.77838 12.2849 8.39946 12.7721L2.84259 19.9167C2.29649 20.6188 2 21.4829 2 22.3724V25C2 26.1046 2.89543 27 4 27H14.3192C14.3192 19.7083 15.1183 13.0875 14 12Z" fill="#E6E6E6"/>
        <path d="M14.8896 8.8678C14.8462 8.91078 14.8041 8.95507 14.7633 9.00062C14.2886 9.5313 14 10.2319 14 11V21.0904H30V10C30 9.63485 29.9021 9.29256 29.7312 8.99791C29.7054 8.95343 29.678 8.91003 29.6489 8.8678H14.8896Z" fill="#F92F60"/>
        <path d="M17 8C16.1115 8 15.3132 8.38625 14.7639 9H29.7324C29.3866 8.4022 28.7403 8 28 8H17ZM30 21H14V27H28C29.1046 27 30 26.1046 30 25V21Z" fill="#D3D3D3"/>
        <path d="M12 26.5C12 28.433 10.433 30 8.5 30C6.567 30 5 28.433 5 26.5C5 24.567 6.567 23 8.5 23C10.433 23 12 24.567 12 26.5ZM27 26.5C27 28.433 25.433 30 23.5 30C21.567 30 20 28.433 20 26.5C20 24.567 21.567 23 23.5 23C25.433 23 27 24.567 27 26.5Z" fill="#433B6B"/>
        <path d="M10 26.5C10 27.3284 9.32843 28 8.5 28C7.67157 28 7 27.3284 7 26.5C7 25.6716 7.67157 25 8.5 25C9.32843 25 10 25.6716 10 26.5ZM25 26.5C25 27.3284 24.3284 28 23.5 28C22.6716 28 22 27.3284 22 26.5C22 25.6716 22.6716 25 23.5 25C24.3284 25 25 25.6716 25 26.5Z" fill="#F4F4F4"/>
        <path d="M22 12C21.4477 12 21 12.4477 21 13V14H20C19.4477 14 19 14.4477 19 15C19 15.5523 19.4477 16 20 16H21V17C21 17.5523 21.4477 18 22 18C22.5523 18 23 17.5523 23 17V16H24C24.5523 16 25 15.5523 25 15C25 14.4477 24.5523 14 24 14H23V13C23 12.4477 22.5523 12 22 12Z" fill="#F4F4F4"/>
        <path d="M3 25L2 25V22.3724C2 21.9011 2.08326 21.4368 2.24282 21H3C3.55228 21 4 21.4477 4 22V24C4 24.5523 3.55228 25 3 25ZM29.5 22C28.6716 22 28 22.6716 28 23.5C28 24.3284 28.6716 25 29.5 25H30V22H29.5Z" fill="#FF822D"/>
        <path d="M4.33331 18H11C12.1045 18 13 17.1046 13 16V14C13 13.4477 12.5523 13 12 13H8.2222L4.33331 18Z" fill="#26C9FC"/>
        <path d="M10 12C10 11.4477 10.4477 11 11 11H13C13.5523 11 14 11.4477 14 12V12H10V12Z" fill="#D3D3D3"/>
        <path d="M11 11C11 10.4477 11.4477 10 12 10V10C12.5523 10 13 10.4477 13 11V11H11V11Z" fill="#F8312F"/>
      </g>
    </g>
    <text id="ITEM_2_HEAD" x="0.0" y="138.0" text-anchor="middle" font-size="44" font-weight="800" fill="var(--accent-1)" data-bg-id="ITEM_2_BG" fill-opacity="1.0" stroke="none" style="font-size: 30px; font-family: Inter, Segoe UI, Kalam, Roboto, Helvetica, Arial, sans-serif; font-weight: 700; letter-spacing:-0.4px;" data-final-font-size="30">
      <tspan x="0.0" dy="42.25px">Military Recovery</tspan>
    </text>
    <rect id="ITEM_2_HEAD_FRAME" x="-166.0" y="138" width="332.0" height="68" fill="none"/>
    <text id="ITEM_2_BODY" x="0.0" y="206.0" text-anchor="middle" font-size="27" fill="var(--primary-text)" data-bg-id="ITEM_2_BG" style="font-size: 26px; font-family: Inter, Segoe UI, Kalam, Roboto, Helvetica, Arial, sans-serif; font-weight: 400;" data-final-font-size="26">
      <tspan x="0.0" dy="40.04px">Official channels processed</tspan>
      <tspan x="0.0" dy="29.90px">remains and mortuary services</tspan>
    </text>
    <rect id="ITEM_2_BODY_FRAME" x="-190.0" y="206" width="380" height="156" fill="none"/>
  </g>
  <g transform="translate(1172.5, 255.0)" filter="url(#svg68d610c0-soft-shadow)">
    <rect id="ITEM_3_BG" x="-200.0" y="0" width="400.0" height="360" rx="28" fill="var(--panel)" fill-opacity="0.92" stroke="var(--accent-3)" stroke-width="2.5"/>
    <rect x="-200.0" y="0" width="400.0" height="360" rx="18" fill="url(#svg68d610c0-universal-surface-sheen)" opacity="0.86"/>
    <rect x="-184.0" y="12" width="368.0" height="8" rx="4" fill="var(--accent-3)" fill-opacity="0.42"/>
    <circle id="ITEM_3_PAD" cx="0" cy="74" r="46" fill="var(--icon-pad-bg)" stroke="var(--primary-text)" opacity="0.9" fill-opacity="0.9" stroke-width="2"/>
    <circle id="ITEM_3_PAD_INNER" cx="0" cy="74" r="35.88" fill="var(--accent-2)" fill-opacity="0.22"/>
    <circle cx="0" cy="74" r="36" fill="none" stroke="var(--accent-3)" stroke-width="2.25" stroke-dasharray="4 4" opacity="0.8"/>
    <g id="ITEM_3_ICON" transform="translate(-34, 40)" data-icon-size="68" stroke-dasharray="4 4">
      <g transform="translate(-4.920677966101698,-4.9206779661016995) scale(3.243389830508475)" vector-effect="non-scaling-stroke" stroke-width="2.53" stroke-linecap="round" stroke-linejoin="round" stroke-opacity="1.0">
        <path d="M16 10h2" vector-effect="non-scaling-stroke" fill="none" stroke="#f1f5f9"/>
        <path d="M16 14h2" vector-effect="non-scaling-stroke" fill="none" stroke="#f1f5f9"/>
        <path d="M6.17 15a3 3 0 0 1 5.66 0" vector-effect="non-scaling-stroke" fill="none" stroke="#f1f5f9"/>
        <circle cx="9" cy="11" r="2" vector-effect="non-scaling-stroke" fill="none" stroke="#f1f5f9"/>
        <rect x="2" y="5" width="20" height="14" rx="2" vector-effect="non-scaling-stroke" fill="none" stroke="#f1f5f9"/>
      </g>
    </g>
    <text id="ITEM_3_HEAD" x="0.0" y="138.0" text-anchor="middle" font-size="44" font-weight="800" fill="var(--accent-2)" data-bg-id="ITEM_3_BG" fill-opacity="1.0" stroke="none" style="font-size: 30px; font-family: Inter, Segoe UI, Kalam, Roboto, Helvetica, Arial, sans-serif; font-weight: 700; letter-spacing:-0.4px;" data-final-font-size="30">
      <tspan x="0.0" dy="42.25px">Identification Delay</tspan>
    </text>
    <rect id="ITEM_3_HEAD_FRAME" x="-166.0" y="138" width="332.0" height="68" fill="none"/>
    <text id="ITEM_3_BODY" x="0.0" y="206.0" text-anchor="middle" font-size="27" fill="var(--primary-text)" data-bg-id="ITEM_3_BG" style="font-size: 26px; font-family: Inter, Segoe UI, Kalam, Roboto, Helvetica, Arial, sans-serif; font-weight: 400;" data-final-font-size="26">
      <tspan x="0.0" dy="34.06px">Severe conditions caused</tspan>
      <tspan x="0.0" dy="29.90px">significant time for victim</tspan>
      <tspan x="0.0" dy="29.90px">identification</tspan>
    </text>
    <rect id="ITEM_3_BODY_FRAME" x="-190.0" y="206" width="380" height="156" fill="none"/>
  </g>
  <g transform="translate(1597.5, 255.0)" filter="url(#svg68d610c0-soft-shadow)">
    <rect id="ITEM_4_BG" x="-200.0" y="0" width="400.0" height="360" rx="28" fill="var(--panel)" fill-opacity="0.92" stroke="var(--accent-4)" stroke-width="2.5"/>
    <rect x="-200.0" y="0" width="400.0" height="360" rx="18" fill="url(#svg68d610c0-universal-surface-sheen)" opacity="0.86"/>
    <rect x="-184.0" y="12" width="368.0" height="8" rx="4" fill="var(--accent-4)" fill-opacity="0.42"/>
    <circle id="ITEM_4_PAD" cx="0" cy="74" r="46" fill="var(--icon-pad-bg)" stroke="var(--primary-text)" opacity="0.9" fill-opacity="0.9" stroke-width="2"/>
    <circle id="ITEM_4_PAD_INNER" cx="0" cy="74" r="35.88" fill="var(--accent-3)" fill-opacity="0.22"/>
    <circle cx="0" cy="74" r="36" fill="none" stroke="var(--accent-4)" stroke-width="2.25" stroke-dasharray="4 4" opacity="0.8"/>
    <g id="ITEM_4_ICON" transform="translate(-34, 40)" data-icon-size="68" stroke-dasharray="4 4">
      <g transform="translate(-7.005714285714289,-7.005714285714289) scale(2.562857142857143)" vector-effect="non-scaling-stroke" fill="#f1f5f9" fill-opacity="1.0" stroke="none">
        <path fill="#f1f5f9" d="M25 16h-8a2 2 0 0 0-2 2v6H4V14H2v16h2v-4h24v4h2v-9a5.006 5.006 0 0 0-5-5m3 8H17v-6h8a3.003 3.003 0 0 1 3 3Z" vector-effect="non-scaling-stroke" stroke="none"/>
        <path fill="#f1f5f9" d="M9.5 17A1.5 1.5 0 1 1 8 18.5A1.5 1.5 0 0 1 9.5 17m0-2a3.5 3.5 0 1 0 3.5 3.5A3.5 3.5 0 0 0 9.5 15M21 6h-4V2h-2v4h-4v2h4v4h2V8h4z" vector-effect="non-scaling-stroke" stroke="none"/>
      </g>
    </g>
    <text id="ITEM_4_HEAD" x="0.0" y="138.0" text-anchor="middle" font-size="44" font-weight="800" fill="var(--accent-3)" data-bg-id="ITEM_4_BG" fill-opacity="1.0" stroke="none" style="font-size: 30px; font-family: Inter, Segoe UI, Kalam, Roboto, Helvetica, Arial, sans-serif; font-weight: 700; letter-spacing:-0.4px;" data-final-font-size="30">
      <tspan x="0.0" dy="42.25px">Hospital Activity</tspan>
    </text>
    <rect id="ITEM_4_HEAD_FRAME" x="-166.0" y="138" width="332.0" height="68" fill="none"/>
    <text id="ITEM_4_BODY" x="0.0" y="206.0" text-anchor="middle" font-size="27" fill="var(--primary-text)" data-bg-id="ITEM_4_BG" style="font-size: 26px; font-family: Inter, Segoe UI, Kalam, Roboto, Helvetica, Arial, sans-serif; font-weight: 400;" data-final-font-size="26">
      <tspan x="0.0" dy="40.04px">Medical personnel and base</tspan>
      <tspan x="0.0" dy="29.90px">facilities managed casualties</tspan>
    </text>
    <rect id="ITEM_4_BODY_FRAME" x="-190.0" y="206" width="380" height="156" fill="none"/>
  </g>
</svg>
