<?xml version='1.0' encoding='utf-8'?>
<svg xmlns="http://www.w3.org/2000/svg" width="1920" height="1080" viewBox="0 0 1920 1080" data-theme="dark">
  <style>
        @font-face {
            font-family: 'Inter';
            src: url('assets/fonts/Inter-Regular.ttf') format('truetype');
            font-weight: 400;
            font-style: normal;
            font-display: swap;
        }
        @font-face {
            font-family: 'Inter';
            src: url('assets/fonts/Inter-Bold.ttf') format('truetype');
            font-weight: 600;
            font-style: normal;
            font-display: swap;
        }
        @font-face {
            font-family: 'Inter';
            src: url('assets/fonts/Inter-Bold.ttf') format('truetype');
            font-weight: 800;
            font-style: normal;
            font-display: swap;
        }
        
:root {
    --background: #0f172a;
    --panel: #1e293b;
    --primary-text: #f1f5f9;
    --muted-text: #94a3b8;
    --inverse-text: #0f172a;
    --border: #334155;
    --shadow-color: #000000;
    --icon-pad-bg: #1e293b;
    --art-glow: #7dd3fc;
    --art-glow-opacity: 0.18;
    --art-sheen: #ffffff;
    --art-sheen-opacity: 0.18;
    --art-shadow: #000000;
    --art-shadow-opacity: 0.28;
    --art-muted-line: #64748b;
    --art-panel-tint: #1e293b;
    --font-family: 'Inter', 'Segoe UI', 'Kalam', Roboto, Helvetica, Arial, sans-serif;
    --radius-xl: 16px;
    --font-family-headline: 'Inter', 'Segoe UI', 'Kalam', Roboto, Helvetica, Arial, sans-serif;
    --font-family-body: 'Inter', 'Segoe UI', 'Kalam', Roboto, Helvetica, Arial, sans-serif;
    --font-heading: 'Inter', 'Segoe UI', 'Kalam', Roboto, Helvetica, Arial, sans-serif;
    --font-body: 'Inter', 'Segoe UI', 'Kalam', Roboto, Helvetica, Arial, sans-serif;
    --font-size-h1: 56px;
    --font-size-h2: 40px;
    --font-size-h3: 28px;
    --font-size-body: 24px;
    --font-size-caption: 18px;
    --secondary-text: var(--muted-text);
    --panel-border: var(--border);
    --font-weight-normal: 400;
    --font-weight-medium: 500;
    --font-weight-semibold: 600;
    --font-weight-bold: 700;
    --spacing-gutter-pct: 0.07;
    --spacing-top-pct: 0.15;
    --spacing-bottom-pct: 0.07;
    --spacing-title-y-pct: 0.055;
    --accent-1: #a5b4fc;
    --accent-2: #34d399;
    --accent-3: #f472b6;
    --accent-4: #fbbf24;
    --accent-5: #38bdf8;
    --accent-6: #c084fc;
    --accent-7: #f87171;
    --accent-8: #2dd4bf;
    --accent-9: #fb923c;
    --accent-10: #e879f9;
}
:root[data-theme="dark"] {
    --background: #0f172a;
    --panel: #1e293b;
    --primary-text: #f1f5f9;
    --muted-text: #94a3b8;
    --inverse-text: #0f172a;
    --border: #334155;
    --shadow-color: #000000;
    --icon-pad-bg: #1e293b;
    --art-glow: #7dd3fc;
    --art-glow-opacity: 0.18;
    --art-sheen: #ffffff;
    --art-sheen-opacity: 0.18;
    --art-shadow: #000000;
    --art-shadow-opacity: 0.28;
    --art-muted-line: #64748b;
    --art-panel-tint: #1e293b;
    --accent-1: #a5b4fc;
    --accent-2: #34d399;
    --accent-3: #f472b6;
    --accent-4: #fbbf24;
    --accent-5: #38bdf8;
    --accent-6: #c084fc;
    --accent-7: #f87171;
    --accent-8: #2dd4bf;
    --accent-9: #fb923c;
    --accent-10: #e879f9;
}
:root[data-theme="light"] {
    --background: #f8fafc;
    --panel: #ffffff;
    --primary-text: #0f172a;
    --muted-text: #64748b;
    --inverse-text: #ffffff;
    --border: #e2e8f0;
    --shadow-color: #000000;
    --icon-pad-bg: #1e293b;
    --art-glow: #0891b2;
    --art-glow-opacity: 0.10;
    --art-sheen: #ffffff;
    --art-sheen-opacity: 0.34;
    --art-shadow: #0f172a;
    --art-shadow-opacity: 0.14;
    --art-muted-line: #94a3b8;
    --art-panel-tint: #f1f5f9;
    --accent-1: #4f46e5;
    --accent-2: #059669;
    --accent-3: #db2777;
    --accent-4: #d97706;
    --accent-5: #0284c7;
    --accent-6: #7c3aed;
    --accent-7: #dc2626;
    --accent-8: #0d9488;
    --accent-9: #ea580c;
    --accent-10: #c026d3;
}</style>
  <rect x="0" y="0" width="1.92E+3" height="1.08E+3" fill="#252a34" stroke="none" id="programmatic_background"/>
  <line id="HEADER_DECOR" x1="960.0" x2="1080.0" y1="135.0" y2="135.0" stroke="var(--accent-1)" stroke-width="6" stroke-linecap="round"/>
  <defs>
    <pattern id="svg1eec0bb0-napkin-hatch" patternUnits="userSpaceOnUse" width="12" height="12">
      <path d="M -3 12 L 12 -3 M 0 15 L 15 0" fill="none" stroke="var(--primary-text)" stroke-width="1" stroke-opacity="0.05"/>
    </pattern>
    <filter id="svg1eec0bb0-shadow" x="-30%" y="-30%" width="160%" height="160%">
      <feDropShadow dx="0" dy="2" stdDeviation="3" flood-color="#000000" flood-opacity="0.08"/>
      <feDropShadow dx="0" dy="6" stdDeviation="10" flood-color="#000000" flood-opacity="0.12"/>
    </filter>
    <marker id="svg1eec0bb0-arrowhead" markerWidth="10" markerHeight="10" refX="9" refY="5" orient="auto">
      <path d="M 0 0 L 10 5 L 0 10 Z" fill="var(--accent-1)"/>
    </marker>
    <filter id="svg1eec0bb0-text-glow" x="-20%" y="-20%" width="140%" height="140%">
      <feDropShadow dx="0" dy="0" stdDeviation="2" flood-color="#000000" flood-opacity="0.4"/>
    </filter>
    <radialGradient id="svg1eec0bb0-universal-edge-vignette" cx="50%" cy="50%" r="72%">
      <stop offset="0%" stop-color="var(--background)" stop-opacity="0"/>
      <stop offset="72%" stop-color="var(--background)" stop-opacity="0.12"/>
      <stop offset="100%" stop-color="var(--primary-text)" stop-opacity="0.08"/>
    </radialGradient>
    <linearGradient id="svg1eec0bb0-universal-surface-sheen" x1="0%" y1="0%" x2="100%" y2="100%">
      <stop offset="0%" stop-color="var(--art-sheen)" stop-opacity="var(--art-sheen-opacity)"/>
      <stop offset="46%" stop-color="var(--art-sheen)" stop-opacity="0.035"/>
      <stop offset="100%" stop-color="var(--art-panel-tint)" stop-opacity="0.14"/>
    </linearGradient>
    <radialGradient id="svg1eec0bb0-universal-icon-aura" cx="50%" cy="42%" r="64%">
      <stop offset="0%" stop-color="var(--art-glow)" stop-opacity="var(--art-glow-opacity)"/>
      <stop offset="100%" stop-color="var(--background)" stop-opacity="0"/>
    </radialGradient>
    <linearGradient id="svg1eec0bb0-myth-card-sheen" x1="0%" y1="0%" x2="100%" y2="100%">
      <stop offset="0%" stop-color="var(--inverse-text)" stop-opacity="0.18"/>
      <stop offset="56%" stop-color="var(--inverse-text)" stop-opacity="0.03"/>
      <stop offset="100%" stop-color="var(--background)" stop-opacity="0.12"/>
    </linearGradient>
  </defs>
  <rect width="100%" height="100%" fill="var(--background)" id="CANVAS_BG"/>
  <rect width="100%" height="100%" fill="url(#svg1eec0bb0-napkin-hatch)"/>
  <rect id="UNIVERSAL_EDGE_VIGNETTE" width="100%" height="100%" fill="url(#svg1eec0bb0-universal-edge-vignette)" opacity="0.62"/>
  <text id="TITLE" x="960.0" y="59" text-anchor="middle" font-weight="800" font-size="56" fill="#f1f5f9" style="font-size: 60px; font-family: Inter, Segoe UI, Kalam, Roboto, Helvetica, Arial, sans-serif; font-weight: 700; letter-spacing:-1.2px;" data-final-font-size="60">
    <tspan x="960.0" dy="68.00px">Roswell Debris Evidence Analysis</tspan>
  </text>
  <rect id="TITLE_FRAME" x="134" y="59" width="1652" height="103" fill="none"/>
  <g transform="translate(0, 190) scale(1.0)">
    <path d="M 920 -8 C 950 80 950 720 920 808" stroke="var(--primary-text)" stroke-width="2" stroke-opacity="0.10" fill="none"/>
    <path d="M 1000 -8 C 970 80 970 720 1000 808" stroke="var(--primary-text)" stroke-width="2" stroke-opacity="0.10" fill="none"/>
    <text x="480.0" y="0" text-anchor="middle" font-weight="900" font-size="52" fill="var(--accent-1)">MYTHS</text>
    <text x="1440.0" y="0" text-anchor="middle" font-weight="900" font-size="52" fill="var(--accent-2)">REALITY</text>
    <!-- Row 1 - cards at y=130 -->
    <g transform="translate(480.0, 130.0)">
      <rect id="ITEM_1_ACCENT_BG" x="-400" y="-110" width="800" height="245" rx="24" fill="var(--accent-7)" fill-opacity="0.15" stroke="none"/>
      <rect id="ITEM_1_BG" x="-400" y="-110" width="800" height="245" rx="18" fill="var(--panel)" stroke="var(--accent-1)" filter="url(#svg1eec0bb0-shadow)" stroke-width="3"/>
      <rect x="-388" y="-98" width="776" height="221" rx="16" fill="url(#svg1eec0bb0-myth-card-sheen)" opacity="0.92"/>
      <circle id="ITEM_1_PAD" cx="-330" cy="-40" r="46" fill="var(--icon-pad-bg)" stroke="var(--background)" stroke-width="2" stroke-opacity="0.65" opacity="0.94" fill-opacity="0.9"/>
      <circle id="ITEM_1_PAD_INNER" cx="-330" cy="-40" r="35.88" fill="var(--accent-7)" fill-opacity="0.22"/>
      <circle cx="-330" cy="-40" r="34" fill="none" stroke="var(--accent-1)" stroke-width="3" stroke-dasharray="6 4"/>
      <g id="ITEM_1_ICON" transform="translate(-358, -68)" data-icon-size="56" stroke-dasharray="6 4">
        <g transform="translate(-13.005714285714289,-13.005714285714289) scale(2.562857142857143)">
          <path d="M2 9.00001L15.2666 6.15716C15.7501 6.05357 16.2499 6.05357 16.7334 6.15716L30 9.00001V24.8C30 27.6719 27.6719 30 24.8 30H7.2C4.32812 30 2 27.6719 2 24.8V9.00001Z" fill="#B4ACBC"/>
          <path d="M3 8.00005L15.213 5.18167C15.7309 5.06216 16.2691 5.06216 16.787 5.18167L29 8.00005V24.5001C29 26.9853 26.9853 29.0001 24.5 29.0001H7.5C5.01472 29.0001 3 26.9853 3 24.5001V8.00005Z" fill="#F3EEF8"/>
          <path d="M7.9998 12C7.88935 12 7.7998 12.0895 7.7998 12.2V14.8C7.7998 14.9105 7.88935 15 7.9998 15H10.7998C10.9103 15 10.9998 14.9105 10.9998 14.8V12.2C10.9998 12.0895 10.9103 12 10.7998 12H7.9998Z" fill="#998EA4"/>
          <path d="M7.9998 17.5C7.88935 17.5 7.7998 17.5895 7.7998 17.7V20.3C7.7998 20.4105 7.88935 20.5 7.9998 20.5H10.7998C10.9103 20.5 10.9998 20.4105 10.9998 20.3V17.7C10.9998 17.5895 10.9103 17.5 10.7998 17.5H7.9998Z" fill="#998EA4"/>
          <path d="M7.7998 23.1C7.7998 22.9896 7.88935 22.9 7.9998 22.9H10.7998C10.9103 22.9 10.9998 22.9896 10.9998 23.1V25.7C10.9998 25.8105 10.9103 25.9 10.7998 25.9H7.9998C7.88935 25.9 7.7998 25.8105 7.7998 25.7V23.1Z" fill="#998EA4"/>
          <path d="M14.5998 12C14.4893 12 14.3998 12.0895 14.3998 12.2V14.8C14.3998 14.9105 14.4893 15 14.5998 15H17.3998C17.5102 15 17.5998 14.9105 17.5998 14.8V12.2C17.5998 12.0895 17.5102 12 17.3998 12H14.5998Z" fill="#998EA4"/>
          <path d="M14.3998 17.7C14.3998 17.5895 14.4893 17.5 14.5998 17.5H17.3998C17.5102 17.5 17.5998 17.5895 17.5998 17.7V20.3C17.5998 20.4105 17.5102 20.5 17.3998 20.5H14.5998C14.4893 20.5 14.3998 20.4105 14.3998 20.3V17.7Z" fill="#998EA4"/>
          <path d="M14.5998 22.9C14.4893 22.9 14.3998 22.9896 14.3998 23.1V25.7C14.3998 25.8105 14.4893 25.9 14.5998 25.9H17.3998C17.5102 25.9 17.5998 25.8105 17.5998 25.7V23.1C17.5998 22.9896 17.5102 22.9 17.3998 22.9H14.5998Z" fill="#998EA4"/>
          <path d="M20.9998 12.2C20.9998 12.0895 21.0894 12 21.1998 12H23.9998C24.1103 12 24.1998 12.0895 24.1998 12.2V14.8C24.1998 14.9105 24.1103 15 23.9998 15H21.1998C21.0894 15 20.9998 14.9105 20.9998 14.8V12.2Z" fill="#998EA4"/>
          <path d="M21.1998 22.9C21.0894 22.9 20.9998 22.9896 20.9998 23.1V25.7C20.9998 25.8105 21.0894 25.9 21.1998 25.9H23.9998C24.1103 25.9 24.1998 25.8105 24.1998 25.7V23.1C24.1998 22.9896 24.1103 22.9 23.9998 22.9H21.1998Z" fill="#998EA4"/>
          <path d="M7.2 2C4.32812 2 2 4.32812 2 7.2V9H30V7.2C30 4.32812 27.6719 2 24.8 2H7.2Z" fill="#0084CE"/>
          <path d="M21.2 17.5C21.0895 17.5 21 17.5895 21 17.7V20.3C21 20.4105 21.0895 20.5 21.2 20.5H24C24.1105 20.5 24.2 20.4105 24.2 20.3V17.7C24.2 17.5895 24.1105 17.5 24 17.5H21.2Z" fill="#0084CE"/>
        </g>
      </g>
      <text id="ITEM_1_HEAD" x="0.0" y="-85.0" text-anchor="middle" font-weight="bold" font-size="28" fill="var(--accent-7)" data-bg-id="ITEM_1_BG" fill-opacity="1.0" stroke="none" style="font-size: 30px; font-family: Inter, Segoe UI, Kalam, Roboto, Helvetica, Arial, sans-serif; font-weight: 700; letter-spacing:-0.4px;" data-final-font-size="30">
        <tspan x="0.0" dy="37.75px">Timing Alignment</tspan>
      </text>
      <rect id="ITEM_1_HEAD_FRAME" x="-310" y="-85" width="620" height="50" fill="none"/>
      <text id="ITEM_1_BODY" x="0.0" y="-20.0" text-anchor="middle" font-size="22" fill="var(--primary-text)" opacity="0.88" data-bg-id="ITEM_1_BG" style="font-size: 26px; font-family: Inter, Segoe UI, Kalam, Roboto, Helvetica, Arial, sans-serif; font-weight: 400;" data-final-font-size="26">
        <tspan x="0.0" dy="51.40px">Weeks between launch and discovery allow for drifting</tspan>
      </text>
      <rect id="ITEM_1_BODY_FRAME" x="-310" y="-20" width="620" height="155" fill="none"/>
    </g>
    <g transform="translate(1440.0, 130.0)">
      <rect id="ITEM_2_ACCENT_BG" x="-400" y="-110" width="800" height="245" rx="24" fill="var(--accent-2)" fill-opacity="0.15" stroke="none"/>
      <rect id="ITEM_2_BG" x="-400" y="-110" width="800" height="245" rx="18" fill="var(--panel)" stroke="var(--accent-2)" filter="url(#svg1eec0bb0-shadow)" stroke-width="3"/>
      <rect x="-388" y="-98" width="776" height="221" rx="16" fill="url(#svg1eec0bb0-myth-card-sheen)" opacity="0.92"/>
      <circle id="ITEM_2_PAD" cx="330" cy="-40" r="46" fill="var(--icon-pad-bg)" stroke="var(--background)" stroke-width="2" stroke-opacity="0.65" opacity="0.94" fill-opacity="0.9"/>
      <circle id="ITEM_2_PAD_INNER" cx="330" cy="-40" r="35.88" fill="var(--accent-2)" fill-opacity="0.22"/>
      <circle cx="330" cy="-40" r="34" fill="none" stroke="var(--accent-2)" stroke-width="3" stroke-dasharray="6 4"/>
      <g id="ITEM_2_ICON" transform="translate(302, -68)" data-icon-size="56" stroke-dasharray="6 4">
        <g transform="translate(-9.973000000000004,-10.272000000000002) scale(0.14950000000000002)" vector-effect="non-scaling-stroke" fill="#f1f5f9" fill-opacity="1.0" stroke="none">
          <path fill="#f1f5f9" d="M254.28 17.313c-81.048 0-146.624 65.484-146.624 146.406V236h49.594v-69.094c0-53.658 43.47-97.187 97.03-97.187c53.563 0 97.032 44.744 97.032 97.186V236h49.594v-72.28c0-78.856-65.717-146.407-146.625-146.407zM85.157 254.688c-14.61 22.827-22.844 49.148-22.844 76.78c0 88.358 84.97 161.5 191.97 161.5c106.998 0 191.968-73.142 191.968-161.5c0-27.635-8.26-53.95-22.875-76.78H85.155zM254 278.625c22.34 0 40.875 17.94 40.875 40.28c0 16.756-10.6 31.23-25.125 37.376l32.72 98.126h-96.376l32.125-98.125c-14.526-6.145-24.532-20.62-24.532-37.374c0-22.338 17.972-40.28 40.312-40.28z" vector-effect="non-scaling-stroke" stroke="none"/>
        </g>
      </g>
      <text id="ITEM_2_HEAD" x="0.0" y="-85.0" text-anchor="middle" font-weight="bold" font-size="28" fill="var(--accent-2)" data-bg-id="ITEM_2_BG" fill-opacity="1.0" stroke="none" style="font-size: 30px; font-family: Inter, Segoe UI, Kalam, Roboto, Helvetica, Arial, sans-serif; font-weight: 700; letter-spacing:-0.4px;" data-final-font-size="30">
        <tspan x="0.0" dy="37.75px">Secrecy Logic</tspan>
      </text>
      <rect id="ITEM_2_HEAD_FRAME" x="-310" y="-85" width="620" height="50" fill="none"/>
      <text id="ITEM_2_BODY" x="0.0" y="-20.0" text-anchor="middle" font-size="22" fill="var(--primary-text)" opacity="0.88" data-bg-id="ITEM_2_BG" style="font-size: 26px; font-family: Inter, Segoe UI, Kalam, Roboto, Helvetica, Arial, sans-serif; font-weight: 400;" data-final-font-size="26">
        <tspan x="0.0" dy="51.40px">Classified projects lead to initial military confusion</tspan>
      </text>
      <rect id="ITEM_2_BODY_FRAME" x="-310" y="-20" width="620" height="155" fill="none"/>
    </g>
    <!-- Row 2 - cards at y=400 -->
    <g transform="translate(480.0, 400.0)">
      <rect id="ITEM_3_ACCENT_BG" x="-400" y="-110" width="800" height="245" rx="24" fill="var(--accent-3)" fill-opacity="0.15"/>
      <rect id="ITEM_3_BG" x="-400" y="-110" width="800" height="245" rx="18" fill="var(--panel)" stroke="var(--accent-3)" filter="url(#svg1eec0bb0-shadow)" stroke-width="3"/>
      <rect x="-388" y="-98" width="776" height="221" rx="16" fill="url(#svg1eec0bb0-myth-card-sheen)" opacity="0.92"/>
      <circle id="ITEM_3_PAD" cx="-330" cy="-40" r="46" fill="var(--icon-pad-bg)" stroke="var(--background)" stroke-width="2" stroke-opacity="0.65" opacity="0.94"/>
      <circle id="ITEM_3_PAD_INNER" cx="-330" cy="-40" r="35.88" fill="var(--accent-3)" fill-opacity="0.22"/>
      <circle cx="-330" cy="-40" r="34" fill="none" stroke="var(--accent-3)" stroke-width="3" stroke-dasharray="6 4"/>
      <g id="ITEM_3_ICON" transform="translate(-358, -68)" data-icon-size="56" stroke-dasharray="6 4">
        <g transform="translate(-11.690265486725668,-13.595398230088499) scale(2.540176991150443)">
          <path d="M3.27393 28.0227C3.46919 27.8274 3.78578 27.8274 3.98104 28.0227C4.1763 28.2179 4.1763 28.5345 3.98104 28.7298L2.56683 30.144C2.37156 30.3392 2.05498 30.3392 1.85972 30.144C1.66446 29.9487 1.66446 29.6321 1.85972 29.4369L3.27393 28.0227Z" fill="#402A32"/>
          <path d="M27.9001 8.10118C28.1994 7.95818 28.48 7.7627 28.7279 7.51475C29.8995 6.34318 29.8995 4.44369 28.7279 3.27211C27.5563 2.10054 25.6569 2.10054 24.4853 3.27211C24.2373 3.52006 24.0418 3.80062 23.8989 4.09998L23.7782 3.97928L13.5691 12.1405C13.5691 13.3175 12.5867 14.2613 11.4102 14.2259L11.3453 14.2909C11.1201 14.516 10.917 14.7621 10.7387 15.0258L3.62561 25.546L4.57008 27.5017L6.45404 28.3745L16.9743 21.2614C17.238 21.083 17.4841 20.8799 17.7092 20.6548L17.7785 20.5855L17.7879 20.2879C17.8223 19.1986 18.7607 18.3595 19.8471 18.4465L28.0208 8.22192L27.9001 8.10118Z" fill="#0074BA"/>
          <path d="M29.435 8.2218L24.4853 3.27209L23.7782 3.9792L28.7279 8.92892L23.4246 14.2322C23.2294 14.4275 23.2294 14.7441 23.4246 14.9393C23.6199 15.1346 23.9365 15.1346 24.1317 14.9393L29.435 9.63602C29.8256 9.24549 29.8256 8.61233 29.435 8.2218Z" fill="#F9C23C"/>
          <path d="M11.4038 14.2323L13.2026 12.4335L13.5611 12.1469L19.8531 18.439L19.5665 18.7975L17.7677 20.5963L11.4038 14.2323Z" fill="#F9C23C"/>
          <path d="M6.45225 28.3762L3.62382 25.5477L3.27027 25.9013C2.48922 26.6823 2.48922 27.9487 3.27027 28.7297C4.05131 29.5108 5.31764 29.5108 6.09869 28.7297L6.45225 28.3762Z" fill="#F9C23C"/>
        </g>
      </g>
      <text id="ITEM_3_HEAD" x="0.0" y="-85.0" text-anchor="middle" font-weight="bold" font-size="28" fill="var(--accent-3)" data-bg-id="ITEM_3_BG" style="font-size: 30px; font-family: Inter, Segoe UI, Kalam, Roboto, Helvetica, Arial, sans-serif; font-weight: 700; letter-spacing:-0.4px;" data-final-font-size="30">
        <tspan x="0.0" dy="37.75px">Documentary Chain</tspan>
      </text>
      <rect id="ITEM_3_HEAD_FRAME" x="-310" y="-85" width="620" height="50" fill="none"/>
      <text id="ITEM_3_BODY" x="0.0" y="-20.0" text-anchor="middle" font-size="22" fill="var(--primary-text)" opacity="0.88" data-bg-id="ITEM_3_BG" style="font-size: 26px; font-family: Inter, Segoe UI, Kalam, Roboto, Helvetica, Arial, sans-serif; font-weight: 400;" data-final-font-size="26">
        <tspan x="0.0" dy="45.42px">Specific flight paths provide a concrete</tspan>
        <tspan x="0.0" dy="29.90px">evidence trail</tspan>
      </text>
      <rect id="ITEM_3_BODY_FRAME" x="-310" y="-20" width="620" height="155" fill="none"/>
    </g>
    <g transform="translate(1440.0, 400.0)">
      <rect id="ITEM_4_ACCENT_BG" x="-400" y="-110" width="800" height="245" rx="24" fill="var(--accent-4)" fill-opacity="0.15"/>
      <rect id="ITEM_4_BG" x="-400" y="-110" width="800" height="245" rx="18" fill="var(--panel)" stroke="var(--accent-4)" filter="url(#svg1eec0bb0-shadow)" stroke-width="3"/>
      <rect x="-388" y="-98" width="776" height="221" rx="16" fill="url(#svg1eec0bb0-myth-card-sheen)" opacity="0.92"/>
      <circle id="ITEM_4_PAD" cx="330" cy="-40" r="46" fill="var(--icon-pad-bg)" stroke="var(--background)" stroke-width="2" stroke-opacity="0.65" opacity="0.94"/>
      <circle id="ITEM_4_PAD_INNER" cx="330" cy="-40" r="35.88" fill="var(--accent-4)" fill-opacity="0.22"/>
      <circle cx="330" cy="-40" r="34" fill="none" stroke="var(--accent-4)" stroke-width="3" stroke-dasharray="6 4"/>
      <g id="ITEM_4_ICON" transform="translate(302, -68)" data-icon-size="56" stroke-dasharray="6 4">
        <g transform="translate(-10.920677966101698,-10.920677966101696) scale(3.243389830508475)" vector-effect="non-scaling-stroke" stroke-width="2.38" stroke-linecap="round" stroke-linejoin="round" stroke-opacity="1.0">
          <rect width="20" height="5" x="2" y="3" rx="1" vector-effect="non-scaling-stroke" fill="none" stroke="#f1f5f9"/>
          <path d="M4 8v11a2 2 0 0 0 2 2h12a2 2 0 0 0 2-2V8" vector-effect="non-scaling-stroke" fill="none" stroke="#f1f5f9"/>
          <path d="M10 12h4" vector-effect="non-scaling-stroke" fill="none" stroke="#f1f5f9"/>
        </g>
      </g>
      <text id="ITEM_4_HEAD" x="0.0" y="-85.0" text-anchor="middle" font-weight="bold" font-size="28" fill="var(--accent-4)" data-bg-id="ITEM_4_BG" style="font-size: 30px; font-family: Inter, Segoe UI, Kalam, Roboto, Helvetica, Arial, sans-serif; font-weight: 700; letter-spacing:-0.4px;" data-final-font-size="30">
        <tspan x="0.0" dy="37.75px">Record Ambiguity</tspan>
      </text>
      <rect id="ITEM_4_HEAD_FRAME" x="-310" y="-85" width="620" height="50" fill="none"/>
      <text id="ITEM_4_BODY" x="0.0" y="-20.0" text-anchor="middle" font-size="22" fill="var(--primary-text)" opacity="0.88" data-bg-id="ITEM_4_BG" style="font-size: 26px; font-family: Inter, Segoe UI, Kalam, Roboto, Helvetica, Arial, sans-serif; font-weight: 400;" data-final-font-size="26">
        <tspan x="0.0" dy="45.42px">Incomplete logs create room</tspan>
        <tspan x="0.0" dy="29.90px">for conflicting interpretations</tspan>
      </text>
      <rect id="ITEM_4_BODY_FRAME" x="-310" y="-20" width="620" height="155" fill="none"/>
    </g>
    <!-- Row 3 - cards at y=670 -->
    <g transform="translate(480.0, 670.0)">
      <rect id="ITEM_5_ACCENT_BG" x="-400" y="-110" width="800" height="245" rx="24" fill="var(--accent-5)" fill-opacity="0.15"/>
      <rect id="ITEM_5_BG" x="-400" y="-110" width="800" height="245" rx="18" fill="var(--panel)" stroke="var(--accent-5)" filter="url(#svg1eec0bb0-shadow)" stroke-width="3"/>
      <rect x="-388" y="-98" width="776" height="221" rx="16" fill="url(#svg1eec0bb0-myth-card-sheen)" opacity="0.92"/>
      <circle id="ITEM_5_PAD" cx="-330" cy="-40" r="46" fill="var(--icon-pad-bg)" stroke="var(--background)" stroke-width="2" stroke-opacity="0.65" opacity="0.94"/>
      <circle id="ITEM_5_PAD_INNER" cx="-330" cy="-40" r="35.88" fill="var(--accent-5)" fill-opacity="0.22"/>
      <circle cx="-330" cy="-40" r="34" fill="none" stroke="var(--accent-5)" stroke-width="3" stroke-dasharray="6 4"/>
      <g id="ITEM_5_ICON" transform="translate(-358, -68)" data-icon-size="56" stroke-dasharray="6 4">
        <g transform="translate(-10.920677966101701,-10.920677966101698) scale(3.243389830508475)" vector-effect="non-scaling-stroke" stroke-width="2.38" stroke-linecap="round" stroke-linejoin="round" stroke-opacity="1.0">
          <path d="M4 19.5v-15A2.5 2.5 0 0 1 6.5 2H19a1 1 0 0 1 1 1v18a1 1 0 0 1-1 1H6.5a1 1 0 0 1 0-5H20" vector-effect="non-scaling-stroke" fill="none" stroke="#f1f5f9"/>
        </g>
      </g>
      <text id="ITEM_5_HEAD" x="0.0" y="-85.0" text-anchor="middle" font-weight="bold" font-size="28" fill="var(--accent-5)" data-bg-id="ITEM_5_BG" style="font-size: 30px; font-family: Inter, Segoe UI, Kalam, Roboto, Helvetica, Arial, sans-serif; font-weight: 700; letter-spacing:-0.4px;" data-final-font-size="30">
        <tspan x="0.0" dy="37.75px">Narrative Expansion</tspan>
      </text>
      <rect id="ITEM_5_HEAD_FRAME" x="-310" y="-85" width="620" height="50" fill="none"/>
      <text id="ITEM_5_BODY" x="0.0" y="-20.0" text-anchor="middle" font-size="22" fill="var(--primary-text)" opacity="0.88" data-bg-id="ITEM_5_BG" style="font-size: 26px; font-family: Inter, Segoe UI, Kalam, Roboto, Helvetica, Arial, sans-serif; font-weight: 400;" data-final-font-size="26">
        <tspan x="0.0" dy="51.40px">Later stories of bodies lack physical evidence links</tspan>
      </text>
      <rect id="ITEM_5_BODY_FRAME" x="-310" y="-20" width="620" height="155" fill="none"/>
    </g>
  </g>
</svg>
