<?xml version='1.0' encoding='utf-8'?>
<svg xmlns="http://www.w3.org/2000/svg" width="1920" height="1080" viewBox="0 0 1920 1080" data-theme="light">
  <style>
        @font-face {
            font-family: 'Inter';
            src: url('assets/fonts/Inter-Regular.ttf') format('truetype');
            font-weight: 400;
            font-style: normal;
            font-display: swap;
        }
        @font-face {
            font-family: 'Inter';
            src: url('assets/fonts/Inter-Bold.ttf') format('truetype');
            font-weight: 600;
            font-style: normal;
            font-display: swap;
        }
        @font-face {
            font-family: 'Inter';
            src: url('assets/fonts/Inter-Bold.ttf') format('truetype');
            font-weight: 800;
            font-style: normal;
            font-display: swap;
        }
        
:root {
    --background: #f8fafc;
    --panel: #ffffff;
    --primary-text: #0f172a;
    --muted-text: #64748b;
    --inverse-text: #ffffff;
    --border: #e2e8f0;
    --shadow-color: #000000;
    --icon-pad-bg: #1e293b;
    --art-glow: #0891b2;
    --art-glow-opacity: 0.10;
    --art-sheen: #ffffff;
    --art-sheen-opacity: 0.34;
    --art-shadow: #0f172a;
    --art-shadow-opacity: 0.14;
    --art-muted-line: #94a3b8;
    --art-panel-tint: #f1f5f9;
    --font-family: 'Inter', 'Segoe UI', 'Kalam', Roboto, Helvetica, Arial, sans-serif;
    --radius-xl: 16px;
    --font-family-headline: 'Inter', 'Segoe UI', 'Kalam', Roboto, Helvetica, Arial, sans-serif;
    --font-family-body: 'Inter', 'Segoe UI', 'Kalam', Roboto, Helvetica, Arial, sans-serif;
    --font-heading: 'Inter', 'Segoe UI', 'Kalam', Roboto, Helvetica, Arial, sans-serif;
    --font-body: 'Inter', 'Segoe UI', 'Kalam', Roboto, Helvetica, Arial, sans-serif;
    --font-size-h1: 56px;
    --font-size-h2: 40px;
    --font-size-h3: 28px;
    --font-size-body: 24px;
    --font-size-caption: 18px;
    --secondary-text: var(--muted-text);
    --panel-border: var(--border);
    --font-weight-normal: 400;
    --font-weight-medium: 500;
    --font-weight-semibold: 600;
    --font-weight-bold: 700;
    --spacing-gutter-pct: 0.07;
    --spacing-top-pct: 0.15;
    --spacing-bottom-pct: 0.07;
    --spacing-title-y-pct: 0.055;
    --accent-1: #2563eb;
    --accent-2: #16a34a;
    --accent-3: #ea580c;
    --accent-4: #7c3aed;
    --accent-5: #0284c7;
    --accent-6: #475569;
}
:root[data-theme="dark"] {
    --background: #0f172a;
    --panel: #1e293b;
    --primary-text: #f1f5f9;
    --muted-text: #94a3b8;
    --inverse-text: #0f172a;
    --border: #334155;
    --shadow-color: #000000;
    --icon-pad-bg: #1e293b;
    --art-glow: #7dd3fc;
    --art-glow-opacity: 0.18;
    --art-sheen: #ffffff;
    --art-sheen-opacity: 0.18;
    --art-shadow: #000000;
    --art-shadow-opacity: 0.28;
    --art-muted-line: #64748b;
    --art-panel-tint: #1e293b;
    --accent-1: #60a5fa;
    --accent-2: #4ade80;
    --accent-3: #f97316;
    --accent-4: #a78bfa;
    --accent-5: #38bdf8;
    --accent-6: #94a3b8;
}
:root[data-theme="light"] {
    --background: #f8fafc;
    --panel: #ffffff;
    --primary-text: #0f172a;
    --muted-text: #64748b;
    --inverse-text: #ffffff;
    --border: #e2e8f0;
    --shadow-color: #000000;
    --icon-pad-bg: #1e293b;
    --art-glow: #0891b2;
    --art-glow-opacity: 0.10;
    --art-sheen: #ffffff;
    --art-sheen-opacity: 0.34;
    --art-shadow: #0f172a;
    --art-shadow-opacity: 0.14;
    --art-muted-line: #94a3b8;
    --art-panel-tint: #f1f5f9;
    --accent-1: #2563eb;
    --accent-2: #16a34a;
    --accent-3: #ea580c;
    --accent-4: #7c3aed;
    --accent-5: #0284c7;
    --accent-6: #475569;
}</style>
  <rect x="0" y="0" width="1.92E+3" height="1.08E+3" fill="#252a34" stroke="none" id="programmatic_background"/>
  <line id="HEADER_DECOR" x1="960.0" x2="1080.0" y1="135.0" y2="135.0" stroke="var(--accent-1)" stroke-width="6" stroke-linecap="round"/>
  <defs>
    <pattern id="svgd9c3e542-napkin-hatch" patternUnits="userSpaceOnUse" width="12" height="12">
      <path d="M -3 12 L 12 -3 M 0 15 L 15 0" fill="none" stroke="var(--primary-text)" stroke-width="1" stroke-opacity="0.05"/>
    </pattern>
    <radialGradient id="svgd9c3e542-universal-edge-vignette" cx="50%" cy="50%" r="72%">
      <stop offset="0%" stop-color="var(--background)" stop-opacity="0"/>
      <stop offset="72%" stop-color="var(--background)" stop-opacity="0.12"/>
      <stop offset="100%" stop-color="var(--primary-text)" stop-opacity="0.08"/>
    </radialGradient>
    <linearGradient id="svgd9c3e542-universal-surface-sheen" x1="0%" y1="0%" x2="100%" y2="100%">
      <stop offset="0%" stop-color="var(--art-sheen)" stop-opacity="var(--art-sheen-opacity)"/>
      <stop offset="46%" stop-color="var(--art-sheen)" stop-opacity="0.035"/>
      <stop offset="100%" stop-color="var(--art-panel-tint)" stop-opacity="0.14"/>
    </linearGradient>
    <radialGradient id="svgd9c3e542-universal-icon-aura" cx="50%" cy="42%" r="64%">
      <stop offset="0%" stop-color="var(--art-glow)" stop-opacity="var(--art-glow-opacity)"/>
      <stop offset="100%" stop-color="var(--background)" stop-opacity="0"/>
    </radialGradient>
    <filter id="svgd9c3e542-text-glow" x="-20%" y="-20%" width="140%" height="140%">
      <feDropShadow dx="0" dy="0" stdDeviation="2" flood-color="#000000" flood-opacity="0.4"/>
    </filter>
    <filter id="svgd9c3e542-shadow" x="-30%" y="-30%" width="160%" height="160%">
      <feDropShadow dx="0" dy="2" stdDeviation="3" flood-color="#000000" flood-opacity="0.08"/>
      <feDropShadow dx="0" dy="6" stdDeviation="10" flood-color="#000000" flood-opacity="0.12"/>
    </filter>
    <marker id="svgd9c3e542-arrowhead" markerWidth="10" markerHeight="7" refX="9" refY="3.5" orient="auto" markerUnits="strokeWidth">
      <polygon points="0 0, 10 3.5, 0 7" fill="var(--muted-text)" opacity="0.6"/>
    </marker>
  </defs>
  <rect width="100%" height="100%" fill="var(--background)" id="CANVAS_BG"/>
  <rect width="100%" height="100%" fill="url(#svgd9c3e542-napkin-hatch)"/>
  <rect id="UNIVERSAL_EDGE_VIGNETTE" width="100%" height="100%" fill="url(#svgd9c3e542-universal-edge-vignette)" opacity="0.62"/>
  <text id="TITLE" x="960.0" y="59" text-anchor="middle" font-weight="700" font-size="63" fill="#0f172a" style="font-size: 60px; font-family: Inter, Segoe UI, Kalam, Roboto, Helvetica, Arial, sans-serif; font-weight: 700; letter-spacing:-1.2px;" data-final-font-size="60">
    <tspan x="960.0" dy="68.00px">Sheridan Cavitt's Recovered Debris</tspan>
  </text>
  <rect id="TITLE_FRAME" x="134" y="59" width="1652" height="103" fill="none"/>
  <g id="DIAGRAM_SCALER" transform="translate(50.3, 33.8) scale(0.95)">
    <g transform="translate(495.0, 390.0)">
      <rect id="ITEM_1_BG" x="-375" y="-120" width="750" height="240" rx="22" fill="var(--accent-5)" stroke="var(--accent-1)" stroke-width="2" fill-opacity="1.0"/>
      <circle cx="-240" cy="0" r="50" fill="var(--accent-1)" opacity="0.15"/>
      <g transform="translate(-90.0, 0.0)">
        <text id="ITEM_1_HEAD" text-anchor="start" font-weight="bold" font-size="36" fill="var(--primary-text)" x="-6.0" y="-84.0" data-bg-id="ITEM_1_BG" fill-opacity="1.0" style="font-size: 30px; font-family: Inter, Segoe UI, Kalam, Roboto, Helvetica, Arial, sans-serif; font-weight: 700; letter-spacing:-0.4px;" data-final-font-size="30">
          <tspan x="-6.0" dy="33.25px">Reflective Material</tspan>
        </text>
        <rect id="ITEM_1_HEAD_FRAME" x="-6" y="-84" width="390" height="50" fill="none"/>
        <text id="ITEM_1_BODY" text-anchor="start" font-size="24" fill="var(--primary-text)" x="-8.0" y="-28.0" data-bg-id="ITEM_1_BG" style="font-size: 26px; font-family: Inter, Segoe UI, Kalam, Roboto, Helvetica, Arial, sans-serif; font-weight: 400;" data-final-font-size="26">
          <tspan x="-8.0" dy="36.84px">Light weight substance resembling</tspan>
          <tspan x="-8.0" dy="29.90px">aluminum foil sheets</tspan>
        </text>
        <rect id="ITEM_1_BODY_FRAME" x="-8" y="-28" width="460" height="140" fill="none"/>
      </g>
      <circle id="ITEM_1_PAD" cx="-245" cy="0.0" r="48" fill="var(--icon-pad-bg)" stroke="var(--primary-text)" opacity="0.9" fill-opacity="0.9" stroke-width="2"/>
      <circle id="ITEM_1_PAD_INNER" cx="-245" cy="0.0" r="37.44" fill="var(--accent-5)" fill-opacity="0.22"/>
      <circle cx="-245" cy="0.0" r="38" fill="none" stroke="var(--accent-1)" stroke-width="3" stroke-dasharray="6 4"/>
      <g id="ITEM_1_ICON" transform="translate(-283, -38)" data-icon-size="76" stroke-dasharray="6 4">
        <g transform="translate(-11.92156862745098,-13.411764705882355) scale(3.973856209150327)" vector-effect="non-scaling-stroke" fill="#f1f5f9" fill-opacity="1.0" stroke="none">
          <path fill="#f1f5f9" d="M21 5H3v2h18zM3 19h7v-2H3zm0-6h15c1 0 2 .43 2 2s-1 2-2 2h-2v-2l-4 3l4 3v-2h2c2.95 0 4-1.27 4-4c0-2.72-1-4-4-4H3z" vector-effect="non-scaling-stroke" stroke="none"/>
        </g>
      </g>
    </g>
    <g transform="translate(1425.0, 390.0)">
      <rect id="ITEM_2_BG" x="-375" y="-120" width="750" height="240" rx="22" fill="var(--accent-6)" stroke="var(--accent-2)" stroke-width="2" fill-opacity="1.0"/>
      <circle cx="-240" cy="0" r="50" fill="var(--accent-1)" opacity="0.15"/>
      <g transform="translate(-90.0, 0.0)">
        <text id="ITEM_2_HEAD" text-anchor="start" font-weight="bold" font-size="36" fill="var(--inverse-text)" x="-6.0" y="-84.0" data-bg-id="ITEM_2_BG" fill-opacity="1.0" style="font-size: 30px; font-family: Inter, Segoe UI, Kalam, Roboto, Helvetica, Arial, sans-serif; font-weight: 700; letter-spacing:-0.4px;" data-final-font-size="30">
          <tspan x="-6.0" dy="33.25px">Bamboo-like Sticks</tspan>
        </text>
        <rect id="ITEM_2_HEAD_FRAME" x="-6" y="-84" width="390" height="50" fill="none"/>
        <text id="ITEM_2_BODY" text-anchor="start" font-size="24" fill="var(--inverse-text)" x="-8.0" y="-28.0" data-bg-id="ITEM_2_BG" style="font-size: 26px; font-family: Inter, Segoe UI, Kalam, Roboto, Helvetica, Arial, sans-serif; font-weight: 400;" data-final-font-size="26">
          <tspan x="-8.0" dy="36.84px">Thin structural pieces resembling</tspan>
          <tspan x="-8.0" dy="29.90px">natural bamboo stalks</tspan>
        </text>
        <rect id="ITEM_2_BODY_FRAME" x="-8" y="-28" width="460" height="140" fill="none"/>
      </g>
      <circle id="ITEM_2_PAD" cx="-245" cy="0.0" r="48" fill="var(--icon-pad-bg)" stroke="var(--primary-text)" opacity="0.9" fill-opacity="0.9" stroke-width="2"/>
      <circle id="ITEM_2_PAD_INNER" cx="-245" cy="0.0" r="37.44" fill="var(--accent-6)" fill-opacity="0.22"/>
      <circle cx="-245" cy="0.0" r="38" fill="none" stroke="var(--accent-2)" stroke-width="3" stroke-dasharray="6 4"/>
      <g id="ITEM_2_ICON" transform="translate(-283, -38)" data-icon-size="76" stroke-dasharray="6 4">
        <g transform="translate(-6.551724137931035,-3.9310344827586206) scale(0.16379310344827586)" vector-effect="non-scaling-stroke" fill="#f1f5f9" fill-opacity="1.0" stroke="none">
          <path fill="#f1f5f9" d="M51.72 25c3.76 42 3.72 84 0 126h44.22c-4.56-41.6-3.68-83.68.28-126zm181.68 0c2.6 54.1 5.5 108.6.4 164.7h44.3c-5-54.5-3.7-109.52.3-164.7zm113.2 0c4.6 31.51 3.6 62.88-.4 94h44.1c-2.4-31.33-2.4-62.67 0-94zm116.5 36.46s-41.4 7.81-53.5 23.86c-3.2 4.61-5.9 12.32-3 17.18c3.1 4.8 10.7 5 15.8 3.3c18.3-6 40.7-44.34 40.7-44.34M173 106.9s12 42.7 28.1 53.1c4.6 3.1 12.2 4.6 16.3.7s3.4-12 1.4-17.2c-7.8-18.7-45.8-36.6-45.8-36.6m261.4 6.9c-4.6.1-8.9.6-12.5 1.8c-6.3 2.2-14.1 8.1-13.8 14.7c.1 6.6 8.2 12 14.8 13.8c23.6 6.2 71.5-16.6 71.5-16.6s-35.2-14-60-13.7M346.2 137c6.2 47.7 7.1 95.1.2 142h43.8c-4-47.4-3.5-94.8.2-142zm67.4 18.9c-2.2.1-4.3.8-5.9 2.3c-4.1 3.9-3.4 12-1.4 17.2c7.8 18.7 45.8 36.6 45.8 36.6s-12-42.7-28.1-53.1c-2.6-1.7-6.1-3-9.5-3zm-255 12.3c-13.1.2-23.2 1.3-23.2 1.3s40.3 34.6 64.7 34.8c6.7-.1 16-3.1 17.8-9.4c2.1-6.3-3.8-14.1-9.5-17.9c-10.1-6.8-28.4-8.6-44.1-8.8zm-106.59.8c4.41 42.1 3.92 84.1-.2 126h44.42c-3.9-42.3-4.92-84.4-.31-126zm181.49 32c3.3 52.1 3.5 104.7 0 158h44.6c-5-53.5-3.7-106 .3-158zm-76.4 22.6s-38 17.9-45.8 36.6c-2 5.2-2.7 13.3 1.4 17.2s11.7 2.4 16.3-.7c16.1-10.4 28.1-53.1 28.1-53.1m-25.6 72.1c-6.7.2-15 3.1-16.9 9c-2.1 6.2 3.6 14.1 9.1 18c19.9 14 72.8 9.4 72.8 9.4s-39.3-35.6-63.7-36.4zm214.2 1.3c2.8 36.5 3.6 73.2.2 110h43.9c-4.6-38-1.7-74.3.6-110zM51.61 313c3.96 58.2 2.72 116.2-.2 174h45.21c-2.49-57.7-4.56-115.7-.28-174zM121 337.8c-3.8.1-7.5 1.3-9.4 4.3c-2.9 4.8-.2 12.6 3 17.2c12.1 16 53.5 23.8 53.5 23.8s-22.4-38.3-40.7-44.3c-1.9-.6-4.2-1-6.4-1m359.7 19.4s-52.9 5.1-69.9 22.5c-4.6 4.8-8.9 13.7-5.6 19.4c3.1 5.8 12.8 6.9 19.5 5.5c23.8-5.2 56-47.4 56-47.4M234 377c3.6 36.7.4 73.9-.7 110h45.2c-1.7-35.8-5.7-72.4-.8-110zm182 45c-5.2 0-11.1 2.3-12.7 6.9c-1.9 5.3 2.4 12.2 6.6 16c15.4 13 57.4 11.6 57.4 11.6s-30.1-32.5-49.2-34.4c-.7-.1-1.4-.1-2.1-.1m-70 3c2.1 20.3 3.3 41 .6 62h42.8c-2.8-21.1-1.4-41.8.7-62z" vector-effect="non-scaling-stroke" stroke="none"/>
        </g>
      </g>
    </g>
    <g transform="translate(495.0, 750.0)">
      <rect id="ITEM_3_BG" x="-375" y="-120" width="750" height="240" rx="22" fill="var(--accent-1)" stroke="var(--accent-3)" stroke-width="2" fill-opacity="1.0"/>
      <circle cx="-240" cy="0" r="50" fill="var(--accent-1)" opacity="0.15"/>
      <g transform="translate(-90.0, 0.0)">
        <text id="ITEM_3_HEAD" text-anchor="start" font-weight="bold" font-size="36" fill="var(--inverse-text)" x="-6.0" y="-84.0" data-bg-id="ITEM_3_BG" fill-opacity="1.0" style="font-size: 30px; font-family: Inter, Segoe UI, Kalam, Roboto, Helvetica, Arial, sans-serif; font-weight: 700; letter-spacing:-0.4px;" data-final-font-size="30">
          <tspan x="-6.0" dy="33.25px">Small Black Box</tspan>
        </text>
        <rect id="ITEM_3_HEAD_FRAME" x="-6" y="-84" width="390" height="50" fill="none"/>
        <text id="ITEM_3_BODY" text-anchor="start" font-size="24" fill="var(--inverse-text)" x="-8.0" y="-28.0" data-bg-id="ITEM_3_BG" style="font-size: 26px; font-family: Inter, Segoe UI, Kalam, Roboto, Helvetica, Arial, sans-serif; font-weight: 400;" data-final-font-size="26">
          <tspan x="-8.0" dy="36.84px">Compact device identified as a</tspan>
          <tspan x="-8.0" dy="29.90px">radiosonde instrument</tspan>
        </text>
        <rect id="ITEM_3_BODY_FRAME" x="-8" y="-28" width="460" height="140" fill="none"/>
      </g>
      <circle id="ITEM_3_PAD" cx="-245" cy="0.0" r="48" fill="var(--icon-pad-bg)" stroke="var(--primary-text)" opacity="0.9" fill-opacity="0.9" stroke-width="2"/>
      <circle id="ITEM_3_PAD_INNER" cx="-245" cy="0.0" r="37.44" fill="var(--accent-1)" fill-opacity="0.22"/>
      <circle cx="-245" cy="0.0" r="38" fill="none" stroke="var(--accent-3)" stroke-width="3" stroke-dasharray="6 4"/>
      <g id="ITEM_3_ICON" transform="translate(-283, -38)" data-icon-size="76" stroke-dasharray="6 4">
        <g transform="translate(-3.2203389830508433,-3.2203389830508473) scale(3.4350282485875705)" vector-effect="non-scaling-stroke" stroke-width="2.62" stroke-linecap="round" stroke-linejoin="round" stroke-opacity="1.0">
          <ellipse cx="12" cy="5" rx="9" ry="3" vector-effect="non-scaling-stroke" fill="none" stroke="#f1f5f9"/>
          <path d="M3 5V19A9 3 0 0 0 21 19V5" vector-effect="non-scaling-stroke" fill="none" stroke="#f1f5f9"/>
          <path d="M3 12A9 3 0 0 0 21 12" vector-effect="non-scaling-stroke" fill="none" stroke="#f1f5f9"/>
        </g>
      </g>
    </g>
    <g transform="translate(1425.0, 750.0)">
      <rect id="ITEM_4_BG" x="-375" y="-120" width="750" height="240" rx="22" fill="var(--accent-2)" stroke="var(--accent-4)" stroke-width="2" fill-opacity="1.0"/>
      <circle cx="-240" cy="0" r="50" fill="var(--accent-1)" opacity="0.15"/>
      <g transform="translate(-90.0, 0.0)">
        <text id="ITEM_4_HEAD" text-anchor="start" font-weight="bold" font-size="36" fill="var(--primary-text)" x="-6.0" y="-84.0" data-bg-id="ITEM_4_BG" fill-opacity="1.0" style="font-size: 30px; font-family: Inter, Segoe UI, Kalam, Roboto, Helvetica, Arial, sans-serif; font-weight: 700; letter-spacing:-0.4px;" data-final-font-size="30">
          <tspan x="-6.0" dy="33.25px">Paper-backed Material</tspan>
        </text>
        <rect id="ITEM_4_HEAD_FRAME" x="-6" y="-84" width="390" height="50" fill="none"/>
        <text id="ITEM_4_BODY" text-anchor="start" font-size="24" fill="var(--primary-text)" x="-8.0" y="-28.0" data-bg-id="ITEM_4_BG" style="font-size: 26px; font-family: Inter, Segoe UI, Kalam, Roboto, Helvetica, Arial, sans-serif; font-weight: 400;" data-final-font-size="26">
          <tspan x="-8.0" dy="36.84px">Reflective surfaces attached</tspan>
          <tspan x="-8.0" dy="29.90px">to paper backing</tspan>
        </text>
        <rect id="ITEM_4_BODY_FRAME" x="-8" y="-28" width="460" height="140" fill="none"/>
      </g>
      <circle id="ITEM_4_PAD" cx="-245" cy="0.0" r="48" fill="var(--icon-pad-bg)" stroke="var(--primary-text)" opacity="0.9" fill-opacity="0.9" stroke-width="2"/>
      <circle id="ITEM_4_PAD_INNER" cx="-245" cy="0.0" r="37.44" fill="var(--accent-2)" fill-opacity="0.22"/>
      <circle cx="-245" cy="0.0" r="38" fill="none" stroke="var(--accent-4)" stroke-width="3" stroke-dasharray="6 4"/>
      <g id="ITEM_4_ICON" transform="translate(-283, -38)" data-icon-size="76" stroke-dasharray="6 4">
        <g transform="translate(-7.037037037037036,-7.037037037037036) scale(3.753086419753086)" vector-effect="non-scaling-stroke" stroke-width="2.62" stroke-linecap="round" stroke-linejoin="round" stroke-opacity="1.0">
          <rect width="18" height="18" x="3" y="3" rx="2" ry="2" vector-effect="non-scaling-stroke" fill="none" stroke="#f1f5f9"/>
          <line x1="3" x2="21" y1="9" y2="9" vector-effect="non-scaling-stroke" fill="none" stroke="#f1f5f9"/>
          <line x1="3" x2="21" y1="15" y2="15" vector-effect="non-scaling-stroke" fill="none" stroke="#f1f5f9"/>
          <line x1="9" x2="9" y1="9" y2="21" vector-effect="non-scaling-stroke" fill="none" stroke="#f1f5f9"/>
          <line x1="15" x2="15" y1="9" y2="21" vector-effect="non-scaling-stroke" fill="none" stroke="#f1f5f9"/>
        </g>
      </g>
    </g>
  </g>
</svg>
