<?xml version='1.0' encoding='utf-8'?>
<svg xmlns="http://www.w3.org/2000/svg" width="1920" height="1080" viewBox="0 0 1920 1080" data-theme="light">
  <style>
        @font-face {
            font-family: 'Inter';
            src: url('assets/fonts/Inter-Regular.ttf') format('truetype');
            font-weight: 400;
            font-style: normal;
            font-display: swap;
        }
        @font-face {
            font-family: 'Inter';
            src: url('assets/fonts/Inter-Bold.ttf') format('truetype');
            font-weight: 600;
            font-style: normal;
            font-display: swap;
        }
        @font-face {
            font-family: 'Inter';
            src: url('assets/fonts/Inter-Bold.ttf') format('truetype');
            font-weight: 800;
            font-style: normal;
            font-display: swap;
        }
        
:root {
    --background: #f8fafc;
    --panel: #ffffff;
    --primary-text: #0f172a;
    --muted-text: #64748b;
    --inverse-text: #ffffff;
    --border: #e2e8f0;
    --shadow-color: #000000;
    --icon-pad-bg: #1e293b;
    --art-glow: #0891b2;
    --art-glow-opacity: 0.10;
    --art-sheen: #ffffff;
    --art-sheen-opacity: 0.34;
    --art-shadow: #0f172a;
    --art-shadow-opacity: 0.14;
    --art-muted-line: #94a3b8;
    --art-panel-tint: #f1f5f9;
    --font-family: 'Inter', 'Segoe UI', 'Kalam', Roboto, Helvetica, Arial, sans-serif;
    --radius-xl: 16px;
    --font-family-headline: 'Inter', 'Segoe UI', 'Kalam', Roboto, Helvetica, Arial, sans-serif;
    --font-family-body: 'Inter', 'Segoe UI', 'Kalam', Roboto, Helvetica, Arial, sans-serif;
    --font-heading: 'Inter', 'Segoe UI', 'Kalam', Roboto, Helvetica, Arial, sans-serif;
    --font-body: 'Inter', 'Segoe UI', 'Kalam', Roboto, Helvetica, Arial, sans-serif;
    --font-size-h1: 56px;
    --font-size-h2: 40px;
    --font-size-h3: 28px;
    --font-size-body: 24px;
    --font-size-caption: 18px;
    --secondary-text: var(--muted-text);
    --panel-border: var(--border);
    --font-weight-normal: 400;
    --font-weight-medium: 500;
    --font-weight-semibold: 600;
    --font-weight-bold: 700;
    --spacing-gutter-pct: 0.07;
    --spacing-top-pct: 0.15;
    --spacing-bottom-pct: 0.07;
    --spacing-title-y-pct: 0.055;
    --accent-1: #0891b2;
    --accent-2: #db2777;
    --accent-3: #ca8a04;
    --accent-4: #65a30d;
    --accent-5: #ea580c;
    --accent-6: #9333ea;
}
:root[data-theme="dark"] {
    --background: #0f172a;
    --panel: #1e293b;
    --primary-text: #f1f5f9;
    --muted-text: #94a3b8;
    --inverse-text: #0f172a;
    --border: #334155;
    --shadow-color: #000000;
    --icon-pad-bg: #1e293b;
    --art-glow: #7dd3fc;
    --art-glow-opacity: 0.18;
    --art-sheen: #ffffff;
    --art-sheen-opacity: 0.18;
    --art-shadow: #000000;
    --art-shadow-opacity: 0.28;
    --art-muted-line: #64748b;
    --art-panel-tint: #1e293b;
    --accent-1: #22d3ee;
    --accent-2: #f472b6;
    --accent-3: #facc15;
    --accent-4: #a3e635;
    --accent-5: #fb923c;
    --accent-6: #c084fc;
}
:root[data-theme="light"] {
    --background: #f8fafc;
    --panel: #ffffff;
    --primary-text: #0f172a;
    --muted-text: #64748b;
    --inverse-text: #ffffff;
    --border: #e2e8f0;
    --shadow-color: #000000;
    --icon-pad-bg: #1e293b;
    --art-glow: #0891b2;
    --art-glow-opacity: 0.10;
    --art-sheen: #ffffff;
    --art-sheen-opacity: 0.34;
    --art-shadow: #0f172a;
    --art-shadow-opacity: 0.14;
    --art-muted-line: #94a3b8;
    --art-panel-tint: #f1f5f9;
    --accent-1: #0891b2;
    --accent-2: #db2777;
    --accent-3: #ca8a04;
    --accent-4: #65a30d;
    --accent-5: #ea580c;
    --accent-6: #9333ea;
}</style>
  <rect x="0" y="0" width="1.92E+3" height="1.08E+3" fill="#252a34" stroke="none" id="programmatic_background"/>
  <line id="HEADER_DECOR" x1="960.0" x2="1080.0" y1="123.0" y2="123.0" stroke="var(--accent-1)" stroke-width="6" stroke-linecap="round"/>
  <defs>
    <pattern id="svg8eed21d3-napkin-hatch" patternUnits="userSpaceOnUse" width="12" height="12">
      <path d="M -3 12 L 12 -3 M 0 15 L 15 0" fill="none" stroke="var(--primary-text)" stroke-width="1" stroke-opacity="0.05"/>
    </pattern>
    <filter id="svg8eed21d3-shadow" x="-30%" y="-30%" width="160%" height="160%">
      <feDropShadow dx="0" dy="3" stdDeviation="6" flood-color="#000000" flood-opacity="0.10"/>
      <feDropShadow dx="0" dy="8" stdDeviation="12" flood-color="#000000" flood-opacity="0.16"/>
    </filter>
    <radialGradient id="svg8eed21d3-universal-edge-vignette" cx="50%" cy="50%" r="72%">
      <stop offset="0%" stop-color="var(--background)" stop-opacity="0"/>
      <stop offset="72%" stop-color="var(--background)" stop-opacity="0.12"/>
      <stop offset="100%" stop-color="var(--primary-text)" stop-opacity="0.08"/>
    </radialGradient>
    <linearGradient id="svg8eed21d3-universal-surface-sheen" x1="0%" y1="0%" x2="100%" y2="100%">
      <stop offset="0%" stop-color="var(--art-sheen)" stop-opacity="var(--art-sheen-opacity)"/>
      <stop offset="46%" stop-color="var(--art-sheen)" stop-opacity="0.035"/>
      <stop offset="100%" stop-color="var(--art-panel-tint)" stop-opacity="0.14"/>
    </linearGradient>
    <radialGradient id="svg8eed21d3-universal-icon-aura" cx="50%" cy="42%" r="64%">
      <stop offset="0%" stop-color="var(--art-glow)" stop-opacity="var(--art-glow-opacity)"/>
      <stop offset="100%" stop-color="var(--background)" stop-opacity="0"/>
    </radialGradient>
    <filter id="svg8eed21d3-text-glow" x="-20%" y="-20%" width="140%" height="140%">
      <feDropShadow dx="0" dy="0" stdDeviation="2" flood-color="#000000" flood-opacity="0.4"/>
    </filter>
    <marker id="svg8eed21d3-arrowhead" markerWidth="10" markerHeight="7" refX="9" refY="3.5" orient="auto" markerUnits="strokeWidth">
      <polygon points="0 0, 10 3.5, 0 7" fill="var(--muted-text)" opacity="0.6"/>
    </marker>
  </defs>
  <rect width="100%" height="100%" fill="var(--background)" id="CANVAS_BG"/>
  <rect width="100%" height="100%" fill="url(#svg8eed21d3-napkin-hatch)"/>
  <rect id="UNIVERSAL_EDGE_VIGNETTE" width="100%" height="100%" fill="url(#svg8eed21d3-universal-edge-vignette)" opacity="0.62"/>
  <text id="TITLE" x="960.0" y="59" text-anchor="middle" font-size="58" font-weight="800" fill="#0f172a" style="font-size: 60px; font-family: Inter, Segoe UI, Kalam, Roboto, Helvetica, Arial, sans-serif; font-weight: 700; letter-spacing:-1.2px;" data-final-font-size="60">
    <tspan x="960.0" dy="68.00px">Roswell and Project Mogul Time line</tspan>
  </text>
  <rect id="TITLE_FRAME" x="134" y="57" width="1652" height="98" fill="none"/>
  <rect x="140" y="150" width="1640" height="850" rx="40" fill="var(--panel)" fill-opacity="0.24" stroke="var(--muted-text)" stroke-width="2.4" opacity="0.96"/>
  <line x1="960" y1="220" x2="960" y2="940" stroke="var(--muted-text)" stroke-width="14" stroke-linecap="round" opacity="0.18"/>
  <line x1="960" y1="220" x2="960" y2="940" stroke="var(--border)" stroke-width="4" stroke-linecap="round" opacity="0.88"/>
  <g id="DIAGRAM_MAIN">
    <g filter="url(#svg8eed21d3-shadow)">
      <line x1="934" y1="255.0" x2="604.0" y2="255.0" stroke="var(--accent-1)" stroke-width="3.5" opacity="0.84"/>
      <circle cx="960" cy="255.0" r="20" fill="var(--background)" stroke="var(--accent-1)" stroke-width="3.2"/>
      <text x="960" y="261.0" text-anchor="middle" font-size="14" font-weight="800" fill="var(--primary-text)">1</text>
      <rect id="ITEM_1_BG" x="170" y="177.0" width="470" height="156" rx="22" fill="var(--panel)" fill-opacity="0.97" stroke="var(--accent-1)" stroke-width="3.2"/>
      <rect x="170" y="177.0" width="470" height="16" rx="8" fill="var(--accent-1)" fill-opacity="0.55"/>
      <circle id="ITEM_1_PAD" cx="568.0" cy="255.0" r="40" fill="var(--icon-pad-bg)" opacity="0.95" fill-opacity="0.9" stroke-width="2" stroke="var(--primary-text)"/>
      <circle id="ITEM_1_PAD_INNER" cx="568.0" cy="255.0" r="31.20" fill="var(--accent-5)" fill-opacity="0.22"/>
      <circle cx="568.0" cy="255.0" r="32" fill="none" stroke="var(--accent-1)" stroke-width="3" stroke-dasharray="6 4"/>
      <g id="ITEM_1_ICON" transform="translate(538.0, 225.0)" data-icon-size="60" stroke-dasharray="6 4">
        <g transform="translate(-2.4682926829268332,-3.2292682926829297) scale(2.7056910569105694)" vector-effect="non-scaling-stroke" stroke-width="2.43" stroke-linecap="round" stroke-linejoin="round" stroke-opacity="1.0">
          <path d="M4 9.5C4 14.0714 9.71429 17.5 9.71429 17.5H14.2857C14.2857 17.5 20 14.0714 20 9.5C20 4.92857 16.4183 1.5 12 1.5C7.58172 1.5 4 4.92857 4 9.5Z" stroke="#f1f5f9" vector-effect="non-scaling-stroke" fill="none"/>
          <path d="M8.99999 2C5.99996 8 10 17.5 10 17.5" stroke="#f1f5f9" vector-effect="non-scaling-stroke" fill="none"/>
          <path d="M14.8843 2C17.8843 8 13.8843 17.5 13.8843 17.5" stroke="#f1f5f9" vector-effect="non-scaling-stroke" fill="none"/>
          <path d="M13.4 23H10.6C10.2686 23 10 22.7314 10 22.4V20.6C10 20.2686 10.2686 20 10.6 20H13.4C13.7314 20 14 20.2686 14 20.6V22.4C14 22.7314 13.7314 23 13.4 23Z" stroke="#f1f5f9" vector-effect="non-scaling-stroke" fill="none"/>
        </g>
      </g>
      <text id="ITEM_1_HEAD" x="346.0" y="195.0" text-anchor="middle" font-weight="800" font-size="24" fill="var(--primary-text)" data-bg-id="ITEM_1_BG" fill-opacity="1.0" style="font-size: 30px; font-family: Inter, Segoe UI, Kalam, Roboto, Helvetica, Arial, sans-serif; font-weight: 700; letter-spacing:-0.4px;" data-final-font-size="30">
        <tspan x="346.0" dy="29.33px">Launch</tspan>
      </text>
      <rect id="ITEM_1_HEAD_FRAME" x="206.0" y="195.0" width="280" height="34" fill="none"/>
      <text id="ITEM_1_BODY" x="362.0" y="235.0" text-anchor="middle" font-size="18" fill="var(--primary-text)" data-bg-id="ITEM_1_BG" style="font-size: 26px; font-family: Inter, Segoe UI, Kalam, Roboto, Helvetica, Arial, sans-serif; font-weight: 400;" data-final-font-size="26">
        <tspan x="362.0" dy="26.20px">Mogul balloon trains fly</tspan>
        <tspan x="362.0" dy="29.90px">to detect Soviet tests</tspan>
      </text>
      <rect id="ITEM_1_BODY_FRAME" x="202.0" y="235.0" width="320" height="70" fill="none"/>
    </g>
    <g filter="url(#svg8eed21d3-shadow)">
      <line x1="986" y1="417.5" x2="1316.0" y2="417.5" stroke="var(--accent-2)" stroke-width="3.5" opacity="0.84"/>
      <circle cx="960" cy="417.5" r="20" fill="var(--background)" stroke="var(--accent-2)" stroke-width="3.2"/>
      <text x="960" y="423.5" text-anchor="middle" font-size="14" font-weight="800" fill="var(--primary-text)">2</text>
      <rect id="ITEM_2_BG" x="1280" y="339.5" width="470" height="156" rx="22" fill="var(--panel)" fill-opacity="0.97" stroke="var(--accent-2)" stroke-width="3.2"/>
      <rect x="1280" y="339.5" width="470" height="16" rx="8" fill="var(--accent-2)" fill-opacity="0.55"/>
      <circle id="ITEM_2_PAD" cx="1352.0" cy="417.5" r="40" fill="var(--icon-pad-bg)" opacity="0.95" fill-opacity="0.9" stroke-width="2" stroke="var(--primary-text)"/>
      <circle id="ITEM_2_PAD_INNER" cx="1352.0" cy="417.5" r="31.20" fill="var(--accent-6)" fill-opacity="0.22"/>
      <circle cx="1352.0" cy="417.5" r="32" fill="none" stroke="var(--accent-2)" stroke-width="3" stroke-dasharray="6 4"/>
      <g id="ITEM_2_ICON" transform="translate(1322.0, 387.5)" data-icon-size="60" stroke-dasharray="6 4">
        <g transform="translate(-3.844067796610173,-3.8440677966101733) scale(2.820338983050848)" vector-effect="non-scaling-stroke" stroke-width="2.43" stroke-linecap="round" stroke-linejoin="round" stroke-opacity="1.0">
          <path d="M4 3 2 5v15c0 .6.4 1 1 1h2c.6 0 1-.4 1-1V5Z" vector-effect="non-scaling-stroke" fill="none" stroke="#f1f5f9"/>
          <path d="M6 8h4" vector-effect="non-scaling-stroke" fill="none" stroke="#f1f5f9"/>
          <path d="M6 18h4" vector-effect="non-scaling-stroke" fill="none" stroke="#f1f5f9"/>
          <path d="m12 3-2 2v15c0 .6.4 1 1 1h2c.6 0 1-.4 1-1V5Z" vector-effect="non-scaling-stroke" fill="none" stroke="#f1f5f9"/>
          <path d="M14 8h4" vector-effect="non-scaling-stroke" fill="none" stroke="#f1f5f9"/>
          <path d="M14 18h4" vector-effect="non-scaling-stroke" fill="none" stroke="#f1f5f9"/>
          <path d="m20 3-2 2v15c0 .6.4 1 1 1h2c.6 0 1-.4 1-1V5Z" vector-effect="non-scaling-stroke" fill="none" stroke="#f1f5f9"/>
        </g>
      </g>
      <text id="ITEM_2_HEAD" x="1570.0" y="357.5" text-anchor="middle" font-weight="800" font-size="24" fill="var(--accent-6)" data-bg-id="ITEM_2_BG" fill-opacity="1.0" style="font-size: 30px; font-family: Inter, Segoe UI, Kalam, Roboto, Helvetica, Arial, sans-serif; font-weight: 700; letter-spacing:-0.4px;" data-final-font-size="30">
        <tspan x="1570.0" dy="29.33px">Crash</tspan>
      </text>
      <rect id="ITEM_2_HEAD_FRAME" x="1430.0" y="357.5" width="280" height="34" fill="none"/>
      <text id="ITEM_2_BODY" x="1580.0" y="397.5" text-anchor="middle" font-size="18" fill="var(--primary-text)" data-bg-id="ITEM_2_BG" style="font-size: 25px; font-family: Inter, Segoe UI, Kalam, Roboto, Helvetica, Arial, sans-serif; font-weight: 400;" data-final-font-size="25">
        <tspan x="1580.0" dy="20.11px">Debris is recovered</tspan>
        <tspan x="1580.0" dy="28.75px">by local rancher</tspan>
        <tspan x="1580.0" dy="28.75px">in New Mexico</tspan>
      </text>
      <rect id="ITEM_2_BODY_FRAME" x="1420.0" y="397.5" width="320" height="70" fill="none"/>
    </g>
    <g filter="url(#svg8eed21d3-shadow)">
      <line x1="934" y1="580.0" x2="604.0" y2="580.0" stroke="var(--accent-3)" stroke-width="3.5" opacity="0.84"/>
      <circle cx="960" cy="580.0" r="20" fill="var(--background)" stroke="var(--accent-3)" stroke-width="3.2"/>
      <text x="960" y="586.0" text-anchor="middle" font-size="14" font-weight="800" fill="var(--primary-text)">3</text>
      <rect id="ITEM_3_BG" x="170" y="502.0" width="470" height="156" rx="22" fill="var(--panel)" fill-opacity="0.97" stroke="var(--accent-3)" stroke-width="3.2"/>
      <rect x="170" y="502.0" width="470" height="16" rx="8" fill="var(--accent-3)" fill-opacity="0.55"/>
      <circle id="ITEM_3_PAD" cx="568.0" cy="580.0" r="40" fill="var(--icon-pad-bg)" opacity="0.95" fill-opacity="0.9" stroke-width="2" stroke="var(--primary-text)"/>
      <circle id="ITEM_3_PAD_INNER" cx="568.0" cy="580.0" r="31.20" fill="var(--accent-1)" fill-opacity="0.22"/>
      <circle cx="568.0" cy="580.0" r="32" fill="none" stroke="var(--accent-3)" stroke-width="3" stroke-dasharray="6 4"/>
      <g id="ITEM_3_ICON" transform="translate(538.0, 550.0)" data-icon-size="60" stroke-dasharray="6 4">
        <g transform="translate(-5.65714285714286,-5.935714285714285) scale(2.2285714285714286)">
          <path d="M4.71839 18.0233C5.11525 17.458 5.8952 17.3215 6.46045 17.7184L18.5318 26.1936L17.0946 28.2406L5.02328 19.7653C4.45803 19.3685 4.32152 18.5885 4.71839 18.0233Z" fill="#5092FF"/>
          <path d="M18.5013 2.80347C18.8302 2.3598 19.4615 2.25982 19.9114 2.58017L21.5841 3.77124C22.034 4.09158 22.1321 4.71094 21.8032 5.15461L13.1102 16.8809C12.4436 17.7801 11.1641 17.9827 10.2523 17.3335C9.34053 16.6842 9.14176 15.429 9.80835 14.5298L18.5013 2.80347Z" fill="#636363"/>
          <path d="M18.0472 3.66594C16.8384 3.31432 15.3804 3.86071 14.5971 4.91739L11.7749 8.7243L11.9999 10.0001L10.6024 10.306L10.3989 10.5805C9.07399 12.3677 9.47824 14.8692 11.3018 16.1677C13.1254 17.4662 15.6778 17.07 17.0027 15.2828L17.1623 15.0675L16.9999 13.5001H18.3242L18.4883 13.2787C21.992 13.9302 23.8684 16.851 23.963 19.8545C24.0149 21.5041 23.5209 23.1307 22.4806 24.3899C21.4537 25.6329 19.8112 26.6185 17.3793 26.8486C16.5451 26.9276 15.9304 27.6956 16.0062 28.564C16.082 29.4325 16.8197 30.0725 17.6539 29.9935C20.7829 29.6974 23.1847 28.3804 24.7802 26.4491C26.3624 24.5339 27.069 22.1145 26.9946 19.751C26.8719 15.8564 24.6058 11.9837 20.5048 10.5586L21.2008 9.61967C21.9842 8.56299 22.0639 7.03517 21.3491 6.01708L18.0472 3.66594Z" fill="#BEBEBE"/>
          <path d="M2 29.2C2 27.4327 3.43269 26 5.2 26H26.8C28.5673 26 30 27.4327 30 29.2C30 29.6418 29.6418 30 29.2 30H2.8C2.35817 30 2 29.6418 2 29.2Z" fill="#9B9B9B"/>
          <path d="M11.7757 8.70947L18.3343 13.4746L17.1588 15.0927L10.6001 10.3275L11.7757 8.70947Z" fill="#D3D3D3"/>
        </g>
      </g>
      <text id="ITEM_3_HEAD" x="346.0" y="520.0" text-anchor="middle" font-weight="800" font-size="24" fill="var(--primary-text)" data-bg-id="ITEM_3_BG" fill-opacity="1.0" style="font-size: 30px; font-family: Inter, Segoe UI, Kalam, Roboto, Helvetica, Arial, sans-serif; font-weight: 700; letter-spacing:-0.4px;" data-final-font-size="30">
        <tspan x="346.0" dy="29.33px">1990s Research</tspan>
      </text>
      <rect id="ITEM_3_HEAD_FRAME" x="206.0" y="520.0" width="280" height="34" fill="none"/>
      <text id="ITEM_3_BODY" x="362.0" y="560.0" text-anchor="middle" font-size="18" fill="var(--primary-text)" data-bg-id="ITEM_3_BG" style="font-size: 25px; font-family: Inter, Segoe UI, Kalam, Roboto, Helvetica, Arial, sans-serif; font-weight: 400;" data-final-font-size="25">
        <tspan x="362.0" dy="20.11px">Air Force investigators</tspan>
        <tspan x="362.0" dy="28.75px">link debris to</tspan>
        <tspan x="362.0" dy="28.75px">Mogul flights</tspan>
      </text>
      <rect id="ITEM_3_BODY_FRAME" x="202.0" y="560.0" width="320" height="70" fill="none"/>
    </g>
    <g filter="url(#svg8eed21d3-shadow)">
      <line x1="986" y1="742.5" x2="1316.0" y2="742.5" stroke="var(--accent-4)" stroke-width="3.5" opacity="0.84"/>
      <circle cx="960" cy="742.5" r="20" fill="var(--background)" stroke="var(--accent-4)" stroke-width="3.2"/>
      <text x="960" y="748.5" text-anchor="middle" font-size="14" font-weight="800" fill="var(--primary-text)">4</text>
      <rect id="ITEM_4_BG" x="1280" y="664.5" width="470" height="156" rx="22" fill="var(--panel)" fill-opacity="0.97" stroke="var(--accent-4)" stroke-width="3.2"/>
      <rect x="1280" y="664.5" width="470" height="16" rx="8" fill="var(--accent-4)" fill-opacity="0.55"/>
      <circle id="ITEM_4_PAD" cx="1352.0" cy="742.5" r="40" fill="var(--icon-pad-bg)" opacity="0.95" fill-opacity="0.9" stroke-width="2" stroke="var(--primary-text)"/>
      <circle id="ITEM_4_PAD_INNER" cx="1352.0" cy="742.5" r="31.20" fill="var(--accent-2)" fill-opacity="0.22"/>
      <circle cx="1352.0" cy="742.5" r="32" fill="none" stroke="var(--accent-4)" stroke-width="3" stroke-dasharray="6 4"/>
      <g id="ITEM_4_ICON" transform="translate(1322.0, 712.5)" data-icon-size="60" stroke-dasharray="6 4">
        <g transform="translate(-3.844067796610176,-3.844067796610173) scale(2.820338983050848)" vector-effect="non-scaling-stroke" stroke-width="2.43" stroke-linecap="round" stroke-linejoin="round" stroke-opacity="1.0">
          <path d="M20 13c0 5-3.5 7.5-7.66 8.95a1 1 0 0 1-.67-.01C7.5 20.5 4 18 4 13V6a1 1 0 0 1 1-1c2 0 4.5-1.2 6.24-2.72a1.17 1.17 0 0 1 1.52 0C14.51 3.81 17 5 19 5a1 1 0 0 1 1 1z" vector-effect="non-scaling-stroke" fill="none" stroke="#f1f5f9"/>
          <path d="M12 8v4" vector-effect="non-scaling-stroke" fill="none" stroke="#f1f5f9"/>
          <path d="M12 16h.01" vector-effect="non-scaling-stroke" fill="none" stroke="#f1f5f9"/>
        </g>
      </g>
      <text id="ITEM_4_HEAD" x="1570.0" y="682.5" text-anchor="middle" font-weight="800" font-size="24" fill="var(--accent-2)" data-bg-id="ITEM_4_BG" fill-opacity="1.0" style="font-size: 30px; font-family: Inter, Segoe UI, Kalam, Roboto, Helvetica, Arial, sans-serif; font-weight: 700; letter-spacing:-0.4px;" data-final-font-size="30">
        <tspan x="1570.0" dy="29.33px">Modern Debate</tspan>
      </text>
      <rect id="ITEM_4_HEAD_FRAME" x="1430.0" y="682.5" width="280" height="34" fill="none"/>
      <text id="ITEM_4_BODY" x="1580.0" y="722.5" text-anchor="middle" font-size="18" fill="var(--primary-text)" data-bg-id="ITEM_4_BG" style="font-size: 25px; font-family: Inter, Segoe UI, Kalam, Roboto, Helvetica, Arial, sans-serif; font-weight: 400;" data-final-font-size="25">
        <tspan x="1580.0" dy="20.11px">Mogul remains the primary</tspan>
        <tspan x="1580.0" dy="28.75px">anchor for skeptical</tspan>
        <tspan x="1580.0" dy="28.75px">theories</tspan>
      </text>
      <rect id="ITEM_4_BODY_FRAME" x="1420.0" y="722.5" width="320" height="70" fill="none"/>
    </g>
    <g filter="url(#svg8eed21d3-shadow)">
      <line x1="934" y1="905.0" x2="604.0" y2="905.0" stroke="var(--accent-5)" stroke-width="3.5" opacity="0.84"/>
      <circle cx="960" cy="905.0" r="20" fill="var(--background)" stroke="var(--accent-5)" stroke-width="3.2"/>
      <text x="960" y="911.0" text-anchor="middle" font-size="14" font-weight="800" fill="var(--primary-text)">5</text>
      <rect id="ITEM_5_BG" x="170" y="827.0" width="470" height="156" rx="22" fill="var(--panel)" fill-opacity="0.97" stroke="var(--accent-5)" stroke-width="3.2"/>
      <rect x="170" y="827.0" width="470" height="16" rx="8" fill="var(--accent-5)" fill-opacity="0.55"/>
      <circle id="ITEM_5_PAD" cx="568.0" cy="905.0" r="40" fill="var(--icon-pad-bg)" opacity="0.95" fill-opacity="0.9" stroke-width="2" stroke="var(--primary-text)"/>
      <circle id="ITEM_5_PAD_INNER" cx="568.0" cy="905.0" r="31.20" fill="var(--accent-3)" fill-opacity="0.22"/>
      <circle cx="568.0" cy="905.0" r="32" fill="none" stroke="var(--accent-5)" stroke-width="3" stroke-dasharray="6 4"/>
      <g id="ITEM_5_ICON" transform="translate(538.0, 875.0)" data-icon-size="60" stroke-dasharray="6 4">
        <g transform="translate(-3.844067796610173,-3.844067796610173) scale(2.820338983050848)" vector-effect="non-scaling-stroke" stroke-width="2.43" stroke-linecap="round" stroke-linejoin="round" stroke-opacity="1.0">
          <path d="M12 6v6l4 2" vector-effect="non-scaling-stroke" fill="none" stroke="#f1f5f9"/>
          <circle cx="12" cy="12" r="10" vector-effect="non-scaling-stroke" fill="none" stroke="#f1f5f9"/>
        </g>
      </g>
      <text id="ITEM_5_HEAD" x="346.0" y="845.0" text-anchor="middle" font-weight="800" font-size="24" fill="var(--primary-text)" data-bg-id="ITEM_5_BG" fill-opacity="1.0" style="font-size: 30px; font-family: Inter, Segoe UI, Kalam, Roboto, Helvetica, Arial, sans-serif; font-weight: 700; letter-spacing:-0.4px;" data-final-font-size="30">
        <tspan x="346.0" dy="29.33px">Current Status</tspan>
      </text>
      <rect id="ITEM_5_HEAD_FRAME" x="206.0" y="845.0" width="280" height="34" fill="none"/>
      <text id="ITEM_5_BODY" x="362.0" y="885.0" text-anchor="middle" font-size="18" fill="var(--primary-text)" data-bg-id="ITEM_5_BG" style="font-size: 25px; font-family: Inter, Segoe UI, Kalam, Roboto, Helvetica, Arial, sans-serif; font-weight: 400;" data-final-font-size="25">
        <tspan x="362.0" dy="20.11px">Mystery persists regarding</tspan>
        <tspan x="362.0" dy="28.75px">later witness</tspan>
        <tspan x="362.0" dy="28.75px">recollections and folklore</tspan>
      </text>
      <rect id="ITEM_5_BODY_FRAME" x="202.0" y="885.0" width="320" height="70" fill="none"/>
    </g>
  </g>
</svg>
