<?xml version='1.0' encoding='utf-8'?>
<svg xmlns="http://www.w3.org/2000/svg" width="1920" height="1080" viewBox="0 0 1920 1080" data-theme="light">
  <style>
        @font-face {
            font-family: 'Inter';
            src: url('assets/fonts/Inter-Regular.ttf') format('truetype');
            font-weight: 400;
            font-style: normal;
            font-display: swap;
        }
        @font-face {
            font-family: 'Inter';
            src: url('assets/fonts/Inter-Bold.ttf') format('truetype');
            font-weight: 600;
            font-style: normal;
            font-display: swap;
        }
        @font-face {
            font-family: 'Inter';
            src: url('assets/fonts/Inter-Bold.ttf') format('truetype');
            font-weight: 800;
            font-style: normal;
            font-display: swap;
        }
        
:root {
    --background: #f8fafc;
    --panel: #ffffff;
    --primary-text: #0f172a;
    --muted-text: #64748b;
    --inverse-text: #ffffff;
    --border: #e2e8f0;
    --shadow-color: #000000;
    --icon-pad-bg: #1e293b;
    --art-glow: #0891b2;
    --art-glow-opacity: 0.10;
    --art-sheen: #ffffff;
    --art-sheen-opacity: 0.34;
    --art-shadow: #0f172a;
    --art-shadow-opacity: 0.14;
    --art-muted-line: #94a3b8;
    --art-panel-tint: #f1f5f9;
    --font-family: 'Inter', 'Segoe UI', 'Kalam', Roboto, Helvetica, Arial, sans-serif;
    --radius-xl: 16px;
    --font-family-headline: 'Inter', 'Segoe UI', 'Kalam', Roboto, Helvetica, Arial, sans-serif;
    --font-family-body: 'Inter', 'Segoe UI', 'Kalam', Roboto, Helvetica, Arial, sans-serif;
    --font-heading: 'Inter', 'Segoe UI', 'Kalam', Roboto, Helvetica, Arial, sans-serif;
    --font-body: 'Inter', 'Segoe UI', 'Kalam', Roboto, Helvetica, Arial, sans-serif;
    --font-size-h1: 56px;
    --font-size-h2: 40px;
    --font-size-h3: 28px;
    --font-size-body: 24px;
    --font-size-caption: 18px;
    --secondary-text: var(--muted-text);
    --panel-border: var(--border);
    --font-weight-normal: 400;
    --font-weight-medium: 500;
    --font-weight-semibold: 600;
    --font-weight-bold: 700;
    --spacing-gutter-pct: 0.07;
    --spacing-top-pct: 0.15;
    --spacing-bottom-pct: 0.07;
    --spacing-title-y-pct: 0.055;
    --accent-1: #0891b2;
    --accent-2: #db2777;
    --accent-3: #ca8a04;
    --accent-4: #65a30d;
    --accent-5: #ea580c;
    --accent-6: #9333ea;
}
:root[data-theme="dark"] {
    --background: #0f172a;
    --panel: #1e293b;
    --primary-text: #f1f5f9;
    --muted-text: #94a3b8;
    --inverse-text: #0f172a;
    --border: #334155;
    --shadow-color: #000000;
    --icon-pad-bg: #1e293b;
    --art-glow: #7dd3fc;
    --art-glow-opacity: 0.18;
    --art-sheen: #ffffff;
    --art-sheen-opacity: 0.18;
    --art-shadow: #000000;
    --art-shadow-opacity: 0.28;
    --art-muted-line: #64748b;
    --art-panel-tint: #1e293b;
    --accent-1: #22d3ee;
    --accent-2: #f472b6;
    --accent-3: #facc15;
    --accent-4: #a3e635;
    --accent-5: #fb923c;
    --accent-6: #c084fc;
}
:root[data-theme="light"] {
    --background: #f8fafc;
    --panel: #ffffff;
    --primary-text: #0f172a;
    --muted-text: #64748b;
    --inverse-text: #ffffff;
    --border: #e2e8f0;
    --shadow-color: #000000;
    --icon-pad-bg: #1e293b;
    --art-glow: #0891b2;
    --art-glow-opacity: 0.10;
    --art-sheen: #ffffff;
    --art-sheen-opacity: 0.34;
    --art-shadow: #0f172a;
    --art-shadow-opacity: 0.14;
    --art-muted-line: #94a3b8;
    --art-panel-tint: #f1f5f9;
    --accent-1: #0891b2;
    --accent-2: #db2777;
    --accent-3: #ca8a04;
    --accent-4: #65a30d;
    --accent-5: #ea580c;
    --accent-6: #9333ea;
}</style>
  <rect x="0" y="0" width="1.92E+3" height="1.08E+3" fill="#252a34" stroke="none" id="programmatic_background"/>
  <line id="HEADER_DECOR" x1="960.0" x2="1080.0" y1="135.0" y2="135.0" stroke="var(--accent-1)" stroke-width="6" stroke-linecap="round"/>
  <defs>
    <pattern id="svg943bd982-napkin-hatch" patternUnits="userSpaceOnUse" width="12" height="12">
      <path d="M -3 12 L 12 -3 M 0 15 L 15 0" fill="none" stroke="var(--primary-text)" stroke-width="1" stroke-opacity="0.05"/>
    </pattern>
    <filter id="svg943bd982-shadow" x="-30%" y="-30%" width="160%" height="160%">
      <feDropShadow dx="0" dy="2" stdDeviation="3" flood-color="#000000" flood-opacity="0.08"/>
      <feDropShadow dx="0" dy="6" stdDeviation="10" flood-color="#000000" flood-opacity="0.12"/>
    </filter>
    <marker id="svg943bd982-arrowhead" markerWidth="10" markerHeight="10" refX="9" refY="5" orient="auto">
      <path d="M 0 0 L 10 5 L 0 10 Z" fill="var(--accent-1)"/>
    </marker>
    <filter id="svg943bd982-text-glow" x="-20%" y="-20%" width="140%" height="140%">
      <feDropShadow dx="0" dy="0" stdDeviation="2" flood-color="#000000" flood-opacity="0.4"/>
    </filter>
    <radialGradient id="svg943bd982-universal-edge-vignette" cx="50%" cy="50%" r="72%">
      <stop offset="0%" stop-color="var(--background)" stop-opacity="0"/>
      <stop offset="72%" stop-color="var(--background)" stop-opacity="0.12"/>
      <stop offset="100%" stop-color="var(--primary-text)" stop-opacity="0.08"/>
    </radialGradient>
    <linearGradient id="svg943bd982-universal-surface-sheen" x1="0%" y1="0%" x2="100%" y2="100%">
      <stop offset="0%" stop-color="var(--art-sheen)" stop-opacity="var(--art-sheen-opacity)"/>
      <stop offset="46%" stop-color="var(--art-sheen)" stop-opacity="0.035"/>
      <stop offset="100%" stop-color="var(--art-panel-tint)" stop-opacity="0.14"/>
    </linearGradient>
    <radialGradient id="svg943bd982-universal-icon-aura" cx="50%" cy="42%" r="64%">
      <stop offset="0%" stop-color="var(--art-glow)" stop-opacity="var(--art-glow-opacity)"/>
      <stop offset="100%" stop-color="var(--background)" stop-opacity="0"/>
    </radialGradient>
  </defs>
  <rect width="100%" height="100%" fill="var(--background)" id="CANVAS_BG"/>
  <rect width="100%" height="100%" fill="url(#svg943bd982-napkin-hatch)"/>
  <rect id="UNIVERSAL_EDGE_VIGNETTE" width="100%" height="100%" fill="url(#svg943bd982-universal-edge-vignette)" opacity="0.62"/>
  <text id="TITLE" x="960.0" y="59" text-anchor="middle" font-weight="700" font-size="72" fill="#0f172a" style="font-size: 60px; font-family: Inter, Segoe UI, Kalam, Roboto, Helvetica, Arial, sans-serif; font-weight: 700; letter-spacing:-1.2px;" data-final-font-size="60">
    <tspan x="960.0" dy="68.00px">Factors Fueling Roswell Skepticism</tspan>
  </text>
  <rect id="TITLE_FRAME" x="134" y="59" width="1652" height="103" fill="none"/>
  <g id="DIAGRAM_SCALER" transform="translate(28.8, 27.0) scale(0.97)">
    <path d="M 960 360 L 960 450" stroke="var(--muted-text)" stroke-width="3.0" fill="none" opacity="0.52"/>
    <path d="M 210.0 450 L 1710.0 450" stroke="var(--muted-text)" stroke-width="3.0" fill="none" opacity="0.52"/>
    <path d="M 210.0 450 L 210.0 570" stroke="var(--muted-text)" stroke-width="3.0" fill="none" opacity="0.52"/>
    <path d="M 693.3 450 L 693.3 570" stroke="var(--muted-text)" stroke-width="3.0" fill="none" opacity="0.52"/>
    <path d="M 1226.7 450 L 1226.7 570" stroke="var(--muted-text)" stroke-width="3.0" fill="none" opacity="0.52"/>
    <path d="M 1710.0 450 L 1710.0 570" stroke="var(--muted-text)" stroke-width="3.0" fill="none" opacity="0.52"/>
    <g transform="translate(960.0, 270.0)">
      <rect id="ITEM_1_BG" x="-210" y="-90" width="420" height="180" rx="24" fill="var(--panel)" fill-opacity="0.86" stroke="var(--primary-text)" stroke-width="2.6"/>
      <circle id="ITEM_1_PAD" cx="0" cy="40" r="42" fill="var(--icon-pad-bg)" stroke="var(--primary-text)" opacity="0.9" fill-opacity="0.9" stroke-width="2"/>
      <circle id="ITEM_1_PAD_INNER" cx="0" cy="40" r="32.76" fill="var(--accent-5)" fill-opacity="0.22"/>
      <circle cx="0" cy="40" r="33.6" fill="none" stroke="var(--accent-1)" stroke-width="3" stroke-dasharray="6 4"/>
      <g id="ITEM_1_ICON" transform="translate(-36.0, 4.0)" data-icon-size="72">
        <g transform="translate(-5.142857142857143,-16.71428571428572) scale(2.5714285714285716)">
          <path d="M5.5 11C5.22386 11 5 11.2239 5 11.5V13H9V11.5C9 11.2239 8.77614 11 8.5 11H5.5Z" fill="#D3D3D3"/>
          <path d="M21.5 11C21.2239 11 21 11.2239 21 11.5V13H27V11.5C27 11.2239 26.7761 11 26.5 11H21.5Z" fill="#D3D3D3"/>
          <path d="M2 14C2 12.8954 2.89543 12 4 12H28C29.1046 12 30 12.8954 30 14V16.5L28 22L30 27.5V28C30 29.1046 29.1046 30 28 30H4C2.89543 30 2 29.1046 2 28V27.5L3.5 22L2 16.5V14Z" fill="#E6E6E6"/>
          <path d="M2 16.5C2 16.2239 2.22386 16 2.5 16H29.5C29.7761 16 30 16.2239 30 16.5V27.5C30 27.7761 29.7761 28 29.5 28H2.5C2.22386 28 2 27.7761 2 27.5V16.5Z" fill="#533566"/>
          <path d="M22 22C22 25.3137 19.3137 28 16 28C12.6863 28 10 25.3137 10 22C10 18.6863 12.6863 16 16 16C19.3137 16 22 18.6863 22 22Z" fill="#321B41"/>
          <path d="M16 27C18.7614 27 21 24.7614 21 22C21 19.2386 18.7614 17 16 17C13.2386 17 11 19.2386 11 22C11 24.7614 13.2386 27 16 27ZM16 29C12.134 29 9 25.866 9 22C9 18.134 12.134 15 16 15C19.866 15 23 18.134 23 22C23 25.866 19.866 29 16 29Z" fill="#9B9B9B"/>
          <path d="M18.5 22C18.5 23.3807 17.3807 24.5 16 24.5C14.6193 24.5 13.5 23.3807 13.5 22C13.5 20.6193 14.6193 19.5 16 19.5C17.3807 19.5 18.5 20.6193 18.5 22Z" fill="#433B6B"/>
          <path d="M19.0825 19.875C19.4967 20.5924 19.4448 21.3979 18.9665 21.674C18.4882 21.9501 17.7647 21.5924 17.3505 20.875C16.9363 20.1575 16.9882 19.3521 17.4665 19.0759C17.9448 18.7998 18.6683 19.1575 19.0825 19.875Z" fill="white"/>
        </g>
      </g>
      <text id="ITEM_1_HEAD" x="0.0" y="-80.0" text-anchor="middle" font-weight="bold" font-size="36" fill="var(--primary-text)" data-bg-id="ITEM_1_BG" fill-opacity="1.0" style="font-size: 30px; font-family: Inter, Segoe UI, Kalam, Roboto, Helvetica, Arial, sans-serif; font-weight: 700; letter-spacing:-0.4px;" data-final-font-size="30">
        <tspan x="0.0" dy="34.80px">Dramatic Contrast</tspan>
      </text>
      <rect id="ITEM_1_HEAD_FRAME" x="-180" y="-80" width="360" height="45" fill="none"/>
    </g>
    <g transform="translate(210.0, 720)">
      <rect id="ITEM_2_BG" x="-180.0" y="-150" width="360" height="390" rx="24" fill="var(--accent-6)" fill-opacity="1.0" stroke="var(--accent-1)" stroke-width="2.6"/>
      <text id="ITEM_2_HEAD" x="0.0" y="8.0" text-anchor="middle" font-weight="bold" font-size="30" fill="var(--inverse-text)" data-bg-id="ITEM_2_BG" fill-opacity="1.0" style="font-size: 30px; font-family: Inter, Segoe UI, Kalam, Roboto, Helvetica, Arial, sans-serif; font-weight: 700; letter-spacing:-0.4px;" data-final-font-size="30">
        <tspan x="0.0" dy="49.55px">Rapid Reversal</tspan>
      </text>
      <rect id="ITEM_2_HEAD_FRAME" x="-150.0" y="8" width="300" height="70" fill="none"/>
      <text id="ITEM_2_BODY" x="0.0" y="78.0" text-anchor="middle" font-size="23" fill="var(--inverse-text)" opacity="0.94" data-bg-id="ITEM_2_BG" style="font-size: 26px; font-family: Inter, Segoe UI, Kalam, Roboto, Helvetica, Arial, sans-serif; font-weight: 400;" data-final-font-size="26">
        <tspan x="0.0" dy="46.13px">Speed of correction suggested</tspan>
        <tspan x="0.0" dy="29.90px">a managed narrative flow</tspan>
      </text>
      <rect id="ITEM_2_BODY_FRAME" x="-174" y="78" width="348" height="158" fill="none"/>
      <circle id="ITEM_2_PAD" cx="0" cy="-45.0" r="62" fill="var(--icon-pad-bg)" stroke="var(--background)" stroke-width="2" stroke-opacity="0.65" opacity="0.94" fill-opacity="0.9"/>
      <circle id="ITEM_2_PAD_INNER" cx="0" cy="-45.0" r="48.36" fill="var(--accent-6)" fill-opacity="0.22"/>
      <circle cx="0" cy="-45.0" r="49.6" fill="none" stroke="var(--accent-1)" stroke-width="3" stroke-dasharray="6 4"/>
      <g id="ITEM_2_ICON" transform="translate(-48.0, -93.0)" data-icon-size="96" stroke-dasharray="6 4">
        <g transform="translate(-4.45830508474577,-4.45830508474577) scale(4.371525423728814)" vector-effect="non-scaling-stroke" stroke-width="2.86" stroke-linecap="round" stroke-linejoin="round" stroke-opacity="1.0">
          <path d="M12 6v6l4 2" vector-effect="non-scaling-stroke" fill="none" stroke="#f1f5f9"/>
          <circle cx="12" cy="12" r="10" vector-effect="non-scaling-stroke" fill="none" stroke="#f1f5f9"/>
        </g>
      </g>
    </g>
    <g transform="translate(693.3, 720)">
      <rect id="ITEM_3_BG" x="-180.0" y="-150" width="360" height="390" rx="24" fill="var(--accent-1)" fill-opacity="1.0" stroke="var(--accent-2)" stroke-width="2.6"/>
      <text id="ITEM_3_HEAD" x="0.0" y="8.0" text-anchor="middle" font-weight="bold" font-size="30" fill="var(--primary-text)" data-bg-id="ITEM_3_BG" fill-opacity="1.0" style="font-size: 30px; font-family: Inter, Segoe UI, Kalam, Roboto, Helvetica, Arial, sans-serif; font-weight: 700; letter-spacing:-0.4px;" data-final-font-size="30">
        <tspan x="0.0" dy="49.55px">Partial Truths</tspan>
      </text>
      <rect id="ITEM_3_HEAD_FRAME" x="-150.0" y="8" width="300" height="70" fill="none"/>
      <text id="ITEM_3_BODY" x="0.0" y="78.0" text-anchor="middle" font-size="23" fill="var(--primary-text)" opacity="0.94" data-bg-id="ITEM_3_BG" style="font-size: 26px; font-family: Inter, Segoe UI, Kalam, Roboto, Helvetica, Arial, sans-serif; font-weight: 400;" data-final-font-size="26">
        <tspan x="0.0" dy="46.13px">Admission of secrecy confirmed</tspan>
        <tspan x="0.0" dy="29.90px">the story was incomplete</tspan>
      </text>
      <rect id="ITEM_3_BODY_FRAME" x="-174" y="78" width="348" height="158" fill="none"/>
      <circle id="ITEM_3_PAD" cx="0" cy="-45.0" r="62" fill="var(--icon-pad-bg)" stroke="var(--background)" stroke-width="2" stroke-opacity="0.65" opacity="0.94" fill-opacity="0.9"/>
      <circle id="ITEM_3_PAD_INNER" cx="0" cy="-45.0" r="48.36" fill="var(--accent-1)" fill-opacity="0.22"/>
      <circle cx="0" cy="-45.0" r="49.6" fill="none" stroke="var(--accent-2)" stroke-width="3" stroke-dasharray="6 4"/>
      <g id="ITEM_3_ICON" transform="translate(-48.0, -93.0)" data-icon-size="96" stroke-dasharray="6 4">
        <g transform="translate(-4.493333333333332,-5.319999999999999) scale(0.20666666666666667)" vector-effect="non-scaling-stroke" fill="#f1f5f9" fill-opacity="1.0" stroke="none">
          <path fill="#f1f5f9" d="M283.406 26c-31.262-.124-67.23 14.174-87.406 24.813c-14.187 7.48-63.924 37.248-106.594 45.5c-55.05 10.643-86.878 63.63-54.594 90.156c53.676 44.1 55.533 101.236 15.844 143.186c-43.832 46.33 1.16 113.166 63.844 105.625s89.117.543 121.03 32.44c41.408 41.38 131.457 24.757 153.595-32.595c10.275-26.614 24.304-56.372 58.594-68.563c40.316-14.328 52.335-59.373 26.217-90.625c-19.376-23.183-21.61-47.184 4.875-95.468c21.756-39.664 4.657-83.827-55.937-80.44c-45.002 2.515-64.425-27.456-97.156-59.374C314.866 30.074 299.78 26.066 283.405 26zm-20.312 76.188c87.992 0 159.53 71.508 159.53 159.5c0 87.994-71.538 159.53-159.53 159.53s-159.53-71.536-159.53-159.53c0-87.995 71.538-159.5 159.53-159.5m0 18.687c-77.892 0-140.813 62.918-140.813 140.813s62.922 140.843 140.814 140.843c77.89 0 140.844-62.948 140.844-140.842c0-77.892-62.953-140.813-140.844-140.813zm-9.344 19.188h18.688v12.562l32.218 9.78l-32 9.72h-.78v97.47H253.75V172.53l-33.344-10.124l33.344-10.125zm-51.875 40.343c9.892-.023 20.71 2.28 32.313 7.156v20.594c-14.94-7.682-27.267-9.843-36.657-8.844c-11.21 1.194-18.696 6.513-23.468 14.125c-9.34 14.902-7.106 39.607 13.907 56.157h-25.657c-14.936-20.91-15.937-47.15-4.063-66.094c7.603-12.13 20.8-20.992 37.313-22.75c2.064-.22 4.16-.34 6.312-.344m122.438 0c2.153.005 4.28.124 6.343.344c16.513 1.758 29.71 10.62 37.313 22.75c11.872 18.944 10.872 45.183-4.064 66.094H338.22c21.01-16.55 23.245-41.255 13.905-56.156c-4.77-7.613-12.258-12.932-23.47-14.125c-9.69-1.032-22.498 1.294-38.092 9.593v-20.75c12.145-5.308 23.443-7.774 33.75-7.75m-71.438 16.875q.078.049.156.095l-.155.25v-.344zm-81.563 91h183.563v18.44h-34.28v17.81h34.28v18.69H171.312v-18.69h36.47v-17.81h-36.47zm55.157 18.44v17.81h27.28v-17.81zm45.968 0v17.81h29.468v-17.81h-29.47zm-9.157 50.03c7.64 0 13.845 6.204 13.845 13.844s-6.204 13.844-13.844 13.844s-13.842-6.204-13.842-13.844s6.203-13.844 13.843-13.844zM457 410.5c-7.208.234-14.82 2.62-21.5 7.688c-34.04 25.825-9.88 74.987 31.938 40.437c32.292-26.678 13.11-48.89-10.438-48.125" vector-effect="non-scaling-stroke" stroke="none"/>
        </g>
      </g>
    </g>
    <g transform="translate(1226.7, 720)">
      <rect id="ITEM_4_BG" x="-180.0" y="-150" width="360" height="390" rx="24" fill="var(--accent-2)" fill-opacity="1.0" stroke="var(--accent-3)" stroke-width="2.6"/>
      <text id="ITEM_4_HEAD" x="0.0" y="8.0" text-anchor="middle" font-weight="bold" font-size="30" fill="var(--inverse-text)" data-bg-id="ITEM_4_BG" fill-opacity="1.0" style="font-size: 30px; font-family: Inter, Segoe UI, Kalam, Roboto, Helvetica, Arial, sans-serif; font-weight: 700; letter-spacing:-0.4px;" data-final-font-size="30">
        <tspan x="0.0" dy="49.55px">Public Excitement</tspan>
      </text>
      <rect id="ITEM_4_HEAD_FRAME" x="-150.0" y="8" width="300" height="70" fill="none"/>
      <text id="ITEM_4_BODY" x="0.0" y="78.0" text-anchor="middle" font-size="23" fill="var(--inverse-text)" opacity="0.94" data-bg-id="ITEM_4_BG" style="font-size: 26px; font-family: Inter, Segoe UI, Kalam, Roboto, Helvetica, Arial, sans-serif; font-weight: 400;" data-final-font-size="26">
        <tspan x="0.0" dy="46.13px">Intense interest in flying</tspan>
        <tspan x="0.0" dy="29.90px">saucers during the 1940s</tspan>
      </text>
      <rect id="ITEM_4_BODY_FRAME" x="-174" y="78" width="348" height="158" fill="none"/>
      <circle id="ITEM_4_PAD" cx="0" cy="-45.0" r="62" fill="var(--icon-pad-bg)" stroke="var(--background)" stroke-width="2" stroke-opacity="0.65" opacity="0.94" fill-opacity="0.9"/>
      <circle id="ITEM_4_PAD_INNER" cx="0" cy="-45.0" r="48.36" fill="var(--accent-2)" fill-opacity="0.22"/>
      <circle cx="0" cy="-45.0" r="49.6" fill="none" stroke="var(--accent-3)" stroke-width="3" stroke-dasharray="6 4"/>
      <g id="ITEM_4_ICON" transform="translate(-48.0, -93.0)" data-icon-size="96" stroke-dasharray="6 4">
        <g transform="translate(-7.207433628318584,-9.347256637168146) scale(3.423716814159292)">
          <path d="M5 27.99C5 28.75 5.61 29.36 6.37 29.36C7.13 29.36 7.74 28.75 7.74 27.99V26.62H5V27.99ZM24.15 27.99C24.15 28.75 24.76 29.36 25.52 29.36C26.27 29.36 26.89 28.75 26.89 27.99V26.62H24.15V27.99Z" fill="#212121"/>
          <path d="M27 5C27 5.55228 26.5523 6 26 6C25.7251 6 25.4761 5.88908 25.2954 5.70956L7.9667 9.12058L7.77356 8.1394L25.0336 4.74189C25.1474 4.3147 25.537 4 26 4C26.5523 4 27 4.44772 27 5Z" fill="#9B9B9B"/>
          <path d="M6.84005 11.85C7.96671 11.85 8.88005 10.9367 8.88005 9.81002C8.88005 8.68336 7.96671 7.77002 6.84005 7.77002C5.71338 7.77002 4.80005 8.68336 4.80005 9.81002C4.80005 10.9367 5.71338 11.85 6.84005 11.85Z" fill="#D3D3D3"/>
          <path d="M27.38 9.81006H4.63C3.18 9.81006 2 10.9901 2 12.4401V24.6901C2 26.1401 3.18 27.3201 4.63 27.3201H27.38C28.83 27.3201 30.01 26.1401 30.01 24.6901V12.4301C30 10.9801 28.83 9.81006 27.38 9.81006Z" fill="#9B9B9B"/>
          <path d="M26.32 12.76H18.45C17.79 12.76 17.25 13.3 17.25 13.96V18.79C17.25 19.45 17.79 19.99 18.45 19.99H26.32C26.98 19.99 27.52 19.45 27.52 18.79V13.96C27.52 13.3 26.98 12.76 26.32 12.76Z" fill="#83CBFF"/>
          <path d="M19.88 15.83C19.44 15.83 19.09 16.19 19.09 16.62V19.98H20.68V16.62C20.67 16.19 20.32 15.83 19.88 15.83Z" fill="#F8312F"/>
          <path d="M14.83 14.12C15.2 14.12 15.51 13.82 15.51 13.44C15.51 13.07 15.21 12.76 14.83 12.76H5.18C4.81 12.76 4.5 13.06 4.5 13.44C4.5 13.81 4.8 14.12 5.18 14.12H14.83ZM15.51 15.96C15.51 16.34 15.2 16.64 14.83 16.64H5.18C4.8 16.64 4.5 16.33 4.5 15.96C4.5 15.58 4.81 15.28 5.18 15.28H14.83C15.21 15.27 15.51 15.58 15.51 15.96ZM14.83 19.15C15.2 19.15 15.51 18.85 15.51 18.47C15.51 18.1 15.21 17.79 14.83 17.79H5.18C4.81 17.79 4.5 18.09 4.5 18.47C4.5 18.84 4.8 19.15 5.18 19.15H14.83ZM15.51 20.9901C15.51 21.3701 15.2 21.6701 14.83 21.6701H5.18C4.8 21.6701 4.5 21.3601 4.5 20.9901C4.5 20.6101 4.81 20.3101 5.18 20.3101H14.83C15.21 20.3 15.51 20.6101 15.51 20.9901ZM15.51 23.5001C15.51 23.8801 15.2 24.1801 14.83 24.1801H5.18C4.8 24.1801 4.5 23.8701 4.5 23.5001C4.5 23.1201 4.81 22.8201 5.18 22.8201H14.83C15.21 22.8201 15.51 23.1301 15.51 23.5001Z" fill="#212121"/>
          <path d="M21.04 22.9199C21.04 23.6103 20.4804 24.1699 19.79 24.1699C19.0997 24.1699 18.54 23.6103 18.54 22.9199C18.54 22.2296 19.0997 21.6699 19.79 21.6699C20.4804 21.6699 21.04 22.2296 21.04 22.9199ZM26.6201 22.9199C26.6201 23.6103 26.0605 24.1699 25.3701 24.1699C24.6798 24.1699 24.1201 23.6103 24.1201 22.9199C24.1201 22.2296 24.6798 21.6699 25.3701 21.6699C26.0605 21.6699 26.6201 22.2296 26.6201 22.9199Z" fill="#F4F4F4"/>
        </g>
      </g>
    </g>
    <g transform="translate(1710.0, 720)">
      <rect id="ITEM_5_BG" x="-180.0" y="-150" width="360" height="390" rx="24" fill="var(--accent-3)" fill-opacity="1.0" stroke="var(--accent-4)" stroke-width="2.6"/>
      <text id="ITEM_5_HEAD" x="0.0" y="8.0" text-anchor="middle" font-weight="bold" font-size="30" fill="var(--primary-text)" data-bg-id="ITEM_5_BG" fill-opacity="1.0" style="font-size: 30px; font-family: Inter, Segoe UI, Kalam, Roboto, Helvetica, Arial, sans-serif; font-weight: 700; letter-spacing:-0.4px;" data-final-font-size="30">
        <tspan x="0.0" dy="49.55px">Information Gap</tspan>
      </text>
      <rect id="ITEM_5_HEAD_FRAME" x="-150.0" y="8" width="300" height="70" fill="none"/>
      <text id="ITEM_5_BODY" x="0.0" y="78.0" text-anchor="middle" font-size="23" fill="var(--primary-text)" opacity="0.94" data-bg-id="ITEM_5_BG" style="font-size: 26px; font-family: Inter, Segoe UI, Kalam, Roboto, Helvetica, Arial, sans-serif; font-weight: 400;" data-final-font-size="26">
        <tspan x="0.0" dy="46.13px">Lack of detailed explanation</tspan>
        <tspan x="0.0" dy="29.90px">during the initial correction</tspan>
      </text>
      <rect id="ITEM_5_BODY_FRAME" x="-174" y="78" width="348" height="158" fill="none"/>
      <circle id="ITEM_5_PAD" cx="0" cy="-45.0" r="62" fill="var(--icon-pad-bg)" stroke="var(--background)" stroke-width="2" stroke-opacity="0.65" opacity="0.94" fill-opacity="0.9"/>
      <circle id="ITEM_5_PAD_INNER" cx="0" cy="-45.0" r="48.36" fill="var(--accent-3)" fill-opacity="0.22"/>
      <circle cx="0" cy="-45.0" r="49.6" fill="none" stroke="var(--accent-4)" stroke-width="3" stroke-dasharray="6 4"/>
      <g id="ITEM_5_ICON" transform="translate(-48.0, -93.0)" data-icon-size="96" stroke-dasharray="6 4">
        <g transform="translate(-7.33081081081081,-11.68756756756757) scale(0.21783783783783783)" vector-effect="non-scaling-stroke" fill="#f1f5f9" fill-opacity="1.0" stroke="none">
          <path fill="#f1f5f9" d="M281.293 94.283a9 9 0 0 1-.23.203c-.027.023-.048.046-.073.07c.113-.103.143-.126.303-.273m.754.62c-.922-.026-1.59.26-1.79.333c-18.276 16.014-26.02 33.42-43.35 51.993c-17.25 18.485-43.688 36.204-96.677 51.225l-31.087 42.13a9 9 0 0 1-7.163 3.657l-50.75.45l-14.69-8.344l-2.622 119.744l14.603-8.426h57.28a9 9 0 0 1 6.934 3.264c13.526 16.35 20.025 32.04 37.946 39.838l200.556 61.878c12.478-.538 22.443-2.015 28.625-5.568c5.266-3.025 8.892-7.468 10.952-16.584c-5.457-2.305-23.53-9.945-47.185-19.853c-13.495-5.652-27.03-11.294-37.236-15.494c-5.103-2.1-9.382-3.842-12.37-5.027a161 161 0 0 0-3.397-1.317c-.208-.077-.253-.09-.367-.13c-.157.023-.3.105-1.897-.677c-.994-.486-4.692-10.586-4.692-10.588c0 0 5.642-6.027 6.47-6.234c2.54-.635 2.98-.25 3.483-.18c.2.028.253.05.388.074c.13.016.294.036.637.073c.89.095 2.327.236 4.183.41c3.713.345 9.13.827 15.67 1.397c13.082 1.14 30.68 2.633 48.37 4.112c17.69 1.477 35.475 2.942 48.945 4.03c6.734.544 12.392.992 16.406 1.3c2.006.155 3.606.275 4.702.352c.445.03.74.05 1 .065c7.954-.59 12.096-2.93 14.38-5.373c2.315-2.48 3.274-5.563 3.075-9.477c-.392-7.7-6.855-16.7-13.162-18.697l-125.047-16.39a9 9 0 0 1 .357-17.886s34.4-3.114 69.246-6.35c17.425-1.62 34.963-3.27 48.35-4.575c6.695-.654 12.355-1.22 16.42-1.652c2.03-.215 3.67-.397 4.798-.533c.516-.062 1.142-.195 1.516-.27c10.906-3.095 16.196-7.17 18.164-10.054c2.01-2.944 1.993-5.088.517-8.644c-2.946-7.1-15.285-15.783-23.27-16.322l-140.36-3.662a9 9 0 0 1-1.555-17.817s30.514-6.195 61.904-12.542c15.695-3.174 31.608-6.386 44.04-8.88c12.434-2.496 20.85-4.184 23.35-4.617c9.49-1.643 13.86-5.275 16.143-9.164c2.282-3.888 2.655-8.88.996-14.175c-2.902-9.267-11.46-17.814-23.172-18.067a26 26 0 0 0-5.204.422l-.19.03l-148.954 23.665c-7.51 10.38-14.5 15.897-23.953 22.977c-2.022 57.078-12.448 85.543-27.33 100.578c-15.283 15.436-34.4 14.424-40.335 15.908l-4.368-17.46c12.134-3.035 21.968-1.066 31.91-11.11s20.786-34.636 22.338-92.803a9 9 0 0 1 3.606-6.965c12.425-9.295 17.212-12.277 25.073-23.886l35.527-78.43c-1.064-7.994-5.013-11.687-9.64-13.893c-2.5-1.192-5.197-1.74-7.043-1.79z" vector-effect="non-scaling-stroke" stroke="none"/>
        </g>
      </g>
    </g>
  </g>
</svg>
