<?xml version='1.0' encoding='utf-8'?>
<svg xmlns="http://www.w3.org/2000/svg" width="1920" height="1080" viewBox="0 0 1920 1080" data-theme="light">
  <style>
        @font-face {
            font-family: 'Inter';
            src: url('assets/fonts/Inter-Regular.ttf') format('truetype');
            font-weight: 400;
            font-style: normal;
            font-display: swap;
        }
        @font-face {
            font-family: 'Inter';
            src: url('assets/fonts/Inter-Bold.ttf') format('truetype');
            font-weight: 600;
            font-style: normal;
            font-display: swap;
        }
        @font-face {
            font-family: 'Inter';
            src: url('assets/fonts/Inter-Bold.ttf') format('truetype');
            font-weight: 800;
            font-style: normal;
            font-display: swap;
        }
        
:root {
    --background: #f8fafc;
    --panel: #ffffff;
    --primary-text: #0f172a;
    --muted-text: #64748b;
    --inverse-text: #ffffff;
    --border: #e2e8f0;
    --shadow-color: #000000;
    --icon-pad-bg: #1e293b;
    --art-glow: #0891b2;
    --art-glow-opacity: 0.10;
    --art-sheen: #ffffff;
    --art-sheen-opacity: 0.34;
    --art-shadow: #0f172a;
    --art-shadow-opacity: 0.14;
    --art-muted-line: #94a3b8;
    --art-panel-tint: #f1f5f9;
    --font-family: 'Inter', 'Segoe UI', 'Kalam', Roboto, Helvetica, Arial, sans-serif;
    --radius-xl: 16px;
    --font-family-headline: 'Inter', 'Segoe UI', 'Kalam', Roboto, Helvetica, Arial, sans-serif;
    --font-family-body: 'Inter', 'Segoe UI', 'Kalam', Roboto, Helvetica, Arial, sans-serif;
    --font-heading: 'Inter', 'Segoe UI', 'Kalam', Roboto, Helvetica, Arial, sans-serif;
    --font-body: 'Inter', 'Segoe UI', 'Kalam', Roboto, Helvetica, Arial, sans-serif;
    --font-size-h1: 56px;
    --font-size-h2: 40px;
    --font-size-h3: 28px;
    --font-size-body: 24px;
    --font-size-caption: 18px;
    --secondary-text: var(--muted-text);
    --panel-border: var(--border);
    --font-weight-normal: 400;
    --font-weight-medium: 500;
    --font-weight-semibold: 600;
    --font-weight-bold: 700;
    --spacing-gutter-pct: 0.07;
    --spacing-top-pct: 0.15;
    --spacing-bottom-pct: 0.07;
    --spacing-title-y-pct: 0.055;
    --accent-1: #3b82f6;
    --accent-2: #22c55e;
    --accent-3: #f59e0b;
    --accent-4: #ec4899;
    --accent-5: #8b5cf6;
    --accent-6: #06b6d4;
}
:root[data-theme="dark"] {
    --background: #0f172a;
    --panel: #1e293b;
    --primary-text: #f1f5f9;
    --muted-text: #94a3b8;
    --inverse-text: #0f172a;
    --border: #334155;
    --shadow-color: #000000;
    --icon-pad-bg: #1e293b;
    --art-glow: #7dd3fc;
    --art-glow-opacity: 0.18;
    --art-sheen: #ffffff;
    --art-sheen-opacity: 0.18;
    --art-shadow: #000000;
    --art-shadow-opacity: 0.28;
    --art-muted-line: #64748b;
    --art-panel-tint: #1e293b;
    --accent-1: #93c5fd;
    --accent-2: #86efac;
    --accent-3: #fcd34d;
    --accent-4: #f9a8d4;
    --accent-5: #c4b5fd;
    --accent-6: #a5f3fc;
}
:root[data-theme="light"] {
    --background: #f8fafc;
    --panel: #ffffff;
    --primary-text: #0f172a;
    --muted-text: #64748b;
    --inverse-text: #ffffff;
    --border: #e2e8f0;
    --shadow-color: #000000;
    --icon-pad-bg: #1e293b;
    --art-glow: #0891b2;
    --art-glow-opacity: 0.10;
    --art-sheen: #ffffff;
    --art-sheen-opacity: 0.34;
    --art-shadow: #0f172a;
    --art-shadow-opacity: 0.14;
    --art-muted-line: #94a3b8;
    --art-panel-tint: #f1f5f9;
    --accent-1: #3b82f6;
    --accent-2: #22c55e;
    --accent-3: #f59e0b;
    --accent-4: #ec4899;
    --accent-5: #8b5cf6;
    --accent-6: #06b6d4;
}</style>
  <rect x="0" y="0" width="1.92E+3" height="1.08E+3" fill="#252a34" stroke="none" id="programmatic_background"/>
  <line id="HEADER_DECOR" x1="960.0" x2="1080.0" y1="135.0" y2="135.0" stroke="var(--accent-1)" stroke-width="6" stroke-linecap="round"/>
  <defs>
    <pattern id="svg94743804-napkin-hatch" patternUnits="userSpaceOnUse" width="12" height="12">
      <path d="M -3 12 L 12 -3 M 0 15 L 15 0" fill="none" stroke="var(--primary-text)" stroke-width="1" stroke-opacity="0.05"/>
    </pattern>
    <filter id="svg94743804-shadow" x="-30%" y="-30%" width="160%" height="160%">
      <feDropShadow dx="0" dy="2" stdDeviation="3" flood-color="#000000" flood-opacity="0.08"/>
      <feDropShadow dx="0" dy="6" stdDeviation="10" flood-color="#000000" flood-opacity="0.12"/>
    </filter>
    <filter id="svg94743804-beam-glow" x="-40%" y="-40%" width="180%" height="180%">
      <feDropShadow dx="0" dy="0" stdDeviation="8" flood-color="#000000" flood-opacity="0.12"/>
    </filter>
    <radialGradient id="svg94743804-universal-edge-vignette" cx="50%" cy="50%" r="72%">
      <stop offset="0%" stop-color="var(--background)" stop-opacity="0"/>
      <stop offset="72%" stop-color="var(--background)" stop-opacity="0.12"/>
      <stop offset="100%" stop-color="var(--primary-text)" stop-opacity="0.08"/>
    </radialGradient>
    <linearGradient id="svg94743804-universal-surface-sheen" x1="0%" y1="0%" x2="100%" y2="100%">
      <stop offset="0%" stop-color="var(--art-sheen)" stop-opacity="var(--art-sheen-opacity)"/>
      <stop offset="46%" stop-color="var(--art-sheen)" stop-opacity="0.035"/>
      <stop offset="100%" stop-color="var(--art-panel-tint)" stop-opacity="0.14"/>
    </linearGradient>
    <radialGradient id="svg94743804-universal-icon-aura" cx="50%" cy="42%" r="64%">
      <stop offset="0%" stop-color="var(--art-glow)" stop-opacity="var(--art-glow-opacity)"/>
      <stop offset="100%" stop-color="var(--background)" stop-opacity="0"/>
    </radialGradient>
    <linearGradient id="svg94743804-prism-glass-sheen" x1="0%" y1="0%" x2="100%" y2="100%">
      <stop offset="0%" stop-color="var(--inverse-text)" stop-opacity="0.20"/>
      <stop offset="100%" stop-color="var(--inverse-text)" stop-opacity="0"/>
    </linearGradient>
    <filter id="svg94743804-text-glow" x="-20%" y="-20%" width="140%" height="140%">
      <feDropShadow dx="0" dy="0" stdDeviation="2" flood-color="#000000" flood-opacity="0.4"/>
    </filter>
    <marker id="svg94743804-arrowhead" markerWidth="10" markerHeight="7" refX="9" refY="3.5" orient="auto" markerUnits="strokeWidth">
      <polygon points="0 0, 10 3.5, 0 7" fill="var(--muted-text)" opacity="0.6"/>
    </marker>
  </defs>
  <rect width="100%" height="100%" fill="var(--background)" id="CANVAS_BG"/>
  <rect width="100%" height="100%" fill="url(#svg94743804-napkin-hatch)"/>
  <rect id="UNIVERSAL_EDGE_VIGNETTE" width="100%" height="100%" fill="url(#svg94743804-universal-edge-vignette)" opacity="0.62"/>
  <text id="TITLE" x="960.0" y="59" text-anchor="middle" font-weight="800" font-size="56" fill="#0f172a" style="font-size: 60px; font-family: Inter, Segoe UI, Kalam, Roboto, Helvetica, Arial, sans-serif; font-weight: 700; letter-spacing:-1.2px;" data-final-font-size="60">
    <tspan x="960.0" dy="68.00px">The Flying Saucer McDonald's Features</tspan>
  </text>
  <rect id="TITLE_FRAME" x="134" y="59" width="1652" height="103" fill="none"/>
  <path d="M 0 540 L 598 540" stroke="var(--primary-text)" stroke-width="20" stroke-linecap="round" opacity="0.08"/>
  <path d="M 0 540 L 598 540" stroke="var(--primary-text)" stroke-width="10" stroke-linecap="round" opacity="0.45"/>
  <text x="200" y="500" font-weight="bold" font-size="32" fill="var(--muted-text)">INPUT</text>
  <ellipse id="PRISM_ART_SHADOW" cx="690" cy="718" rx="180" ry="38" fill="var(--primary-text)" opacity="0.055"/>
  <path d="M 600 690 L 600 390 L 840 540 Z" fill="var(--panel)" fill-opacity="0.72" stroke="var(--primary-text)" stroke-width="9" stroke-opacity="0.75"/>
  <path id="PRISM_ART_GLASS_SHEEN" d="M 622 426 L 622 654 L 792 540 Z" fill="url(#svg94743804-prism-glass-sheen)" opacity="0.88"/>
  <path d="M 600 540 L 756 540" fill="none" stroke="var(--primary-text)" stroke-width="3" stroke-opacity="0.28"/>
  <path d="M 600 390 L 688 540 L 600 690" fill="none" stroke="var(--primary-text)" stroke-width="3" stroke-opacity="0.18"/>
  <g>
    <line x1="840" y1="540" x2="1100" y2="293.75" stroke="var(--accent-1)" stroke-width="18" stroke-linecap="round" opacity="0.18" filter="url(#svg94743804-beam-glow)"/>
    <line x1="840" y1="540" x2="1100" y2="293.75" stroke="var(--accent-1)" stroke-width="4" stroke-linecap="round" opacity="0.72"/>
    <g transform="translate(1100, 293.75)">
      <path id="ITEM_1_BG" d="M 0 -60 L 610 -60 L 740 15 L 610 90 L 0 90 L 56 15 Z" fill="var(--panel)" fill-opacity="0.95" stroke="var(--accent-1)" stroke-width="3" filter="url(#svg94743804-shadow)"/>
      <rect id="ITEM_1_TEXT_BG" x="138" y="-42" width="520" height="114" rx="18" fill="var(--panel)" fill-opacity="0.9" stroke="var(--primary-text)" stroke-opacity="0.1" stroke-width="1.5"/>
      <rect x="150" y="-32" width="496" height="94" rx="14" fill="url(#svg94743804-universal-surface-sheen)" opacity="0.76"/>
      <circle id="ITEM_1_PAD" cx="82" cy="15" r="42" fill="var(--icon-pad-bg)" stroke="var(--primary-text)" opacity="0.94" fill-opacity="0.9" stroke-width="2"/>
      <circle id="ITEM_1_PAD_INNER" cx="82" cy="15" r="32.76" fill="var(--accent-1)" fill-opacity="0.22"/>
      <circle cx="82" cy="15" r="34" fill="none" stroke="var(--accent-1)" stroke-width="3" stroke-dasharray="6 4"/>
      <g id="ITEM_1_ICON" transform="translate(48, -19)" data-icon-size="68" stroke-dasharray="6 4">
        <g transform="translate(-4.175438596491228,-4.771929824561403) scale(0.14912280701754385)" vector-effect="non-scaling-stroke" fill="#f1f5f9" fill-opacity="1.0" stroke="none">
          <path fill="#f1f5f9" d="m265 34l47.898 35.924l61.563 123.123l-8.057 32.23l-24.943-4.158l3.16-10.533l2.842-9.473L256 182.823l-91.463 18.29l6.002 20.006l-24.943 4.156l-8.057-32.228L199.1 69.926L247 34v56h-39l-16 32l64 38l64-38l-16-32h-39zm188.313 169.258l30.3 10.101l-13.478 29.205l-30.016-5.001zm-394.626 0l13.194 34.304l-30.016 5.002l-13.478-29.205zM256 205.32l53.8 58.692L281.306 359h-50.61L202.2 264.012zm25.254.909l43.283 8.658l-8.715 29.052zm-50.508.002l-34.568 37.709l-8.715-29.053zm105.5 32.267L482.5 262.873L429.799 368.28L329.98 259.385zm-160.492 0l6.266 20.887L82.2 368.279L29.5 262.873zm148.205 40.96l72.201 78.765l-84.556-37.582zm-135.918 0l12.355 41.183l-84.556 37.582zm118.348 58.564l28.646 12.732L312.973 439H265v-62h29.695zm-100.778 0L217.305 377H247v62h-47.973l-22.062-88.246zM387.6 374.115l18.105 8.047l-9.984 21.635l-16.387-8.193zm-263.2 0l8.266 21.489l-16.387 8.193l-9.984-21.635zM311 457v30h-30v-30zm-80 0v30h-30v-30z" vector-effect="non-scaling-stroke" stroke="none"/>
        </g>
      </g>
      <text id="ITEM_1_HEAD" x="162.0" y="-30.0" font-weight="700" font-size="28" fill="var(--primary-text)" data-bg-id="ITEM_1_TEXT_BG" fill-opacity="1.0" style="font-size: 30px; font-family: Inter, Segoe UI, Kalam, Roboto, Helvetica, Arial, sans-serif; font-weight: 700; letter-spacing:-0.4px;" data-final-font-size="30">
        <tspan x="162.0" dy="27.25px">Saucer Exterior</tspan>
      </text>
      <rect id="ITEM_1_HEAD_FRAME" x="162" y="-30" width="472" height="38" fill="none"/>
      <text id="ITEM_1_BODY" x="162.0" y="10.0" font-size="19" fill="var(--primary-text)" data-bg-id="ITEM_1_TEXT_BG" style="font-size: 24px; font-family: Inter, Segoe UI, Kalam, Roboto, Helvetica, Arial, sans-serif; font-weight: 400;" data-final-font-size="24">
        <tspan x="162.0" dy="20.56px">Metallic spacecraft-like structure</tspan>
        <tspan x="162.0" dy="27.60px">replaces standard corporate architecture</tspan>
      </text>
      <rect id="ITEM_1_BODY_FRAME" x="162" y="10" width="468" height="62" fill="none"/>
    </g>
    <line x1="840" y1="540" x2="1100" y2="481.25" stroke="var(--accent-2)" stroke-width="18" stroke-linecap="round" opacity="0.18" filter="url(#svg94743804-beam-glow)"/>
    <line x1="840" y1="540" x2="1100" y2="481.25" stroke="var(--accent-2)" stroke-width="4" stroke-linecap="round" opacity="0.72"/>
    <g transform="translate(1100, 481.25)">
      <path id="ITEM_2_BG" d="M 0 -60 L 610 -60 L 740 15 L 610 90 L 0 90 L 56 15 Z" fill="var(--panel)" fill-opacity="0.95" stroke="var(--accent-2)" stroke-width="3" filter="url(#svg94743804-shadow)"/>
      <rect id="ITEM_2_TEXT_BG" x="138" y="-42" width="520" height="114" rx="18" fill="var(--panel)" fill-opacity="0.9" stroke="var(--primary-text)" stroke-opacity="0.1" stroke-width="1.5"/>
      <rect x="150" y="-32" width="496" height="94" rx="14" fill="url(#svg94743804-universal-surface-sheen)" opacity="0.76"/>
      <circle id="ITEM_2_PAD" cx="82" cy="15" r="42" fill="var(--icon-pad-bg)" stroke="var(--primary-text)" opacity="0.94" fill-opacity="0.9" stroke-width="2"/>
      <circle id="ITEM_2_PAD_INNER" cx="82" cy="15" r="32.76" fill="var(--accent-2)" fill-opacity="0.22"/>
      <circle cx="82" cy="15" r="34" fill="none" stroke="var(--accent-2)" stroke-width="3" stroke-dasharray="6 4"/>
      <g id="ITEM_2_ICON" transform="translate(48, -19)" data-icon-size="68" stroke-dasharray="6 4">
        <g transform="translate(0.0,0.0) scale(0.53125)">
          <path d="M0,125.75L0,140.27L128,140.27L128,125.75C128,103.47 96.59,92.16 64.49,92.2C32.59,92.24 0,102.15 0,125.75Z" style="fill:rgb(189,189,189);fill-rule:nonzero;"/>
          <path d="M56.51,162.08L39.36,162.08C37.17,162.08 35.37,160.28 35.37,158.09L35.37,121.9C35.37,119.71 37.17,117.91 39.36,117.91L56.52,117.91C58.71,117.91 60.51,119.71 60.51,121.9L60.51,158.09C60.499,160.278 58.699,162.075 56.51,162.08Z" style="fill:rgb(13,71,161);fill-rule:nonzero;"/>
          <path d="M71.39,129.88L70.94,129.88C67.65,129.88 64.96,127.19 64.96,123.9C64.96,120.61 67.65,117.92 70.94,117.92L71.39,117.92C74.68,117.92 77.37,120.61 77.37,123.9C77.37,127.18 74.68,129.88 71.39,129.88Z" style="fill:rgb(97,97,97);fill-rule:nonzero;"/>
          <path d="M86.65,129.88L86.2,129.88C82.91,129.88 80.22,127.19 80.22,123.9C80.22,120.61 82.91,117.92 86.2,117.92L86.65,117.92C89.94,117.92 92.63,120.61 92.63,123.9C92.63,127.18 89.94,129.88 86.65,129.88Z" style="fill:rgb(245,245,245);fill-rule:nonzero;"/>
          <path d="M105.26,140C105.33,126.35 110.97,114.41 119.38,107.78C117.63,106.21 115.65,104.76 113.48,103.42C104.84,111.74 99.23,125.02 99.16,140L105.26,140ZM22.28,140C22.21,126.35 16.59,114.48 8.18,107.85C9.988,106.186 11.954,104.702 14.05,103.42C22.69,111.74 28.31,125.02 28.38,140L22.28,140Z" style="fill:rgb(147,147,147);fill-rule:nonzero;"/>
          <path d="M128,125.75C128,122.81 127.44,120.06 126.41,117.5L118.19,120.17L123.35,136.1L128,134.59L128,125.75ZM0,138.07C3.94,134.8 6.45,129.87 6.45,124.36C6.45,120.51 5.22,116.96 3.14,114.04C1.12,117.5 0,121.39 0,125.75L0,138.07Z" style="fill:rgb(117,117,117);fill-rule:nonzero;"/>
          <ellipse cx="64.07" cy="49.36" rx="49.18" ry="48.99" style="fill:rgb(33,33,33);"/>
          <path d="M51.89,29.71C51.89,29.71 54.81,30.22 54.81,33.36C54.81,36.13 52.68,37.23 50.55,37.23L50.55,29.72L51.89,29.72L51.89,29.71ZM20.07,29.71C20.07,29.71 17.15,30.22 17.15,33.36C17.15,36.13 19.28,37.23 21.41,37.23L21.41,29.72L20.07,29.72L20.07,29.71Z" style="fill:rgb(227,148,0);fill-rule:nonzero;"/>
          <path d="M35.98,9.13C23.41,9.13 20.12,18.88 20.12,32.57C20.12,46.77 30.892,50.44 35.98,50.44C41.068,50.44 51.84,46.87 51.84,32.57C51.85,18.88 48.56,9.13 35.98,9.13Z" style="fill:rgb(251,193,27);fill-rule:nonzero;"/>
          <path d="M30.76,33.84C30.76,35.25 29.81,36.4 28.64,36.4C27.47,36.4 26.52,35.25 26.52,33.84C26.52,32.42 27.47,31.28 28.64,31.28C29.81,31.28 30.76,32.43 30.76,33.84M41.2,33.84C41.2,35.25 42.15,36.4 43.32,36.4C44.49,36.4 45.44,35.25 45.44,33.84C45.44,32.42 44.49,31.28 43.32,31.28C42.15,31.28 41.2,32.43 41.2,33.84" style="fill:rgb(68,68,68);fill-rule:nonzero;"/>
          <path d="M40.57,42.49L31.39,42.49C30.86,42.49 30.64,42.84 30.99,43.37C31.48,44.11 33.29,45.54 35.99,45.54C38.69,45.54 40.5,44.11 40.99,43.37C41.33,42.85 41.1,42.49 40.57,42.49Z" style="fill:rgb(81,63,53);fill-rule:nonzero;"/>
          <path d="M38.2,38.59C37.42,38.81 36.61,38.92 35.98,38.92C35.35,38.92 34.54,38.81 33.76,38.59C33.43,38.5 33.29,38.81 33.41,39.02C33.66,39.46 34.66,40.34 35.97,40.34C37.29,40.34 38.29,39.46 38.53,39.02C38.67,38.81 38.53,38.5 38.2,38.59Z" style="fill:rgb(227,148,0);fill-rule:nonzero;"/>
          <path d="M52.262,8.761C54.871,6.69 58.526,4.944 63.673,4.842C63.673,4.842 63.918,4.832 64.03,4.832C64.132,4.832 64.388,4.842 64.388,4.842C68.108,4.947 71.159,5.901 73.599,7.226C74.413,7.483 75.193,7.817 75.87,8.204C76.281,8.439 76.654,8.7 77.024,8.995C77.1,9.056 77.381,9.211 77.406,9.304C77.435,9.408 77.191,9.288 77.083,9.279L76.565,9.229C77.168,9.727 77.711,10.241 78.197,10.755C78.468,10.918 78.736,11.097 79.001,11.297C79.329,11.545 79.598,11.85 79.856,12.167C79.945,12.277 80.037,12.384 80.114,12.503C80.163,12.578 80.345,12.718 80.257,12.728C80.093,12.747 79.894,12.66 79.717,12.602C80.207,13.293 80.587,13.947 80.862,14.519C81.83,16.534 82.396,18.486 82.705,20.271C83.288,21.052 83.763,21.902 83.851,22.739C83.865,22.868 83.65,22.575 83.545,22.5C83.35,22.36 83.144,22.238 82.943,22.107C83.051,23.358 83.041,24.49 82.975,25.458C83.345,25.908 83.893,26.496 83.959,27.089C83.964,27.143 83.86,27.044 83.812,27.02C83.677,26.953 83.554,26.89 83.431,26.801C83.245,26.666 83.063,26.52 82.894,26.363C82.712,27.989 82.403,28.961 82.403,28.961C82.403,28.961 82.189,28.737 81.78,28.42C81.341,28.083 80.862,27.889 80.862,27.889C81.503,30.783 82.048,35.412 80.862,37.414C78.931,35.795 76.305,30.252 75.588,20.757C74.932,21.331 74.265,21.847 73.689,22.091C73.73,22.265 73.772,22.439 73.827,22.602C73.89,22.789 73.964,22.973 74.055,23.147C74.104,23.239 74.318,23.431 74.215,23.415C73.965,23.377 73.585,22.993 73.363,22.856C72.915,22.577 72.444,22.347 71.945,22.191C71.454,22.16 70.963,22.113 70.479,22.03C70.661,22.636 70.807,23.254 70.861,23.884C70.88,24.108 70.903,24.759 70.731,24.916C70.731,24.916 70.567,24.696 70.554,24.677C70.442,24.517 70.328,24.358 70.214,24.2C69.887,23.748 69.561,23.299 69.184,22.886C68.483,22.118 67.76,21.393 66.957,20.773C66.182,20.421 65.405,20.071 64.586,19.819C63.496,19.483 62.375,19.437 61.262,19.234C61.067,19.198 60.875,19.153 60.683,19.101C60.572,19.105 60.46,19.11 60.348,19.116C60.984,20.652 61.197,22.354 60.707,23.944C60.489,24.65 60.168,25.323 59.748,25.93C59.717,25.975 59.416,26.415 59.336,26.382C59.107,26.286 58.762,25.544 58.618,25.335C58.079,24.55 57.506,23.742 56.826,23.069C55.575,21.828 54.066,21.013 52.519,20.261C52.614,26.022 50.851,33.805 47.199,37.414C46.257,35.302 46.402,30.488 47.199,27.889C47.199,27.889 46.709,28.083 46.28,28.42C45.882,28.737 45.658,28.961 45.658,28.961C45.658,28.961 44.966,26.371 44.956,23.098C44.772,23.26 44.439,23.675 44.231,23.708C44.17,23.718 44.242,23.584 44.249,23.522C44.266,23.373 44.29,23.224 44.314,23.076C44.37,22.731 44.444,22.389 44.541,22.053C44.671,21.601 44.856,21.178 45.072,20.771C45.294,18.704 45.866,16.549 47.075,14.704C46.829,14.685 46.59,14.66 46.364,14.633C46.074,14.597 45.784,14.536 45.51,14.435C45.473,14.422 45.284,14.379 45.272,14.341C45.272,14.341 45.795,14.088 45.876,14.045C46.537,13.694 47.188,13.297 47.831,12.91C48.166,12.707 48.507,12.48 48.844,12.237C49.435,11.486 50.136,10.681 50.969,9.887C50.741,9.706 50.538,9.484 50.368,9.207C50.176,8.893 49.996,8.531 49.952,8.16C49.937,8.034 50.024,7.712 50.238,7.753C50.805,7.862 51.061,8.682 51.676,8.821C51.832,8.856 52.051,8.816 52.262,8.761Z" style="fill:rgb(109,76,65);fill-rule:nonzero;"/>
          <path d="M107.41,86.06C104.78,83.43 100.71,82.96 97.5,84.85C87.58,90.7 76.02,94.07 63.67,94.07C51.32,94.07 39.76,90.71 29.84,84.85C26.63,82.96 22.56,83.42 19.93,86.06C16.22,89.77 16.93,96.04 21.45,98.72C33.82,106.06 48.25,110.28 63.67,110.28C79.09,110.28 93.52,106.06 105.89,98.72C110.41,96.04 111.13,89.77 107.41,86.06Z" style="fill:rgb(117,117,117);fill-rule:nonzero;"/>
          <circle cx="64.07" cy="49.38" r="49.18" style="fill:rgb(33,33,33);fill-opacity:0.5;"/>
          <path d="M64.07,18.81C85.83,18.81 104.58,31.62 113.23,50.1C113.23,49.86 113.25,49.62 113.25,49.37C113.25,22.21 91.23,0.19 64.07,0.19C36.91,0.19 14.89,22.21 14.89,49.37C14.89,49.61 14.9,49.86 14.91,50.1C23.56,31.62 42.31,18.81 64.07,18.81ZM107.55,83.06C104.92,80.43 100.85,79.96 97.64,81.85C87.72,87.7 76.16,91.07 63.81,91.07C51.46,91.07 39.9,87.71 29.98,81.85C26.77,79.96 22.7,80.42 20.07,83.06C16.36,86.77 17.07,93.04 21.59,95.72C33.96,103.06 48.39,107.28 63.81,107.28C79.23,107.28 93.66,103.06 106.03,95.72C110.55,93.04 111.27,86.77 107.55,83.06Z" style="fill:rgb(189,189,189);fill-rule:nonzero;"/>
          <path d="M117.66,37.64L111.48,40.13L103.86,21.25L110.04,18.76C111.61,18.12 113.41,18.89 114.04,20.46L119.36,33.64C120,35.21 119.24,37.01 117.66,37.64Z" style="fill:rgb(189,189,189);fill-rule:nonzero;"/>
          <circle cx="110.28" cy="24.04" r="3.03" style="fill:rgb(117,117,117);"/>
          <circle cx="114.1" cy="33.71" r="3.03" style="fill:rgb(117,117,117);"/>
          <path d="M10.1,37.64L16.28,40.13L23.9,21.25L17.72,18.76C16.15,18.12 14.35,18.89 13.72,20.46L8.4,33.64C7.76,35.21 8.52,37.01 10.1,37.64Z" style="fill:rgb(189,189,189);fill-rule:nonzero;"/>
          <circle cx="17.49" cy="24.04" r="3.03" style="fill:rgb(117,117,117);"/>
          <circle cx="13.66" cy="33.71" r="3.03" style="fill:rgb(117,117,117);"/>
          <path d="M85.7,83.23L81.62,84C79.71,84.36 77.86,83.09 77.5,81.19L77.23,79.74C76.87,77.83 78.14,75.98 80.04,75.62L84.12,74.85C86.03,74.49 87.88,75.76 88.24,77.66L88.51,79.11C88.88,81.01 87.61,82.87 85.7,83.23Z" style="fill:rgb(33,33,33);fill-rule:nonzero;"/>
          <path d="M94.59,79.14L87.03,80.65C86.36,80.78 85.69,80.34 85.56,79.67C85.43,79 85.87,78.33 86.54,78.2L94.1,76.69C94.77,76.56 95.44,77 95.57,77.67C95.7,78.34 95.26,79.01 94.59,79.14Z" style="fill:rgb(33,33,33);fill-rule:nonzero;"/>
        </g>
      </g>
      <text id="ITEM_2_HEAD" x="162.0" y="-30.0" font-weight="700" font-size="28" fill="var(--primary-text)" data-bg-id="ITEM_2_TEXT_BG" fill-opacity="1.0" style="font-size: 30px; font-family: Inter, Segoe UI, Kalam, Roboto, Helvetica, Arial, sans-serif; font-weight: 700; letter-spacing:-0.4px;" data-final-font-size="30">
        <tspan x="162.0" dy="27.25px">Space Décor</tspan>
      </text>
      <rect id="ITEM_2_HEAD_FRAME" x="162" y="-30" width="472" height="38" fill="none"/>
      <text id="ITEM_2_BODY" x="162.0" y="10.0" font-size="19" fill="var(--primary-text)" data-bg-id="ITEM_2_TEXT_BG" style="font-size: 26px; font-family: Inter, Segoe UI, Kalam, Roboto, Helvetica, Arial, sans-serif; font-weight: 400;" data-final-font-size="26">
        <tspan x="162.0" dy="21.24px">Interior features astronaut-themed</tspan>
        <tspan x="162.0" dy="29.90px">figures and science-fiction imagery</tspan>
      </text>
      <rect id="ITEM_2_BODY_FRAME" x="162" y="10" width="468" height="62" fill="none"/>
    </g>
    <line x1="840" y1="540" x2="1100" y2="668.75" stroke="var(--accent-3)" stroke-width="18" stroke-linecap="round" opacity="0.18" filter="url(#svg94743804-beam-glow)"/>
    <line x1="840" y1="540" x2="1100" y2="668.75" stroke="var(--accent-3)" stroke-width="4" stroke-linecap="round" opacity="0.72"/>
    <g transform="translate(1100, 668.75)">
      <path id="ITEM_3_BG" d="M 0 -60 L 610 -60 L 740 15 L 610 90 L 0 90 L 56 15 Z" fill="var(--panel)" fill-opacity="0.95" stroke="var(--accent-3)" stroke-width="3" filter="url(#svg94743804-shadow)"/>
      <rect id="ITEM_3_TEXT_BG" x="138" y="-42" width="520" height="114" rx="18" fill="var(--panel)" fill-opacity="0.9" stroke="var(--primary-text)" stroke-opacity="0.1" stroke-width="1.5"/>
      <rect x="150" y="-32" width="496" height="94" rx="14" fill="url(#svg94743804-universal-surface-sheen)" opacity="0.76"/>
      <circle id="ITEM_3_PAD" cx="82" cy="15" r="42" fill="var(--icon-pad-bg)" stroke="var(--primary-text)" opacity="0.94" fill-opacity="0.9" stroke-width="2"/>
      <circle id="ITEM_3_PAD_INNER" cx="82" cy="15" r="32.76" fill="var(--accent-3)" fill-opacity="0.22"/>
      <circle cx="82" cy="15" r="34" fill="none" stroke="var(--accent-3)" stroke-width="3" stroke-dasharray="6 4"/>
      <g id="ITEM_3_ICON" transform="translate(48, -19)" data-icon-size="68" stroke-dasharray="6 4">
        <g transform="translate(-4.857142857142857,-1.2142857142857117) scale(0.30357142857142855)" vector-effect="non-scaling-stroke" stroke-width="2.53" stroke-linecap="round" stroke-linejoin="round" stroke-opacity="1.0">
          <line x1="24" y1="200" x2="232" y2="200" fill="none" stroke="#f1f5f9" vector-effect="non-scaling-stroke"/>
          <line x1="56" y1="136" x2="56" y2="200" fill="none" stroke="#f1f5f9" vector-effect="non-scaling-stroke"/>
          <line x1="112" y1="136" x2="112" y2="200" fill="none" stroke="#f1f5f9" vector-effect="non-scaling-stroke"/>
          <line x1="40" y1="168" x2="128" y2="168" fill="none" stroke="#f1f5f9" vector-effect="non-scaling-stroke"/>
          <line x1="40" y1="136" x2="128" y2="136" fill="none" stroke="#f1f5f9" vector-effect="non-scaling-stroke"/>
          <line x1="192" y1="200" x2="192" y2="160" fill="none" stroke="#f1f5f9" vector-effect="non-scaling-stroke"/>
          <polygon points="192 32 224 160 160 160 192 32" fill="none" stroke="#f1f5f9" vector-effect="non-scaling-stroke"/>
          <circle cx="116" cy="68" r="20" fill="none" stroke="#f1f5f9" vector-effect="non-scaling-stroke"/>
        </g>
      </g>
      <text id="ITEM_3_HEAD" x="162.0" y="-30.0" font-weight="700" font-size="28" fill="var(--primary-text)" data-bg-id="ITEM_3_TEXT_BG" fill-opacity="1.0" style="font-size: 30px; font-family: Inter, Segoe UI, Kalam, Roboto, Helvetica, Arial, sans-serif; font-weight: 700; letter-spacing:-0.4px;" data-final-font-size="30">
        <tspan x="162.0" dy="27.25px">Play Areas</tspan>
      </text>
      <rect id="ITEM_3_HEAD_FRAME" x="162" y="-30" width="472" height="38" fill="none"/>
      <text id="ITEM_3_BODY" x="162.0" y="10.0" font-size="19" fill="var(--primary-text)" data-bg-id="ITEM_3_TEXT_BG" style="font-size: 26px; font-family: Inter, Segoe UI, Kalam, Roboto, Helvetica, Arial, sans-serif; font-weight: 400;" data-final-font-size="26">
        <tspan x="162.0" dy="21.24px">Children's spaces designed around</tspan>
        <tspan x="162.0" dy="29.90px">science-fiction themes</tspan>
      </text>
      <rect id="ITEM_3_BODY_FRAME" x="162" y="10" width="468" height="62" fill="none"/>
    </g>
    <line x1="840" y1="540" x2="1100" y2="856.25" stroke="var(--accent-4)" stroke-width="18" stroke-linecap="round" opacity="0.18" filter="url(#svg94743804-beam-glow)"/>
    <line x1="840" y1="540" x2="1100" y2="856.25" stroke="var(--accent-4)" stroke-width="4" stroke-linecap="round" opacity="0.72"/>
    <g transform="translate(1100, 856.25)">
      <path id="ITEM_4_BG" d="M 0 -60 L 610 -60 L 740 15 L 610 90 L 0 90 L 56 15 Z" fill="var(--panel)" fill-opacity="0.95" stroke="var(--accent-4)" stroke-width="3" filter="url(#svg94743804-shadow)"/>
      <rect id="ITEM_4_TEXT_BG" x="138" y="-42" width="520" height="114" rx="18" fill="var(--panel)" fill-opacity="0.9" stroke="var(--primary-text)" stroke-opacity="0.1" stroke-width="1.5"/>
      <rect x="150" y="-32" width="496" height="94" rx="14" fill="url(#svg94743804-universal-surface-sheen)" opacity="0.76"/>
      <circle id="ITEM_4_PAD" cx="82" cy="15" r="42" fill="var(--icon-pad-bg)" stroke="var(--primary-text)" opacity="0.94" fill-opacity="0.9" stroke-width="2"/>
      <circle id="ITEM_4_PAD_INNER" cx="82" cy="15" r="32.76" fill="var(--accent-4)" fill-opacity="0.22"/>
      <circle cx="82" cy="15" r="34" fill="none" stroke="var(--accent-4)" stroke-width="3" stroke-dasharray="6 4"/>
      <g id="ITEM_4_ICON" transform="translate(48, -19)" data-icon-size="68" stroke-dasharray="6 4">
        <g transform="translate(-4.857142857142857,-15.785714285714281) scale(2.4285714285714284)">
          <path d="M5.5 11C5.22386 11 5 11.2239 5 11.5V13H9V11.5C9 11.2239 8.77614 11 8.5 11H5.5Z" fill="#D3D3D3"/>
          <path d="M21.5 11C21.2239 11 21 11.2239 21 11.5V13H27V11.5C27 11.2239 26.7761 11 26.5 11H21.5Z" fill="#D3D3D3"/>
          <path d="M2 14C2 12.8954 2.89543 12 4 12H28C29.1046 12 30 12.8954 30 14V16.5L28 22L30 27.5V28C30 29.1046 29.1046 30 28 30H4C2.89543 30 2 29.1046 2 28V27.5L3.5 22L2 16.5V14Z" fill="#E6E6E6"/>
          <path d="M2 16.5C2 16.2239 2.22386 16 2.5 16H29.5C29.7761 16 30 16.2239 30 16.5V27.5C30 27.7761 29.7761 28 29.5 28H2.5C2.22386 28 2 27.7761 2 27.5V16.5Z" fill="#533566"/>
          <path d="M22 22C22 25.3137 19.3137 28 16 28C12.6863 28 10 25.3137 10 22C10 18.6863 12.6863 16 16 16C19.3137 16 22 18.6863 22 22Z" fill="#321B41"/>
          <path d="M16 27C18.7614 27 21 24.7614 21 22C21 19.2386 18.7614 17 16 17C13.2386 17 11 19.2386 11 22C11 24.7614 13.2386 27 16 27ZM16 29C12.134 29 9 25.866 9 22C9 18.134 12.134 15 16 15C19.866 15 23 18.134 23 22C23 25.866 19.866 29 16 29Z" fill="#9B9B9B"/>
          <path d="M18.5 22C18.5 23.3807 17.3807 24.5 16 24.5C14.6193 24.5 13.5 23.3807 13.5 22C13.5 20.6193 14.6193 19.5 16 19.5C17.3807 19.5 18.5 20.6193 18.5 22Z" fill="#433B6B"/>
          <path d="M19.0825 19.875C19.4967 20.5924 19.4448 21.3979 18.9665 21.674C18.4882 21.9501 17.7647 21.5924 17.3505 20.875C16.9363 20.1575 16.9882 19.3521 17.4665 19.0759C17.9448 18.7998 18.6683 19.1575 19.0825 19.875Z" fill="white"/>
        </g>
      </g>
      <text id="ITEM_4_HEAD" x="162.0" y="-30.0" font-weight="700" font-size="28" fill="var(--primary-text)" data-bg-id="ITEM_4_TEXT_BG" fill-opacity="1.0" style="font-size: 30px; font-family: Inter, Segoe UI, Kalam, Roboto, Helvetica, Arial, sans-serif; font-weight: 700; letter-spacing:-0.4px;" data-final-font-size="30">
        <tspan x="162.0" dy="27.25px">Visual Joke</tspan>
      </text>
      <rect id="ITEM_4_HEAD_FRAME" x="162" y="-30" width="472" height="38" fill="none"/>
      <text id="ITEM_4_BODY" x="162.0" y="10.0" font-size="19" fill="var(--primary-text)" data-bg-id="ITEM_4_TEXT_BG" style="font-size: 26px; font-family: Inter, Segoe UI, Kalam, Roboto, Helvetica, Arial, sans-serif; font-weight: 400;" data-final-font-size="26">
        <tspan x="162.0" dy="21.24px">Recognizable architecture signals</tspan>
        <tspan x="162.0" dy="29.90px">the local UFO crash legend</tspan>
      </text>
      <rect id="ITEM_4_BODY_FRAME" x="162" y="10" width="468" height="62" fill="none"/>
    </g>
  </g>
</svg>
